<?xml version="1.0" encoding="UTF-8" standalone="no"?>
<!-- Created with Inkscape (http://www.inkscape.org/) -->

<svg
   width="7.043786mm"
   height="7.1730313mm"
   viewBox="0 0 7.0437861 7.1730312"
   version="1.1"
   id="svg1"
   xml:space="preserve"
   xmlns="http://www.w3.org/2000/svg"
   xmlns:svg="http://www.w3.org/2000/svg"><defs
     id="defs1" /><g
     id="g1"
     transform="matrix(0.26458333,0,0,0.26458333,-125.46095,-86.107237)"><g
       id="g11"><path
         id="path687"
         d="m 482.88801,351.77802 c 0,0 -8.22136,0 -8.22136,0 0,0 6.5547,-17.22267 6.5547,-17.22267 0,0 13,0 13,0 0,0 6.11197,17.22267 6.11197,17.22267 0,0 -8.88803,0 -8.88803,0"
         style="fill:none;stroke:#231f20;stroke-width:0.666667;stroke-linecap:butt;stroke-linejoin:miter;stroke-miterlimit:4;stroke-dasharray:none;stroke-opacity:1" /><path
         id="path688"
         d="m 485.66665,333.33335 c 0,0 -3.66666,-7.66667 -3.66666,-7.66667"
         style="fill:none;stroke:#231f20;stroke-width:0.666667;stroke-linecap:butt;stroke-linejoin:miter;stroke-miterlimit:4;stroke-dasharray:none;stroke-opacity:1" /><path
         id="path689"
         d="m 487.66665,325.44468 c 0,0 0,8.222 0,8.222"
         style="fill:none;stroke:#231f20;stroke-width:0.666667;stroke-linecap:butt;stroke-linejoin:miter;stroke-miterlimit:4;stroke-dasharray:none;stroke-opacity:1" /><path
         id="path690"
         d="m 489.88801,333.33335 c 0,0 3.77864,-7.66667 3.77864,-7.66667"
         style="fill:none;stroke:#231f20;stroke-width:0.666667;stroke-linecap:butt;stroke-linejoin:miter;stroke-miterlimit:4;stroke-dasharray:none;stroke-opacity:1" /><path
         id="path691"
         d="m 487.44529,352.55535 c -0.56509,0 -1.02213,-0.45703 -1.02213,-1.02148 0,-0.5638 0.45704,-1.02083 1.02213,-1.02083 0.56251,0 1.01954,0.45703 1.01954,1.02083 0,0.56445 -0.45703,1.02148 -1.01954,1.02148 z"
         style="fill:#231f20;fill-opacity:1;fill-rule:nonzero;stroke:none;stroke-width:1.33333" /></g></g></svg>
