<?xml version="1.0" encoding="UTF-8" standalone="no"?>
<!-- Created with Inkscape (http://www.inkscape.org/) -->

<svg
   width="6.0069094mm"
   height="5.9760718mm"
   viewBox="0 0 6.0069094 5.9760717"
   version="1.1"
   id="svg1"
   xml:space="preserve"
   xmlns="http://www.w3.org/2000/svg"
   xmlns:svg="http://www.w3.org/2000/svg"><defs
     id="defs1" /><g
     id="g1"
     transform="matrix(0.26458333,0,0,0.26458333,-89.537642,-138.08469)"><g
       id="g4"><path
         id="path125"
         d="M 0,0 C 0.056,0.101 0.141,0.172 0.253,0.211 0.366,0.25 0.473,0.242 0.575,0.186 0.687,0.129 0.76,0.045 0.794,-0.068 0.828,-0.181 0.817,-0.288 0.76,-0.389 0.693,-0.513 0.606,-0.586 0.499,-0.609 0.391,-0.631 0.29,-0.617 0.194,-0.567 0.098,-0.516 0.028,-0.44 -0.017,-0.338 -0.062,-0.237 -0.057,-0.124 0,0 Z m -2.414,-0.645 c 0,-0.15 -0.056,-0.279 -0.17,-0.386 -0.113,-0.108 -0.247,-0.161 -0.401,-0.161 -0.155,0 -0.286,0.053 -0.395,0.161 -0.109,0.107 -0.163,0.236 -0.163,0.386 0,0.149 0.054,0.276 0.163,0.379 0.109,0.102 0.24,0.154 0.395,0.154 0.154,0 0.288,-0.052 0.401,-0.154 0.114,-0.103 0.17,-0.23 0.17,-0.379 z m -3.452,7.88 c 0.056,0.113 0.141,0.186 0.253,0.22 0.113,0.034 0.22,0.023 0.322,-0.034 C -5.179,7.365 -5.106,7.283 -5.072,7.176 -5.038,7.069 -5.049,6.959 -5.106,6.846 -5.162,6.745 -5.244,6.677 -5.351,6.644 -5.458,6.61 -5.568,6.621 -5.68,6.677 -5.782,6.733 -5.852,6.815 -5.892,6.923 -5.931,7.029 -5.923,7.134 -5.866,7.235 Z m 1.741,0.372 c 0.068,0.124 0.158,0.195 0.27,0.211 0.113,0.018 0.217,0 0.313,-0.05 C -3.446,7.717 -3.376,7.641 -3.331,7.539 -3.286,7.438 -3.297,7.331 -3.364,7.218 -3.432,7.094 -3.522,7.021 -3.635,6.998 -3.748,6.976 -3.852,6.99 -3.948,7.041 -4.043,7.091 -4.114,7.167 -4.159,7.269 -4.204,7.37 -4.193,7.483 -4.125,7.607 Z m 1.64,-0.017 c 0.056,0.102 0.14,0.172 0.254,0.212 0.112,0.039 0.219,0.03 0.32,-0.026 0.124,-0.068 0.198,-0.155 0.22,-0.262 C -1.668,7.407 -1.682,7.305 -1.733,7.21 -1.784,7.114 -1.86,7.044 -1.961,6.998 -2.063,6.953 -2.175,6.959 -2.299,7.016 -2.401,7.072 -2.471,7.154 -2.51,7.26 -2.55,7.368 -2.542,7.478 -2.485,7.59 Z m 1.606,-0.372 c 0.056,0.113 0.141,0.186 0.253,0.22 0.113,0.034 0.22,0.023 0.322,-0.034 C -0.192,7.348 -0.119,7.266 -0.085,7.159 -0.051,7.052 -0.062,6.942 -0.119,6.829 -0.175,6.728 -0.257,6.658 -0.364,6.618 -0.471,6.579 -0.581,6.587 -0.693,6.644 -0.795,6.7 -0.865,6.784 -0.905,6.897 -0.944,7.01 -0.936,7.117 -0.879,7.218 Z M 0.558,6.61 c 0.067,0.123 0.157,0.194 0.27,0.211 0.113,0.017 0.217,0 0.313,-0.051 C 1.237,6.72 1.307,6.644 1.352,6.542 1.397,6.441 1.386,6.333 1.318,6.221 1.251,6.097 1.16,6.026 1.048,6.01 0.935,5.992 0.834,6.01 0.744,6.061 0.654,6.111 0.583,6.184 0.532,6.28 0.481,6.376 0.49,6.486 0.558,6.61 Z M 1.91,5.697 c 0.068,0.124 0.158,0.194 0.27,0.211 0.113,0.017 0.218,0 0.313,-0.051 C 2.589,5.807 2.659,5.731 2.705,5.629 2.75,5.528 2.738,5.42 2.671,5.308 2.603,5.184 2.513,5.114 2.4,5.097 2.288,5.08 2.186,5.097 2.096,5.147 2.006,5.198 1.935,5.271 1.885,5.367 1.834,5.463 1.842,5.573 1.91,5.697 Z M 3.076,4.429 C 3.144,4.564 3.234,4.64 3.347,4.657 3.46,4.674 3.564,4.654 3.66,4.598 3.755,4.541 3.826,4.463 3.871,4.361 3.916,4.26 3.905,4.153 3.837,4.04 3.77,3.916 3.679,3.846 3.567,3.829 3.454,3.812 3.353,3.829 3.262,3.88 3.172,3.93 3.102,4.003 3.051,4.099 3,4.195 3.009,4.305 3.076,4.429 Z M 3.939,2.942 C 4.006,3.065 4.094,3.139 4.201,3.161 4.308,3.183 4.409,3.169 4.505,3.119 4.601,3.068 4.671,2.992 4.716,2.891 4.761,2.789 4.756,2.676 4.699,2.553 4.643,2.451 4.561,2.38 4.454,2.341 4.347,2.302 4.237,2.31 4.125,2.366 4.023,2.423 3.953,2.508 3.913,2.62 3.874,2.733 3.882,2.84 3.939,2.942 Z M 4.513,1.268 C 4.569,1.38 4.654,1.453 4.767,1.487 4.88,1.521 4.987,1.51 5.088,1.453 5.201,1.397 5.274,1.316 5.308,1.208 5.342,1.101 5.331,0.991 5.274,0.879 5.218,0.778 5.136,0.707 5.029,0.668 4.922,0.628 4.812,0.637 4.699,0.693 4.598,0.749 4.527,0.834 4.488,0.947 4.448,1.059 4.457,1.167 4.513,1.268 Z M -2.451,-8.47 c 0.056,0.102 0.14,0.172 0.253,0.212 0.113,0.039 0.22,0.03 0.321,-0.026 0.124,-0.067 0.198,-0.155 0.22,-0.262 0.023,-0.107 0.008,-0.208 -0.042,-0.304 -0.051,-0.096 -0.127,-0.166 -0.228,-0.211 -0.102,-0.046 -0.214,-0.04 -0.338,0.017 -0.102,0.056 -0.172,0.14 -0.212,0.253 -0.039,0.113 -0.031,0.22 0.026,0.321 z m 7.15,8.03 c 0.057,0.113 0.141,0.186 0.254,0.22 0.112,0.034 0.22,0.023 0.321,-0.034 C 5.387,-0.31 5.46,-0.392 5.494,-0.499 5.528,-0.606 5.516,-0.716 5.46,-0.829 5.404,-0.93 5.322,-1.001 5.215,-1.04 5.108,-1.079 4.998,-1.071 4.885,-1.015 4.784,-0.958 4.713,-0.874 4.674,-0.761 4.635,-0.648 4.643,-0.541 4.699,-0.44 Z M 4.496,-2.198 c 0.057,0.113 0.141,0.186 0.254,0.22 0.113,0.033 0.22,0.022 0.321,-0.034 C 5.184,-2.068 5.257,-2.15 5.291,-2.257 5.325,-2.364 5.314,-2.474 5.257,-2.587 5.19,-2.711 5.1,-2.781 4.987,-2.798 c -0.113,-0.017 -0.214,0 -0.304,0.05 -0.091,0.051 -0.161,0.124 -0.212,0.22 -0.051,0.096 -0.042,0.206 0.025,0.33 z M 3.972,-3.753 c 0.057,0.112 0.139,0.186 0.245,0.22 0.107,0.033 0.218,0.022 0.33,-0.034 0.102,-0.057 0.172,-0.138 0.212,-0.245 0.039,-0.107 0.03,-0.217 -0.026,-0.33 C 4.677,-4.243 4.592,-4.314 4.48,-4.353 4.367,-4.393 4.26,-4.384 4.159,-4.328 c -0.113,0.056 -0.187,0.141 -0.22,0.253 -0.034,0.113 -0.023,0.22 0.033,0.322 z M 3.144,-5.207 c 0.056,0.101 0.138,0.172 0.245,0.211 0.107,0.04 0.217,0.031 0.33,-0.025 C 3.82,-5.077 3.891,-5.162 3.93,-5.275 3.97,-5.388 3.961,-5.495 3.905,-5.596 3.849,-5.708 3.764,-5.782 3.651,-5.816 3.538,-5.85 3.432,-5.838 3.33,-5.782 3.217,-5.726 3.144,-5.644 3.11,-5.537 3.076,-5.43 3.088,-5.32 3.144,-5.207 Z M 1.91,-6.543 c 0.068,0.124 0.158,0.195 0.27,0.212 0.113,0.017 0.218,0 0.313,-0.051 0.096,-0.051 0.166,-0.124 0.212,-0.22 C 2.75,-6.697 2.738,-6.802 2.671,-6.915 2.603,-7.049 2.513,-7.129 2.4,-7.151 2.288,-7.174 2.186,-7.159 2.096,-7.109 2.006,-7.058 1.935,-6.982 1.885,-6.88 1.834,-6.779 1.842,-6.667 1.91,-6.543 Z M 0.609,-7.489 c 0.056,0.112 0.137,0.186 0.244,0.22 0.108,0.033 0.212,0.022 0.313,-0.034 C 1.279,-7.36 1.352,-7.441 1.386,-7.548 1.42,-7.655 1.409,-7.765 1.352,-7.878 1.296,-7.98 1.214,-8.05 1.107,-8.09 1,-8.129 0.89,-8.12 0.778,-8.064 c -0.102,0.056 -0.169,0.141 -0.203,0.253 -0.034,0.113 -0.023,0.22 0.034,0.322 z m -1.505,-0.643 c 0.056,0.102 0.141,0.172 0.253,0.212 0.113,0.039 0.22,0.031 0.322,-0.026 0.112,-0.056 0.186,-0.141 0.219,-0.253 0.034,-0.113 0.023,-0.22 -0.033,-0.321 -0.057,-0.113 -0.139,-0.186 -0.245,-0.22 -0.108,-0.034 -0.218,-0.023 -0.33,0.034 -0.102,0.056 -0.172,0.138 -0.212,0.245 -0.039,0.107 -0.03,0.216 0.026,0.329 z m -3.263,-0.354 c 0.056,0.101 0.141,0.171 0.254,0.211 0.112,0.039 0.219,0.03 0.321,-0.026 0.113,-0.056 0.186,-0.141 0.22,-0.253 0.033,-0.113 0.022,-0.22 -0.034,-0.321 -0.057,-0.113 -0.138,-0.186 -0.245,-0.22 -0.107,-0.034 -0.217,-0.023 -0.33,0.034 -0.102,0.056 -0.172,0.138 -0.212,0.245 -0.039,0.107 -0.03,0.217 0.026,0.33 z m -1.707,0.354 c 0.056,0.102 0.141,0.172 0.253,0.212 0.113,0.039 0.22,0.031 0.322,-0.026 0.112,-0.056 0.185,-0.141 0.219,-0.253 0.034,-0.113 0.023,-0.22 -0.034,-0.321 -0.056,-0.113 -0.138,-0.186 -0.245,-0.22 -0.107,-0.034 -0.211,-0.023 -0.312,0.034 -0.113,0.056 -0.189,0.14 -0.229,0.253 -0.039,0.113 -0.031,0.22 0.026,0.321 z m -1.539,0.677 c 0.056,0.112 0.141,0.186 0.254,0.219 0.113,0.034 0.219,0.023 0.321,-0.033 0.113,-0.057 0.186,-0.138 0.22,-0.246 0.034,-0.106 0.023,-0.216 -0.034,-0.329 -0.068,-0.124 -0.158,-0.195 -0.27,-0.212 -0.113,-0.016 -0.215,0 -0.305,0.051 -0.09,0.051 -0.16,0.124 -0.211,0.22 -0.051,0.095 -0.042,0.205 0.025,0.33 z m -1.251,0.896 c 0.057,0.112 0.138,0.185 0.246,0.219 0.107,0.034 0.217,0.023 0.329,-0.034 0.101,-0.056 0.172,-0.137 0.211,-0.245 0.04,-0.107 0.031,-0.217 -0.025,-0.329 -0.056,-0.101 -0.141,-0.172 -0.254,-0.211 -0.112,-0.04 -0.219,-0.032 -0.321,0.025 -0.112,0.056 -0.186,0.141 -0.22,0.254 -0.033,0.112 -0.022,0.219 0.034,0.321 z m -1.234,1.335 c 0.057,0.102 0.139,0.172 0.245,0.211 0.107,0.04 0.212,0.031 0.313,-0.025 0.113,-0.056 0.186,-0.141 0.22,-0.254 0.034,-0.112 0.022,-0.219 -0.034,-0.321 -0.056,-0.113 -0.138,-0.186 -0.245,-0.219 -0.107,-0.034 -0.217,-0.023 -0.33,0.033 -0.101,0.057 -0.169,0.139 -0.202,0.245 -0.034,0.107 -0.023,0.217 0.033,0.33 z m -0.845,1.454 c 0.057,0.112 0.138,0.186 0.245,0.22 0.107,0.033 0.217,0.022 0.33,-0.034 0.101,-0.057 0.172,-0.138 0.211,-0.245 0.04,-0.108 0.031,-0.217 -0.025,-0.33 -0.068,-0.124 -0.158,-0.194 -0.271,-0.211 -0.112,-0.017 -0.214,0 -0.304,0.051 -0.09,0.05 -0.161,0.123 -0.211,0.219 -0.051,0.096 -0.043,0.206 0.025,0.33 z m -0.524,1.555 c 0.056,0.113 0.138,0.186 0.245,0.22 0.107,0.034 0.217,0.022 0.33,-0.034 0.101,-0.056 0.171,-0.138 0.211,-0.245 0.04,-0.107 0.031,-0.217 -0.025,-0.33 -0.057,-0.101 -0.141,-0.169 -0.254,-0.203 -0.113,-0.034 -0.22,-0.022 -0.321,0.034 -0.113,0.057 -0.186,0.138 -0.22,0.245 -0.034,0.107 -0.022,0.212 0.034,0.313 z m -0.203,1.775 c 0.057,0.113 0.138,0.186 0.245,0.22 0.107,0.034 0.217,0.023 0.33,-0.034 0.101,-0.056 0.172,-0.138 0.211,-0.245 0.04,-0.107 0.031,-0.211 -0.025,-0.313 -0.057,-0.113 -0.141,-0.186 -0.254,-0.219 -0.112,-0.035 -0.219,-0.023 -0.321,0.033 -0.113,0.057 -0.186,0.138 -0.22,0.245 -0.033,0.108 -0.022,0.212 0.034,0.313 z m 0.186,1.741 c 0.068,0.124 0.155,0.198 0.262,0.22 0.107,0.023 0.209,0.009 0.304,-0.042 0.096,-0.051 0.167,-0.127 0.212,-0.228 0.045,-0.102 0.039,-0.214 -0.017,-0.338 -0.057,-0.102 -0.138,-0.172 -0.245,-0.212 -0.107,-0.039 -0.217,-0.031 -0.33,0.026 -0.101,0.056 -0.172,0.14 -0.211,0.253 -0.04,0.113 -0.031,0.22 0.025,0.321 z m 0.575,1.657 c 0.067,0.124 0.155,0.197 0.262,0.22 0.107,0.022 0.208,0.008 0.304,-0.043 0.096,-0.05 0.166,-0.126 0.212,-0.227 0.045,-0.102 0.039,-0.215 -0.018,-0.339 -0.067,-0.124 -0.157,-0.194 -0.27,-0.211 -0.113,-0.017 -0.214,0 -0.304,0.051 -0.09,0.051 -0.161,0.124 -0.211,0.22 -0.051,0.095 -0.043,0.205 0.025,0.329 z m 0.896,1.505 c 0.056,0.101 0.141,0.172 0.253,0.211 0.113,0.04 0.22,0.031 0.322,-0.025 C -9.118,4.592 -9.044,4.508 -9.01,4.395 -8.977,4.283 -8.988,4.175 -9.044,4.074 -9.101,3.961 -9.183,3.888 -9.289,3.854 -9.397,3.821 -9.506,3.832 -9.619,3.888 -9.721,3.944 -9.791,4.026 -9.831,4.133 -9.87,4.24 -9.861,4.35 -9.805,4.463 Z m 1.2,1.234 c 0.057,0.112 0.141,0.186 0.254,0.22 0.112,0.034 0.22,0.022 0.321,-0.034 C -7.917,5.826 -7.844,5.745 -7.811,5.638 -7.777,5.53 -7.788,5.42 -7.844,5.308 -7.9,5.207 -7.982,5.136 -8.089,5.097 -8.197,5.057 -8.306,5.066 -8.419,5.122 -8.52,5.178 -8.591,5.263 -8.63,5.376 c -0.039,0.112 -0.032,0.22 0.025,0.321 z m 1.234,0.947 c 0.056,0.101 0.141,0.171 0.254,0.211 0.112,0.039 0.219,0.031 0.321,-0.026 0.113,-0.056 0.186,-0.141 0.22,-0.253 0.033,-0.113 0.022,-0.22 -0.034,-0.321 -0.057,-0.113 -0.138,-0.186 -0.245,-0.22 -0.107,-0.034 -0.217,-0.022 -0.33,0.034 -0.101,0.056 -0.172,0.138 -0.211,0.245 -0.04,0.107 -0.031,0.217 0.025,0.33 z M -5.883,-6.39 c 0.067,0.123 0.158,0.194 0.27,0.211 0.113,0.017 0.22,0.003 0.322,-0.042 0.101,-0.046 0.174,-0.119 0.219,-0.22 0.045,-0.102 0.034,-0.209 -0.034,-0.322 -0.056,-0.112 -0.14,-0.188 -0.253,-0.228 -0.113,-0.039 -0.22,-0.03 -0.321,0.026 -0.113,0.056 -0.189,0.138 -0.229,0.245 -0.039,0.107 -0.031,0.217 0.026,0.33 z m 1.606,-0.457 c 0.056,0.113 0.138,0.189 0.245,0.228 0.107,0.04 0.217,0.032 0.33,-0.025 0.101,-0.057 0.171,-0.138 0.211,-0.245 0.039,-0.107 0.031,-0.217 -0.025,-0.33 -0.057,-0.101 -0.138,-0.171 -0.246,-0.211 -0.107,-0.04 -0.211,-0.031 -0.313,0.025 -0.112,0.057 -0.188,0.138 -0.228,0.246 -0.039,0.106 -0.031,0.211 0.026,0.312 z m -3.145,1.352 c 0.057,0.102 0.138,0.173 0.246,0.212 0.107,0.039 0.216,0.031 0.329,-0.025 0.102,-0.057 0.172,-0.139 0.212,-0.246 0.039,-0.106 0.031,-0.216 -0.026,-0.33 -0.056,-0.101 -0.138,-0.171 -0.245,-0.21 -0.107,-0.04 -0.211,-0.031 -0.313,0.025 -0.112,0.056 -0.189,0.138 -0.228,0.245 -0.039,0.107 -0.031,0.217 0.025,0.329 z m -1.149,1.201 c 0.056,0.112 0.141,0.189 0.254,0.228 0.112,0.039 0.22,0.031 0.321,-0.025 0.112,-0.057 0.188,-0.139 0.228,-0.245 0.039,-0.107 0.031,-0.217 -0.025,-0.33 -0.057,-0.124 -0.141,-0.197 -0.254,-0.22 -0.113,-0.022 -0.22,-0.008 -0.321,0.042 -0.102,0.051 -0.178,0.127 -0.228,0.229 -0.051,0.101 -0.043,0.208 0.025,0.321 z m -0.845,1.47 c 0.056,0.102 0.14,0.172 0.253,0.212 0.113,0.039 0.22,0.031 0.321,-0.026 0.113,-0.056 0.189,-0.138 0.229,-0.245 0.039,-0.107 0.031,-0.217 -0.026,-0.329 -0.056,-0.124 -0.14,-0.197 -0.253,-0.22 -0.113,-0.023 -0.22,-0.008 -0.321,0.042 -0.102,0.051 -0.178,0.127 -0.229,0.228 -0.05,0.102 -0.042,0.215 0.026,0.338 z m -0.389,1.589 c 0.067,0.136 0.158,0.215 0.271,0.237 0.112,0.023 0.216,0.009 0.312,-0.042 0.096,-0.051 0.166,-0.13 0.212,-0.237 0.044,-0.107 0.039,-0.217 -0.018,-0.329 -0.056,-0.102 -0.14,-0.172 -0.253,-0.211 -0.113,-0.04 -0.22,-0.032 -0.321,0.025 -0.113,0.056 -0.189,0.138 -0.229,0.245 -0.039,0.107 -0.03,0.211 0.026,0.312 z M 2.603,1.977 C 2.659,2.079 2.741,2.15 2.848,2.189 2.955,2.228 3.065,2.22 3.178,2.164 3.279,2.107 3.35,2.026 3.389,1.918 3.429,1.811 3.42,1.707 3.364,1.606 3.308,1.493 3.226,1.417 3.119,1.377 3.012,1.338 2.908,1.346 2.806,1.403 2.693,1.459 2.617,1.541 2.578,1.648 2.538,1.755 2.547,1.865 2.603,1.977 Z M 3.026,0.321 C 3.082,0.433 3.167,0.51 3.279,0.549 3.392,0.589 3.499,0.58 3.601,0.524 3.713,0.467 3.789,0.383 3.829,0.27 3.868,0.158 3.86,0.05 3.803,-0.051 3.736,-0.175 3.645,-0.248 3.533,-0.27 3.42,-0.293 3.313,-0.282 3.212,-0.237 3.11,-0.192 3.037,-0.118 2.992,-0.017 2.947,0.084 2.958,0.197 3.026,0.321 Z M 1.69,3.55 C 1.746,3.663 1.828,3.739 1.935,3.778 2.043,3.818 2.152,3.809 2.265,3.753 2.366,3.697 2.437,3.615 2.476,3.508 2.516,3.4 2.508,3.29 2.451,3.178 2.395,3.076 2.313,3.006 2.206,2.967 2.099,2.927 1.989,2.936 1.876,2.992 1.775,3.048 1.704,3.13 1.665,3.237 1.625,3.344 1.634,3.448 1.69,3.55 Z m -1.2,1.2 C 0.547,4.852 0.628,4.922 0.735,4.962 0.842,5.001 0.947,4.992 1.048,4.936 1.16,4.88 1.237,4.798 1.276,4.691 1.316,4.584 1.307,4.474 1.251,4.361 1.195,4.26 1.113,4.189 1.006,4.15 0.899,4.111 0.789,4.119 0.676,4.175 0.575,4.232 0.504,4.313 0.465,4.42 0.425,4.528 0.434,4.638 0.49,4.75 Z M -0.964,5.544 C -0.874,5.725 -0.736,5.807 -0.55,5.79 -0.364,5.773 -0.237,5.674 -0.169,5.494 -0.135,5.404 -0.133,5.319 -0.161,5.24 -0.189,5.162 -0.234,5.097 -0.296,5.046 -0.358,4.995 -0.431,4.962 -0.516,4.944 -0.6,4.928 -0.682,4.942 -0.761,4.987 -0.874,5.043 -0.95,5.125 -0.989,5.232 -1.029,5.339 -1.02,5.443 -0.964,5.544 Z M -2.57,5.985 c 0.056,0.101 0.138,0.171 0.245,0.21 0.108,0.04 0.212,0.031 0.313,-0.025 C -1.899,6.114 -1.823,6.032 -1.784,5.925 -1.744,5.818 -1.753,5.714 -1.809,5.612 -1.865,5.5 -1.947,5.423 -2.054,5.384 -2.161,5.344 -2.271,5.353 -2.384,5.409 -2.485,5.466 -2.555,5.548 -2.595,5.654 -2.635,5.761 -2.626,5.871 -2.57,5.985 Z M -4.362,5.967 c 0.056,0.113 0.141,0.186 0.254,0.22 0.113,0.034 0.219,0.023 0.321,-0.034 0.113,-0.056 0.186,-0.138 0.22,-0.245 0.034,-0.107 0.023,-0.217 -0.034,-0.33 -0.068,-0.124 -0.158,-0.194 -0.271,-0.211 -0.112,-0.017 -0.214,0 -0.304,0.051 -0.09,0.05 -0.16,0.124 -0.211,0.22 -0.051,0.095 -0.042,0.205 0.025,0.329 z m -1.623,-0.49 c 0.057,0.101 0.139,0.172 0.245,0.211 0.108,0.04 0.217,0.031 0.33,-0.025 0.169,-0.09 0.245,-0.228 0.228,-0.414 C -5.198,5.063 -5.297,4.936 -5.477,4.869 -5.568,4.846 -5.652,4.852 -5.731,4.885 -5.81,4.919 -5.875,4.964 -5.926,5.02 -5.976,5.077 -6.01,5.147 -6.027,5.232 -6.044,5.316 -6.03,5.398 -5.985,5.477 Z M -7.32,4.716 c 0.056,0.102 0.141,0.172 0.254,0.212 0.112,0.039 0.219,0.03 0.321,-0.026 C -6.633,4.846 -6.559,4.761 -6.526,4.649 -6.492,4.536 -6.503,4.429 -6.559,4.327 -6.616,4.215 -6.697,4.141 -6.804,4.107 -6.912,4.074 -7.021,4.085 -7.134,4.141 -7.236,4.198 -7.306,4.283 -7.346,4.395 -7.385,4.508 -7.377,4.615 -7.32,4.716 Z M -8.486,3.533 c 0.056,0.101 0.137,0.172 0.245,0.212 0.107,0.039 0.217,0.03 0.329,-0.026 C -7.799,3.651 -7.735,3.561 -7.717,3.448 -7.701,3.336 -7.715,3.231 -7.76,3.135 -7.805,3.04 -7.878,2.97 -7.98,2.924 -8.081,2.879 -8.193,2.891 -8.317,2.958 -8.419,3.015 -8.486,3.099 -8.52,3.212 c -0.034,0.112 -0.023,0.22 0.034,0.321 z m -0.93,-1.556 c 0.056,0.114 0.14,0.187 0.253,0.22 0.113,0.034 0.22,0.023 0.321,-0.033 0.124,-0.068 0.198,-0.155 0.22,-0.263 C -8.599,1.794 -8.613,1.693 -8.664,1.597 -8.715,1.501 -8.791,1.431 -8.892,1.386 -8.994,1.341 -9.106,1.346 -9.23,1.403 c -0.102,0.056 -0.172,0.141 -0.212,0.254 -0.039,0.112 -0.031,0.219 0.026,0.32 z m -0.389,-1.47 c 0.067,0.124 0.158,0.194 0.271,0.211 0.112,0.017 0.216,0 0.312,-0.05 C -9.126,0.617 -9.056,0.541 -9.01,0.439 -8.966,0.338 -8.977,0.231 -9.044,0.118 -9.112,-0.006 -9.2,-0.079 -9.306,-0.101 -9.414,-0.124 -9.515,-0.11 -9.611,-0.059 -9.707,-0.009 -9.777,0.067 -9.822,0.169 -9.867,0.27 -9.861,0.383 -9.805,0.507 Z M 3.009,-1.251 c 0.056,0.101 0.141,0.172 0.253,0.211 0.113,0.039 0.22,0.031 0.322,-0.026 C 3.697,-1.122 3.773,-1.203 3.812,-1.311 3.851,-1.418 3.843,-1.528 3.787,-1.64 3.73,-1.741 3.648,-1.812 3.541,-1.851 3.434,-1.891 3.324,-1.882 3.212,-1.826 2.998,-1.691 2.93,-1.499 3.009,-1.251 Z M 2.62,-2.841 c 0.056,0.113 0.138,0.189 0.245,0.229 0.107,0.039 0.211,0.031 0.313,-0.026 C 3.29,-2.694 3.367,-2.776 3.406,-2.883 3.445,-2.99 3.437,-3.1 3.381,-3.212 3.324,-3.314 3.243,-3.384 3.136,-3.423 3.029,-3.463 2.919,-3.455 2.806,-3.398 2.705,-3.342 2.634,-3.26 2.595,-3.153 2.555,-3.046 2.564,-2.942 2.62,-2.841 Z m -0.845,-1.47 c 0.056,0.113 0.138,0.189 0.245,0.228 0.107,0.04 0.217,0.031 0.33,-0.025 C 2.451,-4.165 2.521,-4.246 2.561,-4.353 2.6,-4.461 2.592,-4.571 2.536,-4.683 2.479,-4.784 2.398,-4.858 2.29,-4.903 2.183,-4.948 2.074,-4.942 1.961,-4.886 1.86,-4.83 1.789,-4.745 1.75,-4.632 1.71,-4.52 1.718,-4.413 1.775,-4.311 Z M -2.434,-6.83 c 0.056,0.113 0.137,0.189 0.245,0.228 0.107,0.04 0.211,0.031 0.312,-0.025 0.113,-0.056 0.189,-0.141 0.228,-0.253 0.04,-0.113 0.032,-0.221 -0.025,-0.322 -0.056,-0.113 -0.138,-0.186 -0.245,-0.22 -0.107,-0.033 -0.217,-0.022 -0.33,0.034 -0.101,0.056 -0.172,0.138 -0.211,0.245 -0.039,0.107 -0.031,0.211 0.026,0.313 z m 3.026,1.302 C 0.648,-5.416 0.73,-5.34 0.837,-5.3 0.943,-5.26 1.053,-5.269 1.166,-5.326 1.268,-5.382 1.338,-5.463 1.377,-5.571 1.417,-5.678 1.409,-5.788 1.352,-5.9 1.296,-6.001 1.214,-6.072 1.107,-6.111 1,-6.151 0.896,-6.142 0.794,-6.086 0.682,-6.03 0.606,-5.948 0.566,-5.841 0.527,-5.734 0.535,-5.63 0.592,-5.528 Z M -0.93,-6.407 c 0.056,0.101 0.138,0.175 0.245,0.219 0.107,0.046 0.211,0.04 0.313,-0.016 0.113,-0.057 0.189,-0.141 0.228,-0.254 0.039,-0.113 0.031,-0.22 -0.025,-0.321 -0.057,-0.113 -0.138,-0.189 -0.245,-0.228 -0.108,-0.04 -0.217,-0.031 -0.33,0.025 -0.102,0.056 -0.172,0.138 -0.212,0.245 -0.039,0.107 -0.03,0.217 0.026,0.33 z m 1.15,2.485 c 0.056,0.113 0.137,0.189 0.245,0.228 0.107,0.039 0.217,0.031 0.329,-0.026 0.102,-0.056 0.175,-0.14 0.22,-0.253 C 1.059,-4.086 1.053,-4.193 0.997,-4.294 0.941,-4.407 0.856,-4.483 0.744,-4.523 0.631,-4.562 0.524,-4.553 0.422,-4.497 0.31,-4.441 0.234,-4.356 0.194,-4.243 0.155,-4.131 0.163,-4.024 0.22,-3.922 Z m -7.642,0.473 c 0.057,0.113 0.141,0.189 0.254,0.228 0.113,0.039 0.22,0.031 0.321,-0.025 0.124,-0.068 0.197,-0.158 0.22,-0.271 0.023,-0.112 0.011,-0.216 -0.034,-0.312 -0.045,-0.096 -0.118,-0.166 -0.22,-0.212 -0.101,-0.045 -0.214,-0.034 -0.338,0.034 -0.101,0.056 -0.175,0.138 -0.219,0.245 -0.045,0.107 -0.04,0.212 0.016,0.313 z m 1.252,-1.166 c 0.056,0.112 0.137,0.188 0.244,0.228 0.108,0.04 0.218,0.031 0.33,-0.026 0.101,-0.056 0.172,-0.138 0.212,-0.245 0.039,-0.107 0.03,-0.217 -0.026,-0.33 -0.056,-0.101 -0.138,-0.171 -0.245,-0.21 -0.107,-0.04 -0.211,-0.032 -0.313,0.025 -0.113,0.056 -0.189,0.138 -0.228,0.245 -0.039,0.107 -0.031,0.211 0.026,0.313 z m -2.249,4.209 c 0.056,0.102 0.138,0.172 0.245,0.212 0.107,0.039 0.211,0.03 0.313,-0.026 0.112,-0.056 0.189,-0.138 0.228,-0.245 0.04,-0.107 0.031,-0.212 -0.025,-0.313 -0.057,-0.113 -0.138,-0.189 -0.245,-0.228 -0.107,-0.04 -0.217,-0.031 -0.33,0.025 -0.101,0.056 -0.172,0.138 -0.211,0.245 -0.04,0.108 -0.031,0.217 0.025,0.33 z m 1.099,3.127 c 0.056,0.102 0.141,0.173 0.254,0.212 0.112,0.039 0.219,0.031 0.321,-0.025 C -6.633,2.851 -6.557,2.769 -6.517,2.662 -6.478,2.555 -6.486,2.451 -6.543,2.35 -6.599,2.237 -6.683,2.161 -6.796,2.121 -6.909,2.082 -7.016,2.091 -7.117,2.147 -7.23,2.203 -7.306,2.285 -7.346,2.392 -7.385,2.499 -7.377,2.609 -7.32,2.721 Z M 0.05,3.212 C 0.107,3.324 0.188,3.4 0.296,3.44 0.403,3.48 0.507,3.471 0.609,3.415 0.721,3.359 0.797,3.277 0.837,3.169 0.876,3.062 0.867,2.952 0.811,2.84 0.755,2.738 0.673,2.668 0.566,2.629 0.459,2.589 0.349,2.597 0.236,2.654 0.135,2.71 0.064,2.792 0.025,2.899 -0.014,3.006 -0.006,3.11 0.05,3.212 Z m -1.301,0.895 c 0.056,0.114 0.138,0.189 0.245,0.229 0.107,0.039 0.211,0.031 0.313,-0.025 C -0.581,4.254 -0.505,4.173 -0.465,4.065 -0.426,3.958 -0.434,3.849 -0.49,3.736 -0.547,3.634 -0.628,3.564 -0.736,3.524 -0.842,3.485 -0.952,3.493 -1.065,3.55 -1.166,3.606 -1.237,3.688 -1.277,3.795 -1.316,3.902 -1.308,4.006 -1.251,4.107 Z M 1.555,0.389 C 1.611,0.501 1.696,0.577 1.809,0.617 1.921,0.657 2.028,0.648 2.13,0.591 2.242,0.535 2.318,0.45 2.358,0.338 2.398,0.225 2.389,0.118 2.333,0.016 2.265,-0.118 2.175,-0.194 2.062,-0.212 1.95,-0.228 1.842,-0.212 1.741,-0.161 1.64,-0.11 1.566,-0.034 1.521,0.067 1.476,0.169 1.487,0.276 1.555,0.389 Z M -1.15,-4.937 c 0.057,0.113 0.138,0.189 0.245,0.229 0.107,0.039 0.217,0.031 0.33,-0.026 0.101,-0.056 0.172,-0.138 0.211,-0.245 0.04,-0.107 0.031,-0.217 -0.025,-0.329 -0.057,-0.102 -0.138,-0.172 -0.245,-0.212 -0.107,-0.039 -0.212,-0.031 -0.313,0.025 -0.113,0.057 -0.189,0.139 -0.228,0.246 -0.04,0.107 -0.031,0.211 0.025,0.312 z M -2.739,-5.41 c 0.057,0.102 0.138,0.172 0.245,0.212 0.108,0.039 0.217,0.03 0.33,-0.026 0.101,-0.056 0.172,-0.138 0.211,-0.245 0.04,-0.107 0.031,-0.211 -0.025,-0.313 -0.056,-0.112 -0.138,-0.189 -0.245,-0.228 -0.107,-0.039 -0.217,-0.031 -0.33,0.025 -0.101,0.057 -0.172,0.138 -0.211,0.245 -0.039,0.108 -0.031,0.217 0.025,0.33 z m -5.443,3.465 c 0.056,0.102 0.138,0.172 0.245,0.212 0.107,0.04 0.217,0.031 0.33,-0.026 0.101,-0.056 0.171,-0.138 0.211,-0.244 0.039,-0.108 0.031,-0.212 -0.026,-0.313 -0.056,-0.113 -0.137,-0.189 -0.245,-0.228 -0.107,-0.04 -0.217,-0.032 -0.329,0.025 -0.101,0.056 -0.172,0.138 -0.211,0.245 -0.04,0.107 -0.032,0.217 0.025,0.329 z m 0.033,3.213 c 0.057,0.112 0.141,0.189 0.254,0.228 0.113,0.039 0.22,0.031 0.321,-0.025 0.113,-0.057 0.189,-0.139 0.228,-0.246 0.04,-0.106 0.031,-0.216 -0.025,-0.329 -0.067,-0.124 -0.158,-0.195 -0.27,-0.211 -0.113,-0.017 -0.22,-0.003 -0.322,0.042 -0.101,0.045 -0.174,0.118 -0.219,0.22 -0.045,0.101 -0.034,0.208 0.033,0.321 z m 2.148,2.603 c 0.056,0.113 0.14,0.189 0.253,0.228 0.113,0.04 0.22,0.031 0.321,-0.025 0.113,-0.056 0.189,-0.138 0.229,-0.245 0.039,-0.107 0.03,-0.217 -0.026,-0.33 C -5.28,3.398 -5.365,3.324 -5.477,3.279 -5.59,3.234 -5.697,3.24 -5.799,3.296 -5.912,3.353 -5.988,3.437 -6.027,3.55 -6.066,3.663 -6.058,3.77 -6.001,3.871 Z m 3.194,0.693 c 0.057,0.102 0.139,0.172 0.246,0.212 0.107,0.039 0.216,0.03 0.33,-0.026 C -2.13,4.694 -2.06,4.612 -2.02,4.505 -1.981,4.398 -1.989,4.288 -2.046,4.175 -2.102,4.074 -2.184,4.003 -2.291,3.964 -2.398,3.925 -2.508,3.933 -2.62,3.99 -2.722,4.046 -2.792,4.127 -2.832,4.235 -2.871,4.342 -2.863,4.452 -2.807,4.564 Z M 1.014,1.961 C 1.071,2.062 1.152,2.133 1.259,2.172 1.366,2.212 1.476,2.203 1.589,2.147 1.69,2.091 1.761,2.009 1.8,1.901 1.839,1.794 1.831,1.685 1.775,1.572 1.718,1.471 1.637,1.4 1.53,1.361 1.423,1.321 1.318,1.329 1.217,1.386 1.104,1.442 1.028,1.524 0.989,1.631 0.949,1.738 0.958,1.848 1.014,1.961 Z m -5.613,-7.269 c 0.057,0.101 0.142,0.171 0.254,0.211 0.113,0.039 0.22,0.031 0.321,-0.025 0.113,-0.057 0.189,-0.138 0.228,-0.246 0.04,-0.107 0.032,-0.217 -0.025,-0.329 -0.056,-0.102 -0.141,-0.172 -0.254,-0.212 -0.112,-0.039 -0.219,-0.031 -0.32,0.025 -0.113,0.057 -0.189,0.139 -0.229,0.246 -0.039,0.107 -0.031,0.216 0.025,0.33 z m 5.698,2.654 c 0.056,0.101 0.141,0.174 0.253,0.219 0.113,0.045 0.22,0.04 0.321,-0.017 0.113,-0.056 0.189,-0.14 0.228,-0.253 0.04,-0.113 0.032,-0.22 -0.025,-0.321 C 1.82,-3.139 1.735,-3.215 1.623,-3.255 1.51,-3.294 1.403,-3.286 1.301,-3.229 c -0.112,0.056 -0.188,0.138 -0.228,0.245 -0.039,0.107 -0.03,0.217 0.026,0.33 z M -4.463,4.48 c 0.056,0.112 0.138,0.188 0.245,0.228 0.107,0.039 0.217,0.031 0.329,-0.025 C -3.787,4.626 -3.716,4.541 -3.677,4.429 -3.638,4.316 -3.646,4.209 -3.702,4.107 -3.759,3.995 -3.841,3.919 -3.948,3.88 -4.054,3.84 -4.159,3.849 -4.26,3.905 -4.373,3.961 -4.449,4.046 -4.489,4.159 -4.528,4.271 -4.519,4.378 -4.463,4.48 Z m 6.035,-5.647 c 0.056,0.101 0.141,0.175 0.253,0.22 0.113,0.045 0.22,0.039 0.322,-0.017 C 2.259,-1.02 2.336,-1.105 2.375,-1.217 2.414,-1.33 2.406,-1.437 2.35,-1.539 2.293,-1.651 2.208,-1.727 2.096,-1.767 1.983,-1.806 1.876,-1.798 1.775,-1.741 c -0.113,0.056 -0.189,0.137 -0.228,0.245 -0.04,0.107 -0.032,0.217 0.025,0.329 z m -2.113,2.62 C -0.485,1.566 -0.4,1.64 -0.288,1.673 -0.175,1.707 -0.068,1.696 0.034,1.64 0.146,1.583 0.22,1.501 0.253,1.394 0.287,1.288 0.276,1.178 0.22,1.065 0.163,0.963 0.082,0.893 -0.026,0.854 -0.133,0.814 -0.242,0.822 -0.355,0.879 -0.457,0.935 -0.527,1.02 -0.567,1.132 c -0.039,0.113 -0.031,0.22 0.026,0.321 z m -5.241,-4.31 c 0.057,0.112 0.138,0.185 0.245,0.219 0.108,0.034 0.217,0.023 0.33,-0.034 0.101,-0.056 0.172,-0.137 0.211,-0.245 0.04,-0.107 0.031,-0.217 -0.025,-0.329 -0.056,-0.101 -0.141,-0.172 -0.253,-0.211 -0.113,-0.04 -0.221,-0.032 -0.322,0.025 -0.112,0.057 -0.186,0.141 -0.22,0.254 -0.034,0.112 -0.022,0.22 0.034,0.321 z m -0.845,1.386 c 0.056,0.101 0.141,0.172 0.253,0.211 0.113,0.04 0.22,0.031 0.322,-0.025 0.112,-0.056 0.186,-0.141 0.22,-0.254 0.033,-0.112 0.022,-0.22 -0.034,-0.321 -0.057,-0.113 -0.138,-0.186 -0.245,-0.219 -0.107,-0.034 -0.217,-0.023 -0.33,0.033 -0.102,0.056 -0.172,0.138 -0.211,0.245 -0.04,0.108 -0.031,0.217 0.025,0.33 z m 0.372,2.908 c 0.068,0.124 0.158,0.194 0.27,0.211 0.113,0.017 0.217,0 0.313,-0.051 0.096,-0.05 0.167,-0.126 0.211,-0.228 C -5.415,1.268 -5.427,1.161 -5.495,1.048 -5.562,0.924 -5.652,0.851 -5.765,0.828 -5.878,0.806 -5.982,0.82 -6.078,0.87 -6.173,0.921 -6.244,0.997 -6.289,1.099 -6.334,1.2 -6.323,1.313 -6.255,1.437 Z m 4.463,1.166 c 0.056,0.102 0.141,0.169 0.254,0.203 0.112,0.034 0.219,0.022 0.321,-0.034 0.112,-0.056 0.185,-0.138 0.22,-0.245 C -0.964,2.42 -0.975,2.316 -1.032,2.214 -1.088,2.102 -1.169,2.029 -1.277,1.995 -1.384,1.961 -1.494,1.972 -1.606,2.029 -1.707,2.085 -1.778,2.167 -1.817,2.274 -1.857,2.38 -1.849,2.49 -1.792,2.603 Z m 0.76,-5.477 c 0.057,0.101 0.142,0.169 0.254,0.202 0.113,0.034 0.22,0.023 0.321,-0.033 0.113,-0.056 0.187,-0.138 0.22,-0.245 0.034,-0.107 0.023,-0.212 -0.033,-0.313 -0.057,-0.112 -0.139,-0.186 -0.246,-0.22 -0.107,-0.034 -0.216,-0.022 -0.33,0.034 -0.101,0.057 -0.171,0.138 -0.211,0.245 -0.039,0.107 -0.031,0.217 0.025,0.33 z m -1.47,-0.846 c 0.056,0.113 0.138,0.187 0.245,0.22 0.107,0.034 0.217,0.023 0.33,-0.033 0.101,-0.057 0.172,-0.139 0.211,-0.246 0.039,-0.106 0.031,-0.216 -0.025,-0.329 -0.068,-0.124 -0.158,-0.195 -0.271,-0.211 -0.113,-0.017 -0.214,0 -0.304,0.05 -0.09,0.051 -0.161,0.124 -0.211,0.22 -0.051,0.096 -0.043,0.206 0.025,0.329 z m -1.843,0.034 c 0.068,0.124 0.158,0.195 0.27,0.212 0.113,0.017 0.218,0 0.313,-0.051 0.096,-0.051 0.167,-0.127 0.212,-0.228 0.045,-0.102 0.034,-0.209 -0.034,-0.322 -0.068,-0.123 -0.158,-0.194 -0.271,-0.211 -0.112,-0.017 -0.214,0 -0.304,0.051 -0.09,0.051 -0.16,0.124 -0.211,0.22 -0.051,0.096 -0.043,0.206 0.025,0.329 z m 0.964,6.678 c 0.056,0.113 0.141,0.186 0.253,0.22 0.113,0.034 0.22,0.022 0.321,-0.034 C -2.694,3.122 -2.62,3.04 -2.587,2.933 -2.553,2.826 -2.564,2.716 -2.62,2.603 -2.677,2.502 -2.759,2.432 -2.866,2.392 -2.972,2.352 -3.082,2.361 -3.195,2.417 -3.297,2.474 -3.367,2.558 -3.407,2.671 -3.446,2.784 -3.438,2.891 -3.381,2.992 Z M -6.762,0 c 0.056,0.101 0.138,0.172 0.245,0.211 0.107,0.039 0.217,0.031 0.33,-0.025 0.101,-0.057 0.168,-0.141 0.202,-0.254 0.034,-0.113 0.023,-0.22 -0.034,-0.321 -0.056,-0.113 -0.138,-0.186 -0.245,-0.22 -0.107,-0.034 -0.211,-0.022 -0.312,0.034 -0.113,0.056 -0.186,0.138 -0.22,0.245 -0.034,0.107 -0.022,0.217 0.034,0.33 z m 6.576,-1.589 c 0.067,0.124 0.158,0.194 0.27,0.211 0.113,0.017 0.217,0 0.313,-0.051 C 0.493,-1.48 0.563,-1.556 0.609,-1.657 0.654,-1.759 0.642,-1.865 0.575,-1.978 0.507,-2.102 0.417,-2.176 0.304,-2.198 0.192,-2.221 0.087,-2.206 -0.009,-2.155 c -0.096,0.05 -0.166,0.126 -0.211,0.227 -0.045,0.102 -0.034,0.215 0.034,0.339 z m -4.936,4.108 c 0.056,0.112 0.137,0.186 0.245,0.219 0.107,0.034 0.211,0.023 0.312,-0.033 C -4.452,2.648 -4.379,2.566 -4.345,2.46 -4.311,2.352 -4.322,2.243 -4.379,2.13 -4.435,2.029 -4.517,1.958 -4.624,1.918 -4.731,1.879 -4.841,1.888 -4.953,1.944 -5.055,2 -5.122,2.085 -5.156,2.197 -5.19,2.31 -5.179,2.417 -5.122,2.519"
         style="fill:#615297;fill-opacity:1;fill-rule:evenodd;stroke:none"
         transform="matrix(1.3333333,0,0,-1.3333333,353.76267,532.32933)" /></g></g></svg>
