<?xml version="1.0" encoding="UTF-8" standalone="no"?>
<!-- Created with Inkscape (http://www.inkscape.org/) -->

<svg
   width="3.3858397mm"
   height="2.889746mm"
   viewBox="0 0 3.3858397 2.8897459"
   version="1.1"
   id="svg1"
   xml:space="preserve"
   xmlns="http://www.w3.org/2000/svg"
   xmlns:svg="http://www.w3.org/2000/svg"><defs
     id="defs1" /><g
     id="g1"
     transform="matrix(0.26458333,0,0,0.26458333,-90.75105,-152.35452)"><g
       id="g5"><path
         id="path108"
         d="M 8.6603266,-4.1560148 6.7267328,-7.5026709 H 2.8712641 l -1.93359379,3.3466561 1.93359379,3.3347462 h 3.8554687 z m 0.9375,0 L 7.1954828,5.0815181e-4 H 2.4025141 L 1.703125e-4,-4.1560148 2.4025141,-8.3244476 h 4.7929687 z m -4.171875,0.1071883 c 0,-0.1429177 -0.058594,-0.2620158 -0.1640625,-0.3692041 -0.1171875,-0.1071883 -0.2460938,-0.1548275 -0.3984375,-0.1548275 -0.1640625,0 -0.28125,0.047639 -0.3867188,0.1548275 -0.1054687,0.1071883 -0.1523437,0.2262864 -0.1523437,0.3692041 0,0.1429176 0.046875,0.2620157 0.1523437,0.369204 0.1054688,0.1071883 0.2226563,0.1548275 0.3867188,0.1548275 0.1523437,0 0.28125,-0.047639 0.3984375,-0.1548275 0.1054687,-0.1071883 0.1640625,-0.2262864 0.1640625,-0.369204 z m 0,0"
         style="fill:#615297;fill-opacity:1;fill-rule:nonzero;stroke:none"
         aria-label="b"
         transform="matrix(1.3333333,0,0,1.3119439,342.99587,586.74933)" /></g></g></svg>
