<?xml version="1.0" encoding="UTF-8" standalone="no"?>
<!-- Created with Inkscape (http://www.inkscape.org/) -->

<svg
   width="3.7591293mm"
   height="2.9334176mm"
   viewBox="0 0 3.7591293 2.9334175"
   version="1.1"
   id="svg1"
   xml:space="preserve"
   xmlns="http://www.w3.org/2000/svg"
   xmlns:svg="http://www.w3.org/2000/svg"><defs
     id="defs1" /><g
     id="g1"
     transform="matrix(0.26458333,0,0,0.26458333,-90.58705,-165.55819)"><g
       id="g6"><path
         id="path101"
         d="m 0,0 c 0,-0.131 -0.051,-0.244 -0.154,-0.339 -0.103,-0.094 -0.224,-0.141 -0.364,-0.141 -0.139,0 -0.258,0.047 -0.357,0.141 -0.098,0.095 -0.147,0.208 -0.147,0.339 0,0.132 0.049,0.242 0.147,0.333 0.099,0.09 0.218,0.135 0.357,0.135 0.14,0 0.261,-0.045 0.364,-0.135 C -0.051,0.242 0,0.132 0,0"
         style="fill:#615297;fill-opacity:1;fill-rule:evenodd;stroke:none"
         transform="matrix(1.3333333,0,0,-1.3333333,350.19867,631.5)" /><path
         id="path102"
         d="m 267.038,314.786 h -9.8558 v 7.5152 h 9.8558 z"
         style="fill:none;stroke:#615297;stroke-width:0.8;stroke-linecap:butt;stroke-linejoin:miter;stroke-miterlimit:22.926;stroke-dasharray:none;stroke-opacity:1"
         transform="matrix(1.3333333,0,0,-1.3333333,0,1056)" /></g></g></svg>
