<?xml version="1.0" encoding="UTF-8" standalone="no"?>
<!-- Created with Inkscape (http://www.inkscape.org/) -->

<svg
   width="3.9522135mm"
   height="3.0137694mm"
   viewBox="0 0 3.9522135 3.0137693"
   version="1.1"
   id="svg1"
   xml:space="preserve"
   xmlns="http://www.w3.org/2000/svg"
   xmlns:svg="http://www.w3.org/2000/svg"><defs
     id="defs1" /><g
     id="g1"
     transform="matrix(0.26458333,0,0,0.26458333,-90.471997,-178.39428)"><g
       id="g7"><path
         id="path109"
         d="M 11.20338,-0.00126094 H 2.546875e-4 V -8.5442297 H 11.20338 Z M 7.5705672,-0.83329219 9.5627547,-4.2668859 7.5705672,-7.7004797 H 3.5979109 l -1.9921875,3.4335938 2.0039063,3.43359371 z m 2.9296878,0 V -4.2317297 l -1.9570316,3.39843751 z m 0,-3.46875001 V -7.7004797 H 8.5432234 Z M 2.6486922,-0.83329219 0.70337969,-4.1848547 v 3.35156251 z m 0,-6.86718751 H 0.70337969 v 3.3632813 z m 3.5507812,3.4101563 c 0,0.1523437 -0.046875,0.28125 -0.1640625,0.3867187 -0.1289062,0.1054688 -0.2695312,0.1640625 -0.421875,0.1640625 -0.1523437,0 -0.2929687,-0.058594 -0.3984375,-0.1640625 -0.1171875,-0.1054687 -0.1757812,-0.234375 -0.1757812,-0.3867187 0,-0.1523438 0.058594,-0.28125 0.1757812,-0.375 0.1054688,-0.09375 0.2460938,-0.1523438 0.3984375,-0.1523438 0.1523438,0 0.2929688,0.058594 0.421875,0.1523438 0.1171875,0.09375 0.1640625,0.2226562 0.1640625,0.375 z m 0,0"
         style="fill:#615297;fill-opacity:1;fill-rule:nonzero;stroke:none"
         aria-label="Y"
         transform="matrix(1.3333333,0,0,1.3333333,341.94107,685.6384)" /></g></g></svg>
