<?xml version="1.0" encoding="UTF-8" standalone="no"?>
<!-- Created with Inkscape (http://www.inkscape.org/) -->

<svg
   width="3.9480793mm"
   height="3.4106443mm"
   viewBox="0 0 3.9480794 3.4106442"
   version="1.1"
   id="svg1"
   xml:space="preserve"
   xmlns="http://www.w3.org/2000/svg"
   xmlns:svg="http://www.w3.org/2000/svg"><defs
     id="defs1" /><g
     id="g1"
     transform="matrix(0.26458333,0,0,0.26458333,-90.716943,-214.74038)"><g
       id="g8"><path
         id="path115"
         d="m 10.275916,-6.6555906 -1.1718754,-2.0507813 -1.3007812,0.75 h -4.359375 l -1.2890625,-0.796875 -1.20703128,2.0273438 1.27734378,0.7734375 2.1796875,3.8085937 v 1.47656252 h 2.390625 V -2.1673094 l 2.203125,-3.7382812 z m 0.925781,0.2460937 -1.7226564,0.9960938 -2.015625,3.421875 V 6.59375e-4 H 3.7368531 V -1.9563719 l -2.015625,-3.4921875 -1.71093748,-1.03125 1.92187498,-3.1875 1.7109375,1.03125 h 3.984375 l 1.7226563,-0.9960937 z m -4.7578126,1.1835938 c 0,-0.2226563 -0.082031,-0.421875 -0.2695313,-0.5859375 -0.1875,-0.1640625 -0.4101562,-0.2460938 -0.6445312,-0.2460938 -0.2460938,0 -0.4570313,0.082031 -0.6328125,0.2460938 -0.1757813,0.1640625 -0.2578125,0.3632812 -0.2578125,0.5859375 0,0.2460937 0.082031,0.4335937 0.2578125,0.609375 0.1757812,0.1640625 0.3867187,0.2460937 0.6328125,0.2460937 0.234375,0 0.4570312,-0.082031 0.6445312,-0.2460937 0.1875,-0.1757813 0.2695313,-0.3632813 0.2695313,-0.609375 z m 0,0"
         style="fill:#615297;fill-opacity:1;fill-rule:nonzero;stroke:none"
         aria-label="^"
         transform="matrix(1.3333333,0,0,1.3333333,342.85347,824.50693)" /></g></g></svg>
