<?xml version="1.0" encoding="UTF-8" standalone="no"?>
<!-- Created with Inkscape (http://www.inkscape.org/) -->

<svg
   width="3.9522135mm"
   height="3.4147785mm"
   viewBox="0 0 3.9522135 3.4147784"
   version="1.1"
   id="svg1"
   xml:space="preserve"
   xmlns="http://www.w3.org/2000/svg"
   xmlns:svg="http://www.w3.org/2000/svg"><defs
     id="defs1" /><g
     id="g1"
     transform="matrix(0.26458333,0,0,0.26458333,-176.08744,-126.31477)"><g
       id="g10"><path
         id="path139"
         d="m 11.204433,-6.4097516 -1.7226564,0.9960938 -2.015625,3.421875 V 4.046875e-4 H 3.7513078 V -1.9566266 L 1.7122453,-5.4605328 0.00130781,-6.4800641 1.9349016,-9.6792828 3.6341203,-8.6597516 h 3.984375 l 1.734375,-0.984375 z M 8.6731828,-5.3433453 7.0208391,-7.9800641 H 4.1849016 l -1.6171875,2.6484375 1.4414062,2.484375 h 3.1992188 z m -2.5078125,0.1640625 c 0,-0.1523438 -0.058594,-0.2929688 -0.1875,-0.4101563 -0.1171875,-0.1054687 -0.28125,-0.1640625 -0.4335937,-0.1640625 -0.1640625,0 -0.3046875,0.058594 -0.421875,0.1640625 -0.1054688,0.1171875 -0.1640625,0.2578125 -0.1640625,0.4101563 0,0.1523437 0.058594,0.28125 0.1640625,0.3867187 0.1171875,0.1171875 0.2578125,0.1757813 0.421875,0.1757813 0.1523437,0 0.3164062,-0.058594 0.4335937,-0.1757813 0.1289063,-0.1054687 0.1875,-0.234375 0.1875,-0.3867187 z m 0,0"
         style="fill:#615297;fill-opacity:1;fill-rule:nonzero;stroke:none"
         aria-label="_"
         transform="matrix(1.3333333,0,0,1.3333333,665.5256,490.31587)" /></g></g></svg>
