<?xml version="1.0" encoding="UTF-8" standalone="no"?>
<!-- Created with Inkscape (http://www.inkscape.org/) -->

<svg
   width="34.610806mm"
   height="3.4850585mm"
   viewBox="0 0 34.610806 3.4850585"
   version="1.1"
   id="svg1"
   xml:space="preserve"
   xmlns="http://www.w3.org/2000/svg"
   xmlns:svg="http://www.w3.org/2000/svg"><defs
     id="defs1" /><g
     id="g1"
     transform="matrix(0.26458333,0,0,0.26458333,-150.07973,-172.34503)"><g
       id="g14"><path
         id="path110"
         d="m 82.371339,-8.1210781 c 0,0.375 -0.246094,0.6210937 -0.621094,0.6210937 -0.375,-0.1289062 -0.632812,-0.375 -0.632812,-0.75 0,-0.375 0.257812,-0.6210937 0.632812,-0.6210937 0.375,0.1171875 0.621094,0.375 0.621094,0.75 z m -65.367187,3.1171875 c 0,0.5039062 -0.257813,0.75 -0.632813,0.75 -0.375,-0.1171875 -0.621094,-0.375 -0.621094,-0.75 0,-0.375 0.246094,-0.6210938 0.621094,-0.6210938 0.375,0 0.632813,0.2460938 0.632813,0.6210938 z m 10.242187,0.6328125 c 0,0.375 -0.246094,0.4921875 -0.75,0.4921875 -0.375,0 -0.621094,-0.2460938 -0.621094,-0.6210938 0,-0.375 0.246094,-0.6210937 0.75,-0.6210937 0.375,0 0.621094,0.2460937 0.621094,0.75 z m 46.125,-2.8828125 c 0,0.375 -0.246094,0.6328125 -0.621094,0.6328125 -0.375,0 -0.632812,-0.2578125 -0.632812,-0.75 0,-0.375 0.257812,-0.6328125 0.632812,-0.6328125 0.375,0 0.621094,0.2578125 0.621094,0.75 z m -41.121094,3 c 0,0.5039062 -0.257812,0.75 -0.632812,0.75 -0.363281,-0.1171875 -0.621094,-0.375 -0.621094,-0.75 0,-0.375 0.257813,-0.6210938 0.75,-0.6210938 0.375,0 0.503906,0.2460938 0.503906,0.6210938 z m 38.496094,-0.6210938 c 0,0.375 -0.246094,0.6210938 -0.75,0.6210938 -0.375,0 -0.503906,-0.2460938 -0.621094,-0.75 0.117188,-0.375 0.375,-0.4921875 0.75,-0.4921875 0.375,0 0.621094,0.2460937 0.621094,0.6210937 z m 20.25,3.6210938 c 0,0.37499998 -0.246094,0.50390623 -0.621094,0.50390623 -0.375,0 -0.632812,-0.24609375 -0.632812,-0.62109373 0,-0.375 0.257812,-0.6328125 0.75,-0.6328125 0.375,0 0.503906,0.2578125 0.503906,0.75 z m -38.25,-1.875 c 0,0.375 -0.246094,0.6328125 -0.621094,0.6328125 -0.375,-0.1289063 -0.632812,-0.375 -0.632812,-0.75 0,-0.375 0.257812,-0.6328125 0.632812,-0.6328125 0.375,0 0.621094,0.2578125 0.621094,0.75 z m 43.5,-0.4921875 c 0,0.375 -0.257812,0.6210937 -0.632812,0.6210937 -0.375,0 -0.621094,-0.2460937 -0.621094,-0.6210937 0,-0.375 0.246094,-0.6328125 0.621094,-0.6328125 0.375,0 0.632812,0.2578125 0.632812,0.6328125 z m -30.75,1.125 c 0,0.375 -0.246094,0.6210937 -0.621094,0.6210937 -0.375,-0.1289062 -0.632812,-0.375 -0.632812,-0.75 0,-0.375 0.257812,-0.6210937 0.632812,-0.6210937 0.375,0 0.621094,0.2460937 0.621094,0.75 z m 15.503906,-1.875 c -0.128906,0.375 -0.375,0.6210937 -0.75,0.6210937 -0.375,0 -0.632812,-0.2460937 -0.632812,-0.6210937 0,-0.375 0.257812,-0.6328125 0.75,-0.6328125 0.375,0 0.632812,0.2578125 0.632812,0.6328125 z m -23.132812,1.5 c -0.117188,0.375 -0.375,0.4921875 -0.75,0.4921875 -0.375,0 -0.621094,-0.2460938 -0.621094,-0.6210938 0.128906,-0.375 0.375,-0.6210937 0.75,-0.6210937 0.375,0.1171875 0.621094,0.375 0.621094,0.75 z m 19.253906,-3 c 0,0.375 -0.246094,0.6210937 -0.621094,0.6210937 -0.375,0 -0.632812,-0.2460937 -0.632812,-0.6210937 0,-0.375 0.257812,-0.6328125 0.75,-0.6328125 0.375,0 0.503906,0.2578125 0.503906,0.6328125 z m -34.5,-0.375 c 0,0.375 -0.246094,0.6210937 -0.621094,0.6210937 -0.375,0 -0.632812,-0.2460937 -0.632812,-0.6210937 0,-0.375 0.257812,-0.6328125 0.75,-0.6328125 0.375,0 0.503906,0.2578125 0.503906,0.6328125 z m -6.375,0.9960937 c 0,0.375 -0.246094,0.6210938 -0.75,0.6210938 -0.246094,0 -0.503906,-0.2460938 -0.621094,-0.75 0.117188,-0.375 0.375,-0.6210938 0.75,-0.6210938 0.375,0 0.621094,0.2460938 0.621094,0.75 z m 10.125,0.5039063 c 0,0.375 -0.246094,0.6210937 -0.621094,0.6210937 -0.375,0 -0.632812,-0.2460937 -0.632812,-0.75 0,-0.375 0.257812,-0.6210937 0.632812,-0.6210937 0.375,0.1171875 0.621094,0.375 0.621094,0.75 z m 26.753906,2.4960937 c 0,0.5039063 -0.257812,0.75 -0.632812,0.75 -0.375,-0.1289062 -0.621094,-0.375 -0.621094,-0.75 0,-0.375 0.246094,-0.6210937 0.621094,-0.6210937 0.375,0 0.632812,0.2460937 0.632812,0.6210937 z m 22.992188,1.125 c 0,0.50390628 -0.246094,0.75000003 -0.621094,0.75000003 -0.375,-0.12890625 -0.632812,-0.375 -0.632812,-0.75000003 0,-0.375 0.257812,-0.6210937 0.632812,-0.6210937 0.375,0 0.621094,0.2460937 0.621094,0.6210937 z m -13.875,-4.5 c 0,0.375 -0.246094,0.6210938 -0.621094,0.75 -0.375,-0.1289062 -0.621094,-0.375 -0.621094,-0.75 0,-0.375 0.246094,-0.6210937 0.621094,-0.6210937 0.375,0 0.621094,0.2460937 0.621094,0.6210937 z m -15.375,1.875 c -0.117188,0.375 -0.375,0.6210938 -0.621094,0.6210938 -0.503906,-0.1171875 -0.75,-0.375 -0.75,-0.75 0.128906,-0.375 0.375,-0.6210938 0.75,-0.6210938 0.375,0.2460938 0.621094,0.5039063 0.621094,0.75 z m 14.25,-3.1289062 c -0.117188,0.375 -0.375,0.6328125 -0.75,0.6328125 -0.375,0 -0.621094,-0.2578125 -0.621094,-0.75 0,-0.375 0.246094,-0.6328125 0.75,-0.6328125 0.375,0 0.621094,0.2578125 0.621094,0.75 z m -9,0.75 c -0.117188,0.375 -0.375,0.6328125 -0.75,0.6328125 -0.375,0 -0.621094,-0.2578125 -0.621094,-0.6328125 0,-0.375 0.246094,-0.6210938 0.75,-0.6210938 0.375,0 0.621094,0.2460938 0.621094,0.6210938 z m 16.628906,-0.4921875 c 0,0.4921875 -0.246094,0.75 -0.75,0.75 -0.246094,-0.1289063 -0.503906,-0.375 -0.621094,-0.75 0,-0.375 0.246094,-0.5039063 0.867188,-0.5039063 0.375,0 0.503906,0.1289063 0.503906,0.5039063 z m -0.246094,5.1210937 c 0,0.375 -0.257812,0.62109378 -0.75,0.62109378 -0.375,0 -0.503906,-0.24609378 -0.503906,-0.62109378 0,-0.375 0.246094,-0.6210937 0.621094,-0.6210937 0.375,0 0.632812,0.2460937 0.632812,0.6210937 z M 74.496339,-4.6288906 c 0.128906,-0.375 0.375,-0.6210938 0.75,-0.6210938 0.375,0 0.621094,0.2460938 0.621094,0.6210938 -0.117188,0.375 -0.375,0.6328125 -0.75,0.6328125 -0.375,0 -0.621094,-0.2578125 -0.621094,-0.6328125 z m 15.375,2.0039062 c -0.128906,0.375 -0.375,0.6210938 -0.75,0.6210938 -0.375,-0.1171875 -0.621094,-0.375 -0.621094,-0.75 0.117188,-0.375 0.375,-0.4921875 0.75,-0.4921875 0.375,0 0.621094,0.2460937 0.621094,0.6210937 z m 7.875,-4.7460937 c 0,0.375 -0.257812,0.6210937 -0.75,0.6210937 -0.375,0 -0.503906,-0.1289062 -0.503906,-0.5039062 0,-0.1171875 0.128906,-0.375 0.246094,-0.4921875 0.128906,-0.1289063 0.257812,-0.2578125 0.375,-0.2578125 0.375,0 0.632812,0.2578125 0.632812,0.6328125 z m -60.246094,3.4921875 c -0.128906,0.375 -0.375,0.5039062 -0.75,0.5039062 -0.375,0 -0.632812,-0.2460937 -0.632812,-0.6210937 0,-0.375 0.257812,-0.6328125 0.632812,-0.6328125 0.492188,0 0.75,0.2578125 0.75,0.75 z m 58.863282,-2.25 c 0,0.2578125 -0.246094,0.5039062 -0.621094,0.6328125 -0.375,0 -0.621094,-0.2578125 -0.621094,-0.75 0,-0.375 0.246094,-0.6328125 0.621094,-0.6328125 0.375,0 0.621094,0.2578125 0.621094,0.75 z m -42.246094,1.7578125 c -0.117188,0.375 -0.375,0.6210937 -0.75,0.6210937 -0.375,0 -0.621094,-0.2460937 -0.621094,-0.75 0,-0.375 0.246094,-0.5039062 0.75,-0.5039062 0.375,0 0.621094,0.2578125 0.621094,0.6328125 z m -9,-1.6289063 c 0,0.375 -0.246094,0.5039063 -0.621094,0.5039063 -0.375,0 -0.621094,-0.2578125 -0.621094,-0.6328125 0.117188,-0.375 0.375,-0.6210938 0.75,-0.6210938 0.375,0 0.492188,0.2460938 0.492188,0.75 z m 37.125,1.7460938 c 0,-0.375 0.257812,-0.6210938 0.632812,-0.6210938 0.375,0 0.621094,0.2460938 0.621094,0.6210938 0,0.375 -0.246094,0.6328125 -0.75,0.6328125 -0.375,0 -0.503906,-0.2578125 -0.503906,-0.6328125 z m -0.117188,1.2539062 c 0,0.375 -0.257812,0.5039063 -0.75,0.5039063 -0.375,0 -0.503906,-0.2578125 -0.503906,-0.6328125 0,-0.375 0.246094,-0.6210938 0.621094,-0.6210938 0.375,0 0.632812,0.2460938 0.632812,0.75 z m -11.25,-4.3710937 c 0,0.375 -0.257812,0.6210937 -0.632812,0.6210937 -0.492188,-0.1289062 -0.75,-0.375 -0.75,-0.75 0.128906,-0.375 0.375,-0.5039062 0.75,-0.5039062 0.375,0 0.632812,0.2578125 0.632812,0.6328125 z m 23.121094,-1.5 c 0,0.375 -0.246094,0.6210937 -0.75,0.6210937 -0.375,0 -0.621094,-0.2460937 -0.621094,-0.6210937 0,-0.2578125 0.246094,-0.5039063 0.75,-0.6328125 0.375,0 0.621094,0.2578125 0.621094,0.6328125 z m -36,3.375 c -0.128906,0.375 -0.375,0.6210937 -0.75,0.6210937 -0.375,0 -0.503906,-0.1289062 -0.503906,-0.5039062 0,-0.4921875 0.257812,-0.75 0.632812,-0.75 0.375,0 0.621094,0.2578125 0.621094,0.6328125 z m -26.871094,0 c 0,0.375 -0.246093,0.6210937 -0.621093,0.6210937 -0.375,0 -0.632813,-0.2460937 -0.632813,-0.6210937 0,-0.375 0.257813,-0.6328125 0.632813,-0.6328125 0.375,0 0.621093,0.2578125 0.621093,0.6328125 z m 42.117188,0.75 c 0,0.375 -0.246094,0.6210937 -0.621094,0.6210937 -0.375,0 -0.621094,-0.2460937 -0.621094,-0.6210937 0,-0.375 0.246094,-0.6328125 0.621094,-0.6328125 0.375,0 0.621094,0.2578125 0.621094,0.6328125 z m -11.496094,0.75 c 0,0.375 -0.246094,0.6210937 -0.75,0.6210937 -0.375,0 -0.503906,-0.2460937 -0.503906,-0.75 0,-0.2460937 0.257812,-0.5039062 0.632812,-0.6210937 0.375,0.1171875 0.621094,0.375 0.621094,0.75 z m 35.742188,1.7460937 c 0,0.375 -0.246094,0.6210938 -0.75,0.6210938 -0.375,0 -0.492188,-0.1171875 -0.492188,-0.4921875 0,-0.375 0.246094,-0.75 0.621094,-0.8789063 0.375,0 0.621094,0.2460938 0.621094,0.75 z M 55.242433,-3.1288906 c 0,0.5039062 -0.246094,0.75 -0.621094,0.75 -0.375,-0.1171875 -0.621094,-0.375 -0.621094,-0.75 0,-0.375 0.246094,-0.6210938 0.621094,-0.6210938 0.375,0 0.621094,0.2460938 0.621094,0.6210938 z m 38.378906,2.0039062 c 0,0.37500003 -0.246094,0.50390628 -0.75,0.50390628 -0.375,0 -0.621094,-0.2578125 -0.621094,-0.63281248 0,-0.375 0.246094,-0.6210938 0.75,-0.6210938 0.375,0.1289063 0.621094,0.375 0.621094,0.75 z m -1.253906,-1.3710937 c 0,0.375 -0.246094,0.6210937 -0.621094,0.6210937 -0.375,-0.1289062 -0.621094,-0.375 -0.621094,-0.5039062 0,-0.6210938 0.246094,-0.8671875 0.621094,-0.8671875 0.375,0.1171875 0.621094,0.375 0.621094,0.75 z m -6.246094,-4.125 c 0,0.375 -0.246094,0.6210937 -0.621094,0.6210937 -0.375,-0.1289062 -0.632812,-0.375 -0.632812,-0.75 0,-0.375 0.257812,-0.6210937 0.75,-0.6210937 0.375,0.1171875 0.503906,0.375 0.503906,0.75 z m -6.375,0.8671875 c 0,0.1289062 -0.128906,0.2578125 -0.375,0.375 -0.246094,0.1289062 -0.375,0.2578125 -0.503906,0.2578125 -0.246094,0 -0.375,-0.1289063 -0.375,-0.5039063 0,-0.5039062 0.257812,-0.75 0.632812,-0.75 0.375,0 0.621094,0.2460938 0.621094,0.6210938 z m 7.746094,-2.1210938 c 0,0.375 -0.246094,0.6210938 -0.621094,0.6210938 -0.375,0 -0.621094,-0.2460938 -0.621094,-0.75 0,-0.375 0.246094,-0.4921875 0.621094,-0.4921875 0.375,0 0.621094,0.2460937 0.621094,0.6210937 z m -4.125,6.2460938 c 0,0.2578125 -0.246094,0.5039062 -0.621094,0.63281248 -0.375,-0.12890628 -0.621094,-0.37499998 -0.621094,-0.74999998 0,-0.375 0.246094,-0.6328125 0.621094,-0.6328125 0.375,0 0.621094,0.2578125 0.621094,0.75 z M 63.000245,-2.6249844 c -0.128906,0.375 -0.375,0.5039063 -0.75,0.6210938 -0.375,-0.1171875 -0.503906,-0.375 -0.503906,-0.75 0,-0.375 0.246094,-0.6210938 0.621094,-0.6210938 0.375,0 0.632812,0.2460938 0.632812,0.75 z M 38.742433,-5.1210781 c 0,0.375 -0.246094,0.6210937 -0.75,0.6210937 -0.375,0 -0.492188,-0.2460937 -0.492188,-0.75 0,-0.375 0.246094,-0.6210937 0.621094,-0.6210937 0.375,0.1171875 0.621094,0.375 0.621094,0.75 z m 57.75,-3.5039063 c 0,0.375 -0.246094,0.5039063 -0.621094,0.5039063 -0.375,0 -0.632812,-0.2578125 -0.632812,-0.6328125 0,-0.375 0.257812,-0.6210938 0.632812,-0.6210938 0.375,0 0.621094,0.2460938 0.621094,0.75 z m -5.367188,4.7460938 c 0,0.375 -0.257812,0.6328125 -0.632812,0.6328125 -0.375,0 -0.621094,-0.2578125 -0.621094,-0.75 0,-0.375 0.246094,-0.5039063 0.621094,-0.5039063 0.375,0 0.632812,0.2460938 0.632812,0.6210938 z m -22.875,-3.6210938 c 0,0.375 -0.257812,0.6210938 -0.632812,0.6210938 -0.375,-0.1171875 -0.621094,-0.375 -0.621094,-0.75 0,-0.375 0.246094,-0.6210938 0.75,-0.6210938 0.375,0.1289063 0.503906,0.375 0.503906,0.75 z m 16.746094,-0.5039062 c -0.128906,0.375 -0.375,0.6328125 -0.75,0.6328125 -0.375,0 -0.503906,-0.1289063 -0.503906,-0.5039063 0,-0.5039062 0.257812,-0.75 0.632812,-0.75 0.375,0 0.621094,0.2460938 0.621094,0.6210938 z m -45,4.2539062 c 0,0.375 -0.246094,0.5039063 -0.75,0.6210938 -0.375,-0.1171875 -0.503906,-0.375 -0.503906,-0.6210938 0,-0.5039062 0.257812,-0.75 0.632812,-0.75 0.375,0 0.621094,0.2460938 0.621094,0.75 z m 40.875,2.0039063 c -0.128906,0.375 -0.375,0.4921875 -0.75,0.4921875 -0.375,0 -0.621094,-0.2460938 -0.621094,-0.6210938 0.117188,-0.375 0.375,-0.6210937 0.75,-0.6210937 0.375,0.1171875 0.492188,0.375 0.621094,0.75 z m 3.75,0.1171875 c 0,-0.375 0.246094,-0.6210938 0.75,-0.6210938 0.375,0 0.621094,0.2460938 0.621094,0.75 -0.117188,0.375 -0.375,0.50390628 -0.75,0.50390628 -0.375,0 -0.621094,-0.25781248 -0.621094,-0.63281248 z M 65.625245,-5.1210781 c 0,0.375 -0.257812,0.6210937 -0.632812,0.6210937 -0.375,0 -0.621094,-0.2460937 -0.621094,-0.6210937 0,-0.375 0.246094,-0.6328125 0.621094,-0.6328125 0.375,0 0.632812,0.2578125 0.632812,0.6328125 z m 25.617188,-1.2539063 c 0,0.375 -0.246094,0.6210938 -0.621094,0.6210938 -0.375,-0.1171875 -0.621094,-0.375 -0.621094,-0.75 0,-0.375 0.246094,-0.6210938 0.621094,-0.6210938 0.375,0.1289063 0.621094,0.375 0.621094,0.75 z m -23.25,3.9960938 c 0,0.375 -0.246094,0.5039062 -0.621094,0.5039062 -0.375,0 -0.621094,-0.2460937 -0.621094,-0.6210937 0,-0.375 0.246094,-0.6328125 0.75,-0.6328125 0.375,0 0.492188,0.2578125 0.492188,0.75 z m 15.632812,-4.3710938 c 0,0.375 -0.257812,0.6210938 -0.75,0.6210938 -0.375,-0.1171875 -0.503906,-0.375 -0.503906,-0.75 0,-0.2460938 0.246094,-0.4921875 0.621094,-0.6210938 0.375,0.1289063 0.632812,0.375 0.632812,0.75 z m 15.492188,-1.7460937 c -0.128906,0.375 -0.375,0.4921875 -0.75,0.4921875 -0.375,0 -0.621094,-0.2460938 -0.621094,-0.6210938 0,-0.375 0.246094,-0.6210937 0.75,-0.6210937 0.246094,0 0.492188,0.2460937 0.621094,0.75 z m -54,4.9921875 c 0,0.375 -0.246094,0.5039062 -0.75,0.5039062 -0.375,0 -0.492188,-0.1289062 -0.492188,-0.5039062 0,-0.4921875 0.246094,-0.75 0.621094,-0.75 0.246094,0 0.503906,0.2578125 0.621094,0.75 z m 11.625,-3.2460938 c 0,0.375 -0.246094,0.5039063 -0.621094,0.5039063 -0.375,0 -0.621094,-0.2578125 -0.621094,-0.6328125 0,-0.375 0.246094,-0.6210938 0.621094,-0.6210938 0.375,0.1289063 0.621094,0.375 0.621094,0.75 z m 35.753906,1.6289063 c 0,0.375 -0.246094,0.6210937 -0.75,0.6210937 -0.375,0 -0.503906,-0.2460937 -0.503906,-0.6210937 0,-0.375 0.257812,-0.6328125 0.632812,-0.6328125 0.375,0 0.621094,0.2578125 0.621094,0.6328125 z M 60.492433,-5.3788906 c 0,0.375 -0.246094,0.6328125 -0.621094,0.6328125 -0.375,0 -0.621094,-0.2578125 -0.621094,-0.6328125 0,-0.375 0.246094,-0.6210938 0.621094,-0.6210938 0.375,0 0.621094,0.2460938 0.621094,0.6210938 z m -7.617188,-0.375 c 0,0.375 -0.257812,0.6328125 -0.632812,0.6328125 -0.375,0 -0.621094,-0.1289063 -0.621094,-0.5039063 0,-0.5039062 0.246094,-0.75 0.621094,-0.75 0.375,0 0.632812,0.2460938 0.632812,0.6210938 z m 34.5,0.375 c 0,0.375 -0.257812,0.6328125 -0.632812,0.6328125 -0.375,0 -0.621094,-0.2578125 -0.621094,-0.6328125 0,-0.375 0.246094,-0.6210938 0.621094,-0.6210938 0.375,0 0.632812,0.2460938 0.632812,0.6210938 z m -9,0.8789062 c 0,0.375 -0.257812,0.6210938 -0.632812,0.6210938 -0.375,0 -0.621094,-0.2460938 -0.621094,-0.6210938 0,-0.375 0.246094,-0.6210937 0.621094,-0.6210937 0.375,0 0.632812,0.2460937 0.632812,0.6210937 z m 14.25,-3.1289062 c 0,0.375 -0.257812,0.6328125 -0.75,0.6328125 -0.375,0 -0.503906,-0.2578125 -0.503906,-0.75 0,-0.375 0.246094,-0.5039063 0.621094,-0.5039063 0.375,0 0.632812,0.2460938 0.632812,0.6210938 z m -16.628906,0.5039062 c -0.128906,0.375 -0.246094,0.5039063 -0.621094,0.6210938 -0.503906,-0.1171875 -0.75,-0.375 -0.75,-0.75 0.117188,-0.375 0.492188,-0.4921875 0.867188,-0.4921875 0.375,0 0.503906,0.2460937 0.503906,0.6210937 z m -28.253906,1.125 c 0,0.375 -0.246094,0.6210938 -0.75,0.6210938 -0.375,0 -0.492188,-0.2460938 -0.492188,-0.6210938 0,-0.375 0.246094,-0.6210937 0.621094,-0.6210937 0.375,0 0.621094,0.2460937 0.621094,0.6210937 z m -5.25,2.3789063 c 0,0.2460937 -0.246094,0.4921875 -0.621094,0.6210937 -0.375,-0.1289062 -0.621094,-0.375 -0.621094,-0.75 0,-0.375 0.246094,-0.6210937 0.621094,-0.6210937 0.375,0 0.621094,0.2460937 0.621094,0.75 z M 28.629152,-5.6249844 c -0.128907,0.375 -0.375,0.6210938 -0.75,0.6210938 -0.375,0 -0.632813,-0.2460938 -0.632813,-0.6210938 0,-0.375 0.257813,-0.5039062 0.878906,-0.6210937 0.246094,0.1171875 0.375,0.2460937 0.503907,0.6210937 z m 39.492187,0.6210938 c 0,0.375 -0.246094,0.6328125 -0.621094,0.6328125 -0.375,0 -0.632812,-0.2578125 -0.632812,-0.6328125 0,-0.375 0.257812,-0.6210938 0.75,-0.6210938 0.375,0 0.503906,0.2460938 0.503906,0.6210938 z m -26.753906,0 c -0.117188,0.375 -0.375,0.6328125 -0.75,0.6328125 -0.375,0 -0.621094,-0.2578125 -0.621094,-0.75 0.128906,-0.375 0.375,-0.5039063 0.75,-0.5039063 0.375,0 0.621094,0.2460938 0.621094,0.6210938 z m -6.492188,0.8789062 c 0,0.5039063 -0.257812,0.75 -0.632812,0.75 -0.375,-0.1289062 -0.621094,-0.375 -0.621094,-0.6210937 0,-0.5039063 0.246094,-0.75 0.621094,-0.75 0.128906,0.1171875 0.375,0.1171875 0.503906,0.1171875 0.128906,0.1289062 0.128906,0.2578125 0.128906,0.5039062 z m 28.242188,-1.125 c -0.117188,0.375 -0.375,0.6210938 -0.75,0.6210938 -0.375,0 -0.492188,-0.1171875 -0.492188,-0.4921875 0,-0.2578125 0.117188,-0.5039063 0.246094,-0.6328125 0.128906,-0.1171875 0.246094,-0.1171875 0.375,-0.1171875 0.375,0 0.621094,0.2460937 0.621094,0.6210937 z m 26.882812,0 c -0.128906,0.375 -0.375,0.6210938 -0.75,0.6210938 -0.375,0 -0.632812,-0.2460938 -0.632812,-0.6210938 0,-0.375 0.257812,-0.6210937 0.632812,-0.6210937 0.246094,0 0.492188,0.2460937 0.75,0.6210937 z M 66.996339,-6.2460781 c -0.128906,0.375 -0.375,0.4921875 -0.621094,0.4921875 -0.503906,0 -0.75,-0.2460938 -0.75,-0.6210938 0.117188,-0.375 0.375,-0.6210937 0.75,-0.6210937 0.375,0 0.621094,0.2460937 0.621094,0.75 z m 27.867188,3.8671875 c 0,0.375 -0.246094,0.6328125 -0.621094,0.6328125 -0.375,0 -0.621094,-0.2578125 -0.621094,-0.6328125 0,-0.4921875 0.246094,-0.75 0.75,-0.75 0.375,0.1289062 0.492188,0.375 0.492188,0.75 z m -65.109375,-1.875 c 0,0.375 -0.257813,0.5039062 -0.632813,0.5039062 -0.375,0 -0.621094,-0.2460937 -0.621094,-0.6210937 0,-0.375 0.246094,-0.6328125 0.75,-0.6328125 0.375,0.1289062 0.503907,0.375 0.503907,0.75 z m 26.871093,0 c 0,0.375 -0.257812,0.6328125 -0.632812,0.6328125 -0.375,0 -0.621094,-0.2578125 -0.621094,-0.75 0,-0.375 0.246094,-0.5039063 0.621094,-0.5039063 0.375,0 0.632812,0.2460938 0.632812,0.6210938 z m 20.367188,1.0078125 c 0,0.375 -0.246094,0.6210937 -0.621094,0.6210937 -0.375,0 -0.621094,-0.2460937 -0.621094,-0.75 0,-0.375 0.246094,-0.5039062 0.75,-0.5039062 0.375,0 0.492188,0.2578125 0.492188,0.6328125 z M 47.625245,-3.3749844 c 0,0.375 -0.257812,0.5039063 -0.75,0.5039063 -0.375,0 -0.503906,-0.2578125 -0.503906,-0.6328125 0,-0.375 0.246094,-0.6210938 0.621094,-0.6210938 0.375,0 0.632812,0.2460938 0.632812,0.75 z m 27,-2.625 c 0,0.375 -0.257812,0.6210938 -0.75,0.6210938 -0.375,0 -0.503906,-0.2460938 -0.503906,-0.6210938 0,-0.375 0.246094,-0.6210937 0.621094,-0.6210937 0.375,0 0.632812,0.2460937 0.632812,0.6210937 z m -23.132812,1.5 c 0,0.375 -0.246094,0.6210938 -0.621094,0.6210938 -0.375,0 -0.621094,-0.2460938 -0.621094,-0.75 0,-0.375 0.246094,-0.6210938 0.621094,-0.6210938 0.375,0.1289063 0.621094,0.375 0.621094,0.75 z m 23.003906,1.125 c 0,0.375 -0.246094,0.6210938 -0.621094,0.6210938 -0.375,0 -0.632812,-0.2460938 -0.632812,-0.6210938 0,-0.5039062 0.257812,-0.75 0.632812,-0.75 0.375,0 0.621094,0.2460938 0.621094,0.75 z M 64.242433,-3.8788906 c 0,0.375 -0.246094,0.6328125 -0.621094,0.6328125 -0.375,-0.1289063 -0.621094,-0.375 -0.621094,-0.6328125 0,-0.2460938 0.246094,-0.4921875 0.621094,-0.75 0.375,0.1289062 0.621094,0.375 0.621094,0.75 z m 20.625,-1.6171875 c -0.117188,0.375 -0.375,0.6210937 -0.75,0.6210937 -0.375,0 -0.492188,-0.1289062 -0.492188,-0.5039062 0,-0.4921875 0.246094,-0.75 0.621094,-0.75 0.375,0 0.621094,0.2578125 0.621094,0.6328125 z m 1.125,1.3710937 c 0,0.375 -0.246094,0.6210938 -0.621094,0.6210938 -0.375,0 -0.621094,-0.2460938 -0.621094,-0.6210938 0,-0.375 0.246094,-0.6210937 0.621094,-0.6210937 0.375,0 0.621094,0.2460937 0.621094,0.6210937 z M 24.621339,-4.3710781 c 0,0.2460937 -0.246094,0.375 -0.75,0.375 -0.375,0 -0.492187,-0.2578125 -0.492187,-0.6328125 0,-0.375 0.246093,-0.6210938 0.75,-0.6210938 0.375,0 0.492187,0.2460938 0.492187,0.8789063 z m 19.253906,-0.5039063 c 0,0.375 -0.257812,0.6210938 -0.632812,0.6210938 -0.375,-0.1171875 -0.621094,-0.375 -0.621094,-0.4921875 0,-0.6328125 0.246094,-0.8789063 0.621094,-0.8789063 0.375,0.1289063 0.632812,0.375 0.632812,0.75 z m 28.125,1.3710938 c -0.128906,0.375 -0.375,0.6328125 -0.75,0.6328125 -0.375,-0.1289063 -0.503906,-0.375 -0.503906,-0.5039063 0,-0.6210937 0.246094,-0.8789062 0.621094,-0.8789062 0.375,0.2578125 0.632812,0.5039062 0.632812,0.75 z m 23.121094,-3.9960938 c 0,0.375 -0.257812,0.6210938 -0.632812,0.6210938 -0.375,0 -0.621094,-0.2460938 -0.621094,-0.6210938 0,-0.375 0.246094,-0.6210937 0.621094,-0.6210937 0.375,0 0.632812,0.2460937 0.632812,0.6210937 z m -45,4.125 c 0,0.375 -0.246094,0.6210938 -0.75,0.6210938 -0.375,0 -0.503906,-0.2460938 -0.503906,-0.6210938 0,-0.375 0.257812,-0.6210937 0.75,-0.6210937 0.375,0.1171875 0.503906,0.375 0.503906,0.6210937 z m 37.125,0.6210938 c 0,0.375 -0.246094,0.6328125 -0.621094,0.6328125 -0.375,-0.1289063 -0.632812,-0.375 -0.632812,-0.6328125 0,-0.375 0.257812,-0.6210938 0.632812,-0.75 0.375,0.1289062 0.621094,0.375 0.621094,0.75 z m 2.753906,-4.9921875 c 0,0.375 -0.257812,0.6210937 -0.632812,0.6210937 -0.375,0 -0.621094,-0.2460937 -0.621094,-0.75 0,-0.375 0.246094,-0.5039062 0.75,-0.5039062 0.375,0 0.503906,0.2578125 0.503906,0.6328125 z m -29.625,4.9921875 c 0,0.375 -0.257812,0.5039062 -0.75,0.5039062 -0.375,0 -0.503906,-0.2460937 -0.503906,-0.6210937 0,-0.375 0.246094,-0.6328125 0.621094,-0.6328125 0.375,0 0.632812,0.2578125 0.632812,0.75 z m 9,-0.8671875 c 0,0.375 -0.257812,0.6210937 -0.632812,0.6210937 -0.375,-0.1289062 -0.621094,-0.375 -0.621094,-0.6210937 0,-0.375 0.246094,-0.6328125 0.621094,-0.6328125 0.375,0 0.632812,0.2578125 0.632812,0.6328125 z m 25.617188,-1.3828125 c 0,0.375 -0.246094,0.6328125 -0.621094,0.6328125 -0.375,0 -0.621094,-0.2578125 -0.621094,-0.6328125 0,-0.375 0.246094,-0.6210938 0.621094,-0.6210938 0.375,0 0.621094,0.2460938 0.621094,0.6210938 z m -1.125,-1.2421875 c -0.117188,0.375 -0.375,0.6210937 -0.75,0.6210937 -0.375,-0.1289062 -0.492188,-0.375 -0.492188,-0.5039062 0,-0.6210938 0.246094,-0.8671875 0.621094,-0.8671875 0.375,0.1171875 0.621094,0.375 0.621094,0.75 z m -10.5,3.375 c 0.128906,-0.375 0.375,-0.6328125 0.75,-0.75 0.375,0.1171875 0.503906,0.375 0.503906,0.75 0,0.375 -0.246094,0.6210937 -0.621094,0.6210937 -0.375,-0.1289062 -0.632812,-0.375 -0.632812,-0.6210937 z M 55.371339,-5.6249844 c 0,0.375 -0.246094,0.6210938 -0.621094,0.6210938 -0.375,0 -0.632812,-0.2460938 -0.632812,-0.6210938 0,-0.375 0.257812,-0.6210937 0.632812,-0.6210937 0.375,0 0.621094,0.2460937 0.621094,0.6210937 z m 14.121094,-0.6210937 c 0,0.375 -0.246094,0.6210937 -0.621094,0.6210937 -0.375,0 -0.621094,-0.1289062 -0.621094,-0.5039062 0,-0.4921875 0.246094,-0.75 0.621094,-0.75 0.375,0 0.621094,0.2578125 0.621094,0.6328125 z m 1.007812,3.9960937 c 0,0.375 -0.257812,0.5039063 -0.75,0.5039063 -0.128906,0 -0.375,-0.2578125 -0.503906,-0.6328125 0.128906,-0.375 0.375,-0.6210938 0.75,-0.6210938 0.375,0 0.503906,0.2460938 0.503906,0.75 z m -8.625,-4.2539062 c 0,0.375 -0.257812,0.5039062 -0.632812,0.5039062 -0.375,0 -0.621094,-0.1289062 -0.621094,-0.5039062 0,-0.4921875 0.246094,-0.75 0.621094,-0.75 0.375,0 0.632812,0.2578125 0.632812,0.75 z m 31.875,2.7539062 c 0,0.375 -0.257812,0.6210938 -0.75,0.6210938 -0.375,0 -0.503906,-0.1171875 -0.503906,-0.4921875 0,-0.5039063 0.246094,-0.75 0.621094,-0.75 0.375,0 0.632812,0.2460937 0.632812,0.6210937 z m 4.863282,2.75390628 c 0,0.375 -0.246094,0.62109375 -0.621094,0.62109375 -0.375,0 -0.621094,-0.24609375 -0.621094,-0.62109375 0,-0.37499998 0.246094,-0.50390628 0.867188,-0.50390628 0.257812,0 0.375,0.1289063 0.375,0.50390628 z M 78.246339,-2.0038906 c 0,0.375 -0.246094,0.6328125 -0.621094,0.6328125 -0.375,0 -0.632812,-0.2578125 -0.632812,-0.6328125 0,-0.375 0.257812,-0.6210938 0.632812,-0.6210938 0.375,0.1289063 0.621094,0.375 0.621094,0.6210938 z M 19.500245,-4.7460781 c 0,0.2460937 -0.246093,0.4921875 -0.621093,0.6210937 -0.375,-0.1289062 -0.632813,-0.375 -0.632813,-0.6210937 0.128906,-0.5039063 0.375,-0.75 0.75,-0.75 0.375,0 0.503906,0.2460937 0.503906,0.75 z m 60,1.7460937 c 0,0.2460938 -0.257812,0.375 -0.75,0.375 -0.128906,0 -0.375,-0.2460937 -0.503906,-0.6210937 0,-0.375 0.246094,-0.5039063 0.75,-0.5039063 0.375,0 0.503906,0.2460938 0.503906,0.75 z m -5.132812,0.8789063 c 0.128906,-0.375 0.375,-0.6328125 0.75,-0.6328125 0.375,0 0.503906,0.2578125 0.503906,0.75 0,0.375 -0.246094,0.5039062 -0.621094,0.5039062 -0.375,0 -0.632812,-0.2460937 -0.632812,-0.6210937 z M 22.125245,-4.6288906 c 0,0.375 -0.246093,0.5039062 -0.75,0.5039062 -0.375,0 -0.503906,-0.1289062 -0.503906,-0.5039062 0,-0.4921875 0.257813,-0.75 0.632813,-0.75 0.375,0 0.621093,0.2578125 0.621093,0.75 z m 36.996094,0.5039062 c 0,0.375 -0.246094,0.6210938 -0.621094,0.6210938 -0.375,0 -0.632812,-0.2460938 -0.632812,-0.75 0,-0.375 0.257812,-0.4921875 0.632812,-0.4921875 0.375,0 0.621094,0.2460937 0.621094,0.6210937 z m 19.371094,-2.8710937 c 0,0.1171875 -0.117188,0.2460937 -0.246094,0.375 -0.128906,0.1171875 -0.246094,0.1171875 -0.375,0.1171875 -0.375,0 -0.621094,-0.1171875 -0.621094,-0.4921875 0,-0.375 0.246094,-0.6328125 0.75,-0.6328125 0.375,0 0.492188,0.2578125 0.492188,0.6328125 z m -14.121094,0.4921875 c 0,0.375 -0.246094,0.6328125 -0.621094,0.6328125 -0.375,0 -0.632812,-0.2578125 -0.632812,-0.6328125 0,-0.375 0.257812,-0.4921875 0.878906,-0.4921875 0.246094,0 0.375,0.1171875 0.375,0.4921875 z m -30.75,1.125 c 0,0.375 -0.246094,0.6328125 -0.621094,0.6328125 -0.375,0 -0.632812,-0.2578125 -0.632812,-0.75 0,-0.375 0.257812,-0.5039063 0.75,-0.5039063 0.375,0 0.503906,0.2460938 0.503906,0.6210938 z m 20.496094,-1.5 c 0,0.375 -0.246094,0.5039062 -0.621094,0.5039062 -0.375,0 -0.621094,-0.2460937 -0.621094,-0.6210937 0,-0.1289063 0.117188,-0.375 0.375,-0.5039063 l 0.621094,-0.1289062 c 0.128906,0.375 0.246094,0.6328125 0.246094,0.75 z m 34.5,2.8828125 c 0,0.375 -0.246094,0.6210937 -0.75,0.6210937 -0.375,0 -0.492188,-0.2460937 -0.492188,-0.6210937 0,-0.375 0.246094,-0.6328125 0.621094,-0.6328125 0.375,0 0.621094,0.2578125 0.621094,0.6328125 z m -38.367188,-1.875 c 0,0.375 -0.257812,0.6210937 -0.632812,0.6210937 -0.375,0 -0.621094,-0.2460937 -0.621094,-0.6210937 0.128906,-0.375 0.375,-0.6328125 0.621094,-0.6328125 0.375,0 0.632812,0.2578125 0.632812,0.6328125 z m -1.253906,1.2421875 c 0,0.375 -0.246094,0.6328125 -0.75,0.6328125 -0.375,-0.1289063 -0.503906,-0.375 -0.503906,-0.6328125 0,-0.1171875 0.128906,-0.375 0.257812,-0.4921875 0.117188,-0.1289063 0.246094,-0.1289063 0.375,-0.1289063 0.375,0 0.621094,0.2460938 0.621094,0.6210938 z m 10.253906,-1.875 c 0,0.2578125 -0.257812,0.375 -0.632812,0.375 -0.375,0 -0.621094,-0.2460938 -0.621094,-0.6210938 0.128906,-0.375 0.375,-0.6210937 0.75,-0.6210937 0.375,0 0.503906,0.2460937 0.503906,0.8671875 z m -45,1.3828125 c 0.128907,0 0.128907,0 0.128907,0.1171875 0,0.375 -0.257813,0.5039062 -0.632813,0.5039062 -0.375,0 -0.621094,-0.2460937 -0.621094,-0.8789062 l 1.125,-0.1171875 c 0,0.1171875 0,0.2460937 0,0.375 z m 25.875,-1.2539063 c 0,0.375 -0.257812,0.6210938 -0.75,0.6210938 -0.375,0 -0.632812,-0.2460938 -0.632812,-0.6210938 0,-0.1289062 0,-0.2460937 0.128906,-0.375 l 0.75,-0.1289062 c 0.375,0 0.503906,0.1289062 0.503906,0.5039062 z m 25.5,-1.7460937 c 0,0.1171875 0,0.1171875 0.117188,0.1171875 0,0.1289062 0,0.2578125 0,0.375 0,0.375 -0.246094,0.6328125 -0.621094,0.6328125 -0.375,-0.1289063 -0.621094,-0.5039063 -0.621094,-1.0078125 z m -39.75,1.9921875 c 0.128907,0.1289062 0.128907,0.2578125 0.128907,0.375 0,0.375 -0.257813,0.6328125 -0.632813,0.6328125 -0.375,-0.1289063 -0.621094,-0.5039063 -0.621094,-0.8789063 z m 71.742188,1.6289062 c -0.128906,0.1289063 -0.375,0.2460938 -0.503906,0.2460938 -0.375,-0.1171875 -0.621094,-0.2460938 -0.621094,-0.6210938 0,-0.375 0.246094,-0.5039062 0.621094,-0.6210937 0.128906,0 0.375,0.1171875 0.503906,0.2460937 l -0.246094,0.375 z m -45.867188,-2.625 c 0,0.375 -0.257812,0.5039063 -0.632812,0.5039063 -0.375,0 -0.621094,-0.2578125 -0.621094,-0.75 l 1.125,-0.1289063 c 0,0.1289063 0,0.2460938 0.128906,0.375 z m -39.878906,1.7460938 c 0,0.6328125 -0.246094,0.8789062 -0.621094,0.8789062 -0.375,-0.1289062 -0.621093,-0.375 -0.621093,-0.75 z m 51.375,-2.625 c 0,0.6328125 -0.246094,0.8789062 -0.75,0.8789062 -0.375,-0.1289062 -0.621094,-0.375 -0.621094,-0.75 z m -39.867187,2.0039062 c 0,0.375 -0.257813,0.5039063 -0.632813,0.5039063 -0.375,0 -0.621094,-0.1289063 -0.621094,-0.375 z m 65.496093,-3.2460937 c 0,0.4921875 -0.257812,0.75 -0.75,0.75 -0.257812,0 -0.503906,-0.2578125 -0.632812,-0.6328125 z m -39.75,1.875 c 0,0.4921875 -0.257812,0.75 -0.75,0.75 -0.375,0 -0.503906,-0.2578125 -0.503906,-0.6328125 z m 49.371094,4.3710937 c 0,0.1289063 0,0.1289063 -0.128906,0.1289063 -0.621094,0 -0.878906,-0.2578125 -0.878906,-0.6328125 0,-0.375 0.128906,-0.6210938 0.375,-0.6210938 z M 9.3752453,-5.3788906 c 0,0.375 -0.2460937,0.6328125 -0.6210937,0.6328125 -0.375,0 -0.6328125,-0.1289063 -0.75,-0.5039063 z M 74.742433,-8.6249844 c 0,0.5039063 -0.246094,0.75 -0.621094,0.75 -0.375,0 -0.621094,-0.2460937 -0.621094,-0.6210937 z m -39.75,1.875 c 0,0.5039063 -0.246094,0.75 -0.621094,0.75 -0.375,0 -0.621094,-0.2460937 -0.621094,-0.6210937 z m 25.628906,-1.2539062 c 0,0.1289062 0,0.375 -0.128906,0.5039062 -0.117188,0.1289063 -0.375,0.2460938 -0.492188,0.2460938 -0.257812,0 -0.503906,-0.2460938 -0.632812,-0.6210938 z m -39.75,2.1328125 c 0,0.375 -0.246094,0.4921875 -0.621094,0.4921875 -0.375,0 -0.503906,-0.1171875 -0.621093,-0.375 z m 65.378906,-3.375 c 0,0.375 -0.257812,0.6210937 -0.632812,0.6210937 -0.246094,0 -0.492188,-0.1289062 -0.621094,-0.5039062 z m -39.632812,1.9921875 c -0.117188,0.375 -0.375,0.5039062 -0.492188,0.5039062 -0.503906,0 -0.75,-0.1289062 -0.878906,-0.375 z m 25.5,-1.2421875 c 0,0.375 -0.246094,0.4921875 -0.621094,0.4921875 -0.128906,0 -0.246094,-0.1171875 -0.503906,-0.375 z M 6.7502453,-5.2499844 c -0.1289062,0.2460938 -0.375,0.375 -0.6210937,0.375 -0.375,0 -0.5039063,-0.1289062 -0.5039063,-0.2460937 z m 91.6171877,-1.5 -0.503906,1.125 c -0.117188,-0.1289062 -0.246094,-0.375 -0.246094,-0.5039062 0.128906,-0.375 0.375,-0.6210938 0.75,-0.6210938 z m -66,0.2460938 c -0.117188,0.2578125 -0.375,0.375 -0.621094,0.375 -0.246094,0 -0.375,-0.1171875 -0.492187,-0.2460938 z m 65.496094,-3.1171875 c -0.117188,0.1171875 -0.375,0.2460937 -0.492188,0.2460937 -0.375,0 -0.632812,0 -0.75,-0.1289062 z m -39.867188,1.7460937 c 0,0.375 -0.246094,0.5039063 -0.621094,0.5039063 -0.257812,0 -0.375,-0.1289063 -0.503906,-0.375 z m 41.742188,-2.0039062 -0.246094,0.6328125 c -0.246094,0 -0.375,-0.1289063 -0.375,-0.5039063 z m -7.617188,9.50390623 h -0.996094 c 0.117188,-0.12890625 0.246094,-0.24609375 0.375,-0.24609375 0.246094,0 0.492188,0.1171875 0.621094,0.24609375 z M 83.625245,-8.9999844 c -0.128906,0.1289063 -0.257812,0.2460938 -0.375,0.2460938 -0.257812,0 -0.503906,-0.1171875 -0.632812,-0.2460938 z m -65.496093,5.0039063 h -1.007813 c 0.128906,-0.1289063 0.257813,-0.2578125 0.503906,-0.2578125 0.128907,0 0.375,0.1289062 0.503907,0.2578125 z m 81.117187,2.3671875 c -0.128906,0 -0.128906,0 -0.257812,-0.1171875 -0.117188,-0.1289063 -0.246094,-0.375 -0.246094,-0.5039063 0.246094,0.2460938 0.375,0.5039063 0.503906,0.6210938 z M 48.750245,-2.4960781 h -1.007812 c 0.128906,-0.1289063 0.375,-0.2578125 0.503906,-0.2578125 0.128906,0 0.375,0.1289062 0.503906,0.2578125 z M 30.879152,-3.3749844 h -1.007813 c 0.128906,-0.1289062 0.375,-0.2460937 0.503906,-0.2460937 0.128907,0 0.375,0.1171875 0.503907,0.2460937 z m 15.363281,0.75 h -1.125 c 0.128906,-0.1289062 0.257812,-0.2460937 0.503906,-0.2460937 0.246094,0 0.503906,0.1171875 0.621094,0.2460937 z m -5.121094,-0.2460937 h -0.996094 c 0,-0.1289063 0.117188,-0.2578125 0.492188,-0.2578125 0.128906,0 0.375,0.1289062 0.503906,0.2578125 z m -28.125,-1.3828125 h -0.996094 c 0.128907,-0.1171875 0.375,-0.2460938 0.503907,-0.2460938 0.117187,0 0.375,0.1289063 0.492187,0.2460938 z m 40.875,2.0039062 h -1.125 c 0.128906,-0.1289062 0.375,-0.2460937 0.621094,-0.2460937 0.128906,0 0.375,0.1171875 0.503906,0.2460937 z m 19.875,0.75 c 0.128906,0 0.375,0.1289063 0.503906,0.2460938 h -1.007812 c 0.128906,-0.1171875 0.375,-0.2460938 0.503906,-0.2460938 z m -55.5,-4.2539062 c -0.117187,0.1289062 -0.246094,0.2578125 -0.375,0.2578125 -0.246094,0 -0.492187,0 -0.621094,-0.1289063 z m 48.375,4.125 h -0.996094 c 0.117188,-0.1171875 0.246094,-0.2460938 0.492188,-0.2460938 0.128906,0 0.375,0.1289063 0.503906,0.2460938 z m 5.121094,0.2578125 h -0.996094 c 0.128906,-0.1289063 0.375,-0.2578125 0.503906,-0.2578125 0.117188,0 0.375,0.1289062 0.492188,0.2578125 z m 5.003906,0.2460937 h -0.996094 c 0.117188,-0.1289062 0.246094,-0.2460937 0.621094,-0.2460937 0.246094,0 0.375,0.1171875 0.375,0.2460937 z m -54,-2.8710937 c 0.128906,0 0.375,0.1171875 0.503906,0.2460937 h -1.125 c 0.375,-0.1289062 0.503907,-0.2460937 0.621094,-0.2460937 z m 28.628906,1.6171875 h -1.125 c 0.117188,-0.1171875 0.375,-0.2460938 0.492188,-0.2460938 0.257812,0 0.503906,0.1289063 0.632812,0.2460938 z m 17.742188,0.8789062 h -0.996094 c 0.128906,-0.1289062 0.375,-0.2460937 0.503906,-0.2460937 0.117188,0 0.375,0.1171875 0.492188,0.2460937 z M 25.746339,-3.6210781 h -0.996094 c 0.128907,-0.1289063 0.375,-0.2578125 0.503907,-0.2578125 0.117187,0 0.375,0.1289062 0.492187,0.2578125 z m 12.75,0.6210937 h -0.996094 c 0.117188,-0.1289062 0.375,-0.2460937 0.492188,-0.2460937 0.128906,0 0.375,0.1171875 0.503906,0.2460937 z m 17.496094,0.6210938 c 0.257812,0 0.375,0.1289062 0.375,0.2578125 h -0.996094 c 0.128906,-0.1289063 0.375,-0.2578125 0.621094,-0.2578125 z M 27.750245,-3.7499844 c 0.246094,0 0.503907,0.1289063 0.621094,0.2460938 h -1.125 c 0.128906,-0.1171875 0.375,-0.2460938 0.503906,-0.2460938 z m 54.117188,2.87109378 h -0.996094 c 0.128906,-0.1171875 0.246094,-0.24609378 0.503906,-0.24609378 0.117188,0 0.375,0.12890628 0.492188,0.24609378 z M 20.625245,-3.8788906 h -0.996093 c 0.117187,-0.1171875 0.246093,-0.2460938 0.492187,-0.2460938 0.128906,0 0.375,0.1289063 0.503906,0.2460938 z m -10.125,-0.4921875 H 9.5041516 c 0,-0.1289063 0.1171875,-0.2578125 0.4921875,-0.2578125 0.1289059,0 0.3749999,0.1289062 0.5039059,0.2578125 z m 22.875,1.125 h -1.007812 c 0.128906,-0.1289063 0.375,-0.2578125 0.503906,-0.2578125 0.375,0 0.503906,0.1289062 0.503906,0.2578125 z M 15.504152,-4.1249844 h -1.007813 c 0.128906,-0.1289062 0.257813,-0.2460937 0.632813,-0.2460937 0.246093,0 0.375,0.1171875 0.375,0.2460937 z m 71.496093,3.50390628 h -1.007812 c 0.128906,-0.12890625 0.257812,-0.2578125 0.503906,-0.2578125 0.128906,0 0.375,0.12890625 0.503906,0.2578125 z m -51,-2.50781248 h -1.007812 c 0.128906,-0.1171875 0.375,-0.2460938 0.503906,-0.2460938 0.128906,0 0.375,0.1289063 0.503906,0.2460938 z m 61.242188,2.99999998 h -0.996094 c 0.117188,-0.1171875 0.375,-0.24609375 0.492188,-0.24609375 0.128906,0 0.375,0.12890625 0.503906,0.24609375 z M 7.8752453,-4.4999844 H 6.8791516 c 0.1171875,-0.1289062 0.375,-0.2460937 0.4921875,-0.2460937 0.1289062,0 0.375,0.1171875 0.5039062,0.2460937 z m 35.7421877,1.7460938 h -0.996094 c 0.128906,-0.1171875 0.246094,-0.2460938 0.503906,-0.2460938 0.117188,0 0.375,0.1289063 0.492188,0.2460938 z m 20.507812,1.0078125 h -1.125 c 0.117188,-0.1289063 0.246094,-0.2578125 0.492188,-0.2578125 0.257812,0 0.503906,0.1289062 0.632812,0.2578125 z M 99.738527,1.5625e-5 h -0.996094 c 0.128906,-0.128906245 0.246094,-0.246093745 0.621094,-0.246093745 0.128906,0 0.257812,0.1171875 0.375,0.246093745 z M 58.875245,-2.0038906 h -1.007812 c 0.375,-0.1171875 0.503906,-0.2460938 0.632812,-0.2460938 0.117188,0 0.246094,0.1289063 0.375,0.2460938 z m 2.625,0.1289062 h -1.007812 c 0.128906,-0.1289062 0.257812,-0.2460937 0.503906,-0.2460937 0.128906,0 0.375,0.1171875 0.503906,0.2460937 z m 27.996094,1.37109378 h -0.878906 c 0.128906,-0.1171875 0.257812,-0.24609375 0.503906,-0.24609375 0.128906,0 0.246094,0.12890625 0.375,0.24609375 z m -5.003906,-0.24609375 h -0.996094 c 0,-0.12890625 0.128906,-0.24609375 0.503906,-0.24609375 0.117188,0 0.375,0.1171875 0.492188,0.24609375 z m -5.121094,-0.24609375 h -0.996094 c 0.117188,-0.12890628 0.375,-0.25781248 0.492188,-0.25781248 0.128906,0 0.375,0.1289062 0.503906,0.25781248 z m 15.246094,0.75 h -0.867188 c 0,-0.12890625 0.117188,-0.2578125 0.363282,-0.2578125 0.128906,0 0.375,0.12890625 0.503906,0.2578125 z M 5.3791516,-4.6288906 H 4.5002453 c 0,-0.1171875 0.1289063,-0.2460938 0.375,-0.2460938 0.1289063,0 0.375,0.1289063 0.5039063,0.2460938 z M 43.875245,-7.1249844 c 0,0.2460938 -0.128906,0.375 -0.503906,0.375 -0.128906,0 -0.375,-0.1289062 -0.503906,-0.2460937 z M 3.8791516,-4.7460781 H 3.2463391 c 0,-0.1289063 0.1289062,-0.2578125 0.2578125,-0.2578125 0.1171875,0 0.2460937,0.1289062 0.375,0.2578125 z m 51.4921874,-3 c 0,0.1171875 0,0.1171875 -0.128906,0.1171875 -0.117188,0.1289062 -0.246094,0.1289062 -0.375,0.1289062 -0.117188,0 -0.246094,0 -0.375,-0.1289062 z m -25.371094,1.2421875 c -0.128906,0.2578125 -0.375,0.375 -0.621093,0.375 -0.257813,0 -0.375,-0.1171875 -0.503907,-0.2460938 z m 11.25,-0.6210938 c 0,0.1289063 -0.128906,0.2460938 -0.503906,0.2460938 -0.246094,0 -0.375,0 -0.503906,-0.1171875 z m -25.746093,1.5 c -0.128907,0.1289063 -0.257813,0.1289063 -0.632813,0.1289063 0.375,-0.1289063 0.503906,-0.2578125 0.632813,-0.2578125 0.117187,0.1289062 0.117187,0.1289062 0,0.1289062 z m 11.496093,-0.6210937 c -0.128906,0.1171875 -0.246093,0.1171875 -0.621093,0.1171875 0.375,-0.1171875 0.492187,-0.2460938 0.621093,-0.2460938 0.128907,0.1289063 0.128907,0.1289063 0,0.1289063 z m 10.617188,-0.6328125 c 0,0.6328125 -0.246094,0.8789062 -0.75,0.8789062 -0.375,-0.1289062 -0.621094,-0.375 -0.621094,-0.75 z m 32.003906,-1.3710938 c -0.128906,0.1289063 -0.246094,0.1289063 -0.621094,0.1289063 -0.128906,-0.1289063 0,-0.1289063 0.246094,-0.1289063 0.128906,0 0.246094,0 0.375,0 z m 7.628906,-0.5039062 c 0,0.5039062 -0.257812,0.75 -0.632812,0.75 -0.375,0 -0.621094,-0.2460938 -0.621094,-0.6210938 z m 2.625,0 c 0,0.1289062 0,0.375 -0.128906,0.6328125 -0.128906,0.2460937 -0.375,0.375 -0.503906,0.375 -0.375,0 -0.621094,-0.2578125 -0.621094,-0.8789063 z m 11.496094,-0.6210938 c 0,0.6210938 -0.246094,0.8789063 -0.75,0.8789063 -0.128906,0 -0.246094,-0.1289063 -0.375,-0.2578125 -0.128906,-0.1171875 -0.128906,-0.375 -0.246094,-0.4921875 z M 2.3791516,-4.7460781 c 0.1171875,0 -0.1289063,0 -0.75,0 0.1171875,-0.1289063 0.375,-0.1289063 0.4921875,-0.1289063 0.1289062,0 0.2578125,0 0.2578125,0.1289063 z m 0,0"
         style="fill:#615297;fill-opacity:1;fill-rule:nonzero;stroke:none"
         aria-label="k"
         transform="matrix(1.3333333,0,0,1.3333333,565.05827,664.55467)" /></g></g></svg>
