<?xml version="1.0" encoding="UTF-8" standalone="no"?>
<!-- Created with Inkscape (http://www.inkscape.org/) -->

<svg
   width="35.276398mm"
   height="7.8672199mm"
   viewBox="0 0 35.276398 7.8672198"
   version="1.1"
   id="svg1"
   xml:space="preserve"
   xmlns="http://www.w3.org/2000/svg"
   xmlns:svg="http://www.w3.org/2000/svg"><defs
     id="defs1" /><g
     id="g1"
     transform="matrix(0.26458333,0,0,0.26458333,-149.09477,-136.97252)"><g
       id="g11"><path
         id="path105"
         d="M 0.43392813,-4.3009453 H 2.1565844 c 0.3398437,0 0.5859375,0.011719 0.7617187,0.046875 0.1640625,0.035156 0.3164063,0.09375 0.4453125,0.1757812 0.1289063,0.09375 0.2460938,0.2109375 0.328125,0.3632813 0.09375,0.140625 0.140625,0.3164062 0.140625,0.5039062 0,0.1875 -0.058594,0.375 -0.1640625,0.5507813 -0.1054687,0.1640625 -0.2578125,0.2929687 -0.4453125,0.375 0.2578125,0.070312 0.46875,0.1992187 0.609375,0.3867187 0.1289063,0.1875 0.2109375,0.3984375 0.2109375,0.65625 0,0.1875 -0.046875,0.37500004 -0.140625,0.56250004 -0.09375,0.1875 -0.2109375,0.33984375 -0.375,0.4453125 -0.1523437,0.10546875 -0.3515625,0.17578125 -0.5859375,0.19921875 -0.140625,0.0234375 -0.4921875,0.0234375 -1.0429687,0.0351562475 H 0.43392813 Z m 0.87890627,0.7148437 v 0.9960938 h 0.5625 c 0.3398437,0 0.5507812,-0.011719 0.6328125,-0.023437 0.140625,-0.011719 0.2695312,-0.058594 0.3515625,-0.1523438 0.082031,-0.082031 0.1171875,-0.1875 0.1171875,-0.328125 0,-0.1289062 -0.035156,-0.2460937 -0.1054688,-0.328125 -0.070312,-0.070312 -0.1875,-0.1289062 -0.328125,-0.1523437 -0.082031,0 -0.328125,-0.011719 -0.7382812,-0.011719 z m 0,1.7109375 v 1.14843754 h 0.796875 c 0.3164062,0 0.515625,-0.0117188 0.5976562,-0.0234375 0.1289063,-0.0234375 0.234375,-0.0820313 0.3164063,-0.17578125 0.082031,-0.09375 0.1171875,-0.21093749 0.1171875,-0.36328129 0,-0.1289062 -0.023437,-0.2460937 -0.09375,-0.328125 -0.058594,-0.09375 -0.1523438,-0.1640625 -0.2695313,-0.1992187 -0.1171875,-0.046875 -0.375,-0.058594 -0.7617187,-0.058594 z m 0,0"
         style="fill:#615297;fill-opacity:1;fill-rule:nonzero;stroke:none"
         aria-label="B"
         transform="matrix(1.3333333,0,0,1.3333333,690.06987,523.426)" /><path
         id="path111"
         d="M 99.995734,5.924225e-4 93.116827,-6.9955013 h -1.371093 l 6.996093,6.86718747 H 98.120734 L 91.241827,-6.9955013 h -1.371093 l 6.75,6.74999997 H 95.987921 L 89.24964,-6.8783138 h -1.253906 l 6.621093,6.63281247 H 93.995734 L 87.37464,-6.8783138 h -1.382813 l 6.503907,6.50390622 H 91.87464 l -6.375,-6.37500002 h -1.382813 l 6.375,6.24609377 H 89.870734 L 83.62464,-6.6205013 h -1.382813 l 6.128907,6.11718747 H 87.74964 L 81.620734,-6.6205013 h -1.253907 l 5.882813,5.99999997 h -0.503906 l -6,-5.88281247 h -1.253907 l 5.753907,5.75390622 H 83.62464 L 77.870734,-6.3744076 H 76.49964 l 5.742187,5.49609377 h -0.75 L 75.995734,-6.3744076 H 74.62464 l 5.496094,5.37890627 H 79.49964 L 73.991827,-6.2455013 H 72.74964 l 5.25,5.24999997 H 77.495734 L 72.116827,-6.2455013 H 70.87464 l 5.121094,5.1210937 H 75.37464 l -5.132813,-5.0039062 h -1.371093 l 5.121093,5.0039062 h -0.75 l -4.875,-5.0039062 h -1.371093 l 4.875,4.875 H 71.24964 l -4.875,-4.7460938 h -1.253906 l 4.628906,4.6289063 h -0.632813 l -4.617187,-4.5 h -1.253906 l 4.5,4.5 H 67.12464 l -4.5,-4.5 h -1.382813 l 4.382813,4.3710937 H 64.991827 L 60.74964,-5.7533138 h -1.382813 l 4.253907,4.125 H 62.99964 l -4.125,-3.9960938 h -1.382813 l 4.007813,3.8789063 H 60.866827 L 56.99964,-5.6244076 h -1.382813 l 3.878907,3.8789063 H 58.87464 l -3.878906,-3.75 H 53.62464 l 3.75,3.6210937 H 56.741827 L 53.120734,-5.4955013 H 51.74964 l 3.621094,3.4921875 H 54.74964 l -3.503906,-3.375 H 49.87464 l 3.375,3.2578125 H 52.616827 L 49.370734,-5.3783138 H 47.99964 l 3.246094,3.2578125 H 50.62464 L 47.366827,-5.2494076 H 46.12464 l 3,3 h -0.632813 l -3,-3 H 44.24964 l 2.742187,2.8710938 H 46.49964 l -2.882813,-2.7421875 h -1.371093 l 2.753906,2.7421875 h -0.632813 l -2.625,-2.4960938 H 40.49964 l 2.496094,2.3789063 H 42.37464 l -2.625,-2.3789063 h -1.253906 l 2.378906,2.25 H 40.241827 L 37.87464,-4.7455013 h -1.253906 l 2.121093,2.1210937 H 38.24964 l -2.25,-2.1210937 h -1.382813 l 2.132813,1.9921875 H 36.116827 L 34.12464,-4.7455013 h -1.382813 l 2.003907,1.875 h -0.75 l -1.875,-1.7578125 h -1.242188 l 1.746094,1.7578125 h -0.632813 l -1.746093,-1.6289063 h -1.242188 l 1.5,1.5 H 29.99964 l -1.628906,-1.5 H 26.99964 l 1.5,1.3710938 H 27.878546 L 26.495734,-4.4994076 H 25.12464 l 1.253906,1.2539063 h -0.632812 l -1.125,-1.125 H 23.24964 l 1.125,1.125 H 23.753546 L 22.87464,-4.2533138 h -1.5 l 0.878906,0.8789062 h -0.632812 l -0.867188,-0.8789062 h -1.382812 l 0.878906,0.75 h -0.621094 l -0.75,-0.6210938 H 17.62464 l 0.503906,0.6210938 h -0.632812 l -0.492188,-0.6210938 h -1.382812 l 0.503906,0.5039063 h -0.621094 l -0.375,-0.375 h -1.382812 l -0.492188,0.2460937 H -3.60155e-4 L 99.995734,-8.4955013 l -1.253907,1.125 h -1.371093 l 0.75,0.75 -0.257813,0.4921875 -0.996094,-1.125 h -1.371093 l 1.992187,2.0039062 -0.246094,0.375 -2.25,-2.25 h -1.371093 l 6.375,6.62109377 z m 0,0"
         style="fill:#615297;fill-opacity:1;fill-rule:nonzero;stroke:none"
         aria-label="h"
         transform="matrix(1.3333333,0,0,1.3333333,563.50829,539.82343)" /><path
         id="path116"
         d="M 1.5716234,-1.640625e-4 V -1.8048516 L -0.01040781,-4.3009453 H 1.0091234 l 1.0195313,1.6992187 0.984375,-1.6992187 h 1.0078125 l -1.5820313,2.4960937 v 1.8046875375 z m 0,0"
         style="fill:#615297;fill-opacity:1;fill-rule:nonzero;stroke:none"
         aria-label="Y"
         transform="matrix(1.3333333,0,0,1.3333333,690.73653,547.426)" /></g></g></svg>
