<?xml version="1.0" encoding="UTF-8" standalone="no"?>
<!-- Created with Inkscape (http://www.inkscape.org/) -->

<svg
   width="3.1592281mm"
   height="7.2257948mm"
   viewBox="0 0 3.1592281 7.2257947"
   version="1.1"
   id="svg1"
   xml:space="preserve"
   xmlns="http://www.w3.org/2000/svg"
   xmlns:svg="http://www.w3.org/2000/svg"><defs
     id="defs1" /><g
     id="g1"
     transform="matrix(0.26458333,0,0,0.26458333,-124.17289,-96.071179)"><g
       id="g12"><path
         id="path692"
         d="m 469.56379,390.19207 c 2.02474,-2.27344 3.45052,-7.69465 3.45052,-14.02083 0,-5.38021 -1.03126,-10.10612 -2.58594,-12.79753"
         style="fill:none;stroke:#231f20;stroke-width:0.666667;stroke-linecap:butt;stroke-linejoin:miter;stroke-miterlimit:4;stroke-dasharray:none;stroke-opacity:1" /><path
         id="path693"
         d="m 480.99999,390.11135 c -1.95834,-2.33204 -3.22396,-7.79232 -3.03907,-14.11589 0.15756,-5.37826 1.32552,-10.07162 2.95704,-12.7168"
         style="fill:none;stroke:#231f20;stroke-width:0.666667;stroke-linecap:butt;stroke-linejoin:miter;stroke-miterlimit:4;stroke-dasharray:none;stroke-opacity:1" /><path
         id="path694"
         d="m 475.48436,377.8392 c -0.56511,0 -1.02083,-0.45702 -1.02083,-1.02148 0,-0.5638 0.45572,-1.02082 1.02083,-1.02082 0.5638,0 1.02084,0.45702 1.02084,1.02082 0,0.56446 -0.45704,1.02148 -1.02084,1.02148 z"
         style="fill:#231f20;fill-opacity:1;fill-rule:nonzero;stroke:none;stroke-width:1.33333" /></g></g></svg>
