<?xml version="1.0" encoding="UTF-8" standalone="no"?>
<!-- Created with Inkscape (http://www.inkscape.org/) -->

<svg
   width="3.4349971mm"
   height="3.7584944mm"
   viewBox="0 0 3.4349971 3.7584943"
   version="1.1"
   id="svg1"
   xml:space="preserve"
   xmlns="http://www.w3.org/2000/svg"
   xmlns:svg="http://www.w3.org/2000/svg"><defs
     id="defs1" /><g
     id="g1"
     transform="matrix(0.26458333,0,0,0.26458333,-183.83673,-242.63879)"><g
       id="g4"><path
         id="path200"
         d="M 0,0 C -0.058,0.66 2.529,2.313 4.33,2.429 3.104,3.503 2.053,4.447 0.96,5.322 0.488,3.493 0.959,0.964 -0.422,0.588 -1.744,0.858 -1.668,3.503 -2.099,5.322 -3.192,4.447 -4.283,3.356 -5.377,2.482 -3.824,2.026 -1.15,1.523 -1.006,0 c 0.057,-0.662 -2.539,-2.325 -4.342,-2.439 1.228,-1.074 2.28,-2.02 3.371,-2.893 0.472,1.828 0.003,4.357 1.383,4.732 1.322,-0.27 1.245,-2.913 1.677,-4.732 1.093,0.873 2.185,1.965 3.277,2.839 C 2.808,-2.037 0.144,-1.523 0,0"
         style="fill:#615297;fill-opacity:1;fill-rule:evenodd;stroke:none"
         transform="matrix(1.3333333,0,0,-1.3333333,701.98533,924.156)" /></g></g></svg>
