<?xml version="1.0" encoding="UTF-8" standalone="no"?>
<!-- Created with Inkscape (http://www.inkscape.org/) -->

<svg
   width="1.6095477mm"
   height="2.689934mm"
   viewBox="0 0 1.6095477 2.689934"
   version="1.1"
   id="svg1"
   xml:space="preserve"
   xmlns="http://www.w3.org/2000/svg"
   xmlns:svg="http://www.w3.org/2000/svg"><defs
     id="defs1" /><g
     id="g1"
     transform="matrix(0.26458333,0,0,0.26458333,-180.73246,-75.428302)"><path
       id="path700"
       d="m 686.16665,285.08335 c -0.0833,0.66667 -0.33333,1.25 -0.58333,1.91667 -0.16667,0.66667 -0.75,0.91667 -1.16667,1.25 0.33333,0.41667 1,0.25 0.75,0.91667 -0.16667,0.33333 -0.91667,0.25 -0.83333,0.58333 0.0833,0.25 0.91666,0.0833 0.58333,0.58333 -0.16667,0.16667 -0.5,0.33334 -0.75,0.5 -0.0833,0 -0.25,0 -0.33333,0 0,0.0833 0,0.25 0,0.25 0.5,0.16667 1,0.16667 1.5,0.16667 0.0833,0.75 -1.25,0.91667 -1.83334,1.25 -0.48568,0.27735 1.35938,-0.13147 1.58334,0.16667 0.25,0.33333 -0.5,0.5 -1.33334,0.83333 0,0 -0.66666,0.41667 -0.66666,0.41667 0.66666,0.16666 2.08333,-0.41667 2.58333,-0.0833 0.25,0.16667 0.33333,0.75 0.25,1.16667 -0.0833,-0.0833 -0.16667,0.0833 -0.25,0.0833 0,0 0,0.0833 0,0.16667 0.41667,0 0.91667,-0.0833 1.33333,-0.25 -0.0833,0.0833 -0.25,0.25 -0.33333,0.25 0.0833,-0.5 -0.25,-1.16667 0,-1.41667 0.33333,-0.25 1.66667,0.0833 2.25,0.41667 -0.16667,-0.41667 -1.25,-1 -1.41667,-1.41667 0.5,-0.0833 1.16667,-0.16666 1.66667,-0.16666 -0.66667,-0.41667 -1.75,-0.33334 -1.91667,-1.16667 0.41667,0 1,-0.25 1.41667,-0.16667 -0.41667,-0.25 -0.83333,-0.25 -1.25,-0.58333 -0.0833,-0.0833 -0.16667,-0.25 -0.0833,-0.33333 0.33333,-0.0833 0.5,-0.16667 0.83333,-0.25 0,0 0.41667,-0.0833 0.41667,-0.0833 -0.58334,-0.25 -1.41667,-0.66666 -1.08334,-1.33333 0,-0.0833 0.33334,-0.33333 0.5,-0.25 0,-0.0833 0.0533,0.0644 0,0 -0.75,-0.91667 -1,-1.33333 -1.16666,-1.66667 -0.33334,-0.83333 -0.5,-0.83333 -0.66667,-1.75 z"
       style="fill:#231f20;fill-opacity:1;fill-rule:nonzero;stroke:none;stroke-width:1.33333" /></g></svg>
