<?xml version="1.0" encoding="UTF-8" standalone="no"?>
<!-- Created with Inkscape (http://www.inkscape.org/) -->

<svg
   width="3.2298186mm"
   height="4.2400069mm"
   viewBox="0 0 3.2298186 4.2400069"
   version="1.1"
   id="svg1"
   xml:space="preserve"
   xmlns="http://www.w3.org/2000/svg"
   xmlns:svg="http://www.w3.org/2000/svg"><defs
     id="defs1" /><g
     id="g1"
     transform="matrix(0.26458333,0,0,0.26458333,-178.40663,-85.270802)"><g
       id="g13"><path
         id="path721"
         d="m 678.66665,322.58335 c -0.5,0 -1.25,0.16667 -1.66667,0.41667 -0.75,0.33333 -0.58333,1.66666 -0.16666,2.5 -0.91667,0.16666 -1.58334,1.08333 -1.58334,1.83333 0,0.0833 0.41667,0.0833 0.33334,0.16667 -1,0.66666 -1.16667,1.83333 -0.83334,2.58333 0.33334,0.58333 1.25,0.33333 1.91667,0.33333 -0.25,0.16667 -0.58333,0.33334 -0.66667,0.58334 -0.16666,0.33333 -0.33333,0.83333 -0.0833,1.08333 0.5,0.66667 1.41667,0.66667 2.25,0.58333 0.0833,0 0.0833,-0.0833 0.0833,-0.16666 0.83334,0.0833 1.66667,0.25 2.41667,0 0.75,-0.25 0.91667,-1.16667 0.66667,-2 0,-0.16667 -0.41667,-0.16667 -0.66667,-0.25 0.41667,0 0.91667,0.0833 1.25,-0.16667 0.66667,-0.66667 1.33333,-1.5 0.91667,-2.5 -0.25,-0.66667 -1.16667,-0.66667 -1.83334,-0.83333 0.83334,-0.16667 1.25,-1 1,-1.75 -0.0833,0 -0.25,-0.0833 -0.33333,-0.0833 -0.41667,-0.5 -1.16667,-0.41666 -1.58333,-0.66666 -0.25,-0.16667 0.16666,-0.75 -0.0833,-0.91667 -0.41666,-0.5 -0.91666,-0.66667 -1.33333,-0.75"
         style="fill:none;stroke:#231f20;stroke-width:0.6;stroke-linecap:butt;stroke-linejoin:miter;stroke-miterlimit:4;stroke-dasharray:none;stroke-opacity:1" /><path
         id="path726"
         d="m 678.74998,337.16668 c 0.91667,-0.0833 1.83334,0 2.66667,-0.33333 0.83333,-0.25 1.83333,-0.25 2.75,0 0.75,0.25 1.58333,0.41667 2.33333,0.83333 -1.91666,-0.0833 -3.83333,0.41667 -5.83333,-0.0833 -0.66667,-0.16667 -1.33333,-0.16667 -1.91667,-0.41667 z"
         style="fill:#231f20;fill-opacity:1;fill-rule:nonzero;stroke:none;stroke-width:1.33333" /><path
         id="path808"
         d="m 676.74998,327.50002 c -0.33333,-0.25 -0.75,0 -1.16666,0 0.25,0 0.58333,0.16666 0.83333,0.0833"
         style="fill:none;stroke:#231f20;stroke-width:0.46668;stroke-linecap:butt;stroke-linejoin:miter;stroke-miterlimit:4;stroke-dasharray:none;stroke-opacity:1" /><path
         id="path809"
         d="m 680.99998,326.75002 c 0,-0.0833 -0.0833,-0.0833 0,0 -0.0833,0 0,0 0,0 -0.25,0.25 -0.58333,0.25 -0.75,0.5"
         style="fill:none;stroke:#231f20;stroke-width:0.46668;stroke-linecap:butt;stroke-linejoin:miter;stroke-miterlimit:4;stroke-dasharray:none;stroke-opacity:1" /><path
         id="path810"
         d="m 679.99998,330.00002 c 0.25,-0.0833 0.5,0.0833 0.66667,0.25 0,-0.0833 0.41667,0.5 0.41667,0.66666 0,-0.0833 -1.08334,0.25 -1.41667,-0.25"
         style="fill:none;stroke:#231f20;stroke-width:0.46668;stroke-linecap:butt;stroke-linejoin:miter;stroke-miterlimit:4;stroke-dasharray:none;stroke-opacity:1" /><path
         id="path811"
         d="m 676.66665,330.41668 c 0,-0.0833 0.0833,-0.0833 0,0 0.0833,-0.0833 0,-0.0833 0,0 0.16667,-0.25 0.91667,-0.66666 1.16667,-0.75"
         style="fill:none;stroke:#231f20;stroke-width:0.46668;stroke-linecap:butt;stroke-linejoin:miter;stroke-miterlimit:4;stroke-dasharray:none;stroke-opacity:1" /><path
         id="path812"
         d="m 676.58332,330.75002 c -0.25,0.25 -0.41667,1.08333 -0.66667,1.33333"
         style="fill:none;stroke:#231f20;stroke-width:0.46668;stroke-linecap:butt;stroke-linejoin:miter;stroke-miterlimit:4;stroke-dasharray:none;stroke-opacity:1" /><path
         id="path813"
         d="m 676.83332,325.50002 c 0.41666,0.25 0.75,0.25 1.08333,0.33333"
         style="fill:none;stroke:#231f20;stroke-width:0.46668;stroke-linecap:butt;stroke-linejoin:miter;stroke-miterlimit:4;stroke-dasharray:none;stroke-opacity:1" /><path
         id="path814"
         d="m 680.08332,324.25002 c -0.33334,0.0833 -0.25,0.33333 -0.58334,0.41666"
         style="fill:none;stroke:#231f20;stroke-width:0.46668;stroke-linecap:butt;stroke-linejoin:miter;stroke-miterlimit:4;stroke-dasharray:none;stroke-opacity:1" /><path
         id="path827"
         d="m 677.64712,332.73308 c 0.77474,2.64844 1.10286,0.26694 1.10286,0.26694 -0.009,-0.0827 0.5026,-0.30404 0.51303,-0.38672 -0.36589,2.88672 -0.86589,2.92578 0.23697,5.40885 -2.16666,0.0833 -0.86718,0.11 -1.47656,-0.0684 -0.082,0.009 -0.0339,0.18295 0,0 0.70312,-1.49739 0.112,-2.98503 0.026,-4.40169"
         style="fill:#231f20;fill-opacity:1;fill-rule:nonzero;stroke:#231f20;stroke-width:0.46668;stroke-linecap:butt;stroke-linejoin:miter;stroke-miterlimit:4;stroke-dasharray:none;stroke-opacity:1" /><path
         id="path842"
         d="m 681.91665,330.08335 c -0.16667,-0.25 -1,-0.58333 -1.33333,-0.58333"
         style="fill:none;stroke:#231f20;stroke-width:0.333333;stroke-linecap:butt;stroke-linejoin:miter;stroke-miterlimit:4;stroke-dasharray:none;stroke-opacity:1" /><path
         id="path843"
         d="m 676.41665,331.33335 c 0.33333,-0.0833 1.08333,-0.66667 1.25,-0.91667"
         style="fill:none;stroke:#231f20;stroke-width:0.333333;stroke-linecap:butt;stroke-linejoin:miter;stroke-miterlimit:4;stroke-dasharray:none;stroke-opacity:1" /><path
         id="path844"
         d="m 680.24998,324.75002 c -0.25,0.0833 -0.41666,0.33333 -0.66666,0.33333"
         style="fill:none;stroke:#231f20;stroke-width:0.333333;stroke-linecap:butt;stroke-linejoin:miter;stroke-miterlimit:4;stroke-dasharray:none;stroke-opacity:1" /><path
         id="path845"
         d="m 677.41665,326.00002 c 0.0833,0.16666 0.33333,0.0833 0.41667,0.16666"
         style="fill:none;stroke:#231f20;stroke-width:0.199987;stroke-linecap:butt;stroke-linejoin:miter;stroke-miterlimit:4;stroke-dasharray:none;stroke-opacity:1" /><path
         id="path846"
         d="m 676.16665,327.08335 c 0.33333,0 0.66667,0 1,0"
         style="fill:none;stroke:#231f20;stroke-width:0.333333;stroke-linecap:butt;stroke-linejoin:miter;stroke-miterlimit:4;stroke-dasharray:none;stroke-opacity:1" /><path
         id="path847"
         d="m 676.24998,328.08335 c 0.25,0 0.5,0.0833 0.75,-0.0833"
         style="fill:none;stroke:#231f20;stroke-width:0.333333;stroke-linecap:butt;stroke-linejoin:miter;stroke-miterlimit:4;stroke-dasharray:none;stroke-opacity:1" /><path
         id="path848"
         d="m 677.58332,325.33335 c 0.0833,0 0.0833,0 0.16666,0"
         style="fill:none;stroke:#231f20;stroke-width:0.199987;stroke-linecap:butt;stroke-linejoin:miter;stroke-miterlimit:4;stroke-dasharray:none;stroke-opacity:1" /><path
         id="path868"
         d="m 680.49998,324.83335 c -0.25,0.33333 -0.5,0.75 -0.91666,0.91667"
         style="fill:none;stroke:#231f20;stroke-width:0.199987;stroke-linecap:butt;stroke-linejoin:miter;stroke-miterlimit:4;stroke-dasharray:none;stroke-opacity:1" /><path
         id="path869"
         d="m 681.08332,327.16668 c -0.5,0.33334 -1,0.58334 -1.58334,0.66667"
         style="fill:none;stroke:#231f20;stroke-width:0.199987;stroke-linecap:butt;stroke-linejoin:miter;stroke-miterlimit:4;stroke-dasharray:none;stroke-opacity:1" /></g></g></svg>
