<?xml version="1.0" encoding="UTF-8" standalone="no"?>
<!-- Created with Inkscape (http://www.inkscape.org/) -->

<svg
   width="2.1593182mm"
   height="2.8847816mm"
   viewBox="0 0 2.1593182 2.8847816"
   version="1.1"
   id="svg1"
   xml:space="preserve"
   xmlns="http://www.w3.org/2000/svg"
   xmlns:svg="http://www.w3.org/2000/svg"><defs
     id="defs1" /><g
     id="g1"
     transform="matrix(0.26458333,0,0,0.26458333,-180.28046,-95.874488)"><g
       id="g14"><path
         id="path748"
         d="m 682.08332,362.95835 c 0.5,-0.5 1.25,-0.75 1.91666,-0.5 0.58334,0.25 0.8711,0.94596 1.08334,1.58333 0.75,2.25 0.25,4.16667 0,6.41667 0.0391,-0.23243 -0.16927,0.75781 -0.66667,1.91667 -0.16667,0.25 0,0.58333 -0.0833,0.75 -0.33334,0.25 -0.83334,0 -1.25,0.0833 0,-0.0833 0,-0.25 0,-0.33333 0.25,-0.16667 0.41666,-0.33334 0.5,-0.58334 0.66666,-1.66666 1.25,-3.33333 1.41666,-5.08333 0.16667,-1.16667 0.16667,-2.33333 -0.16666,-3.5 -0.91667,-0.41667 -2,-0.41667 -3,-0.5"
         style="fill:#231f20;fill-opacity:1;fill-rule:nonzero;stroke:none;stroke-width:1.33333" /><path
         id="path749"
         d="m 684.99998,364.79168 c 0.91667,-0.91666 2.08334,-1.91666 3.41667,-1.41666 0.83333,0.33333 1.25,1.25 1.08333,2.16666 -0.33333,-0.33333 -0.33333,-0.83333 -0.75,-1.08333 -1.25,-0.58333 -2.58333,-0.16667 -3.75,0.33333 z"
         style="fill:#231f20;fill-opacity:1;fill-rule:nonzero;stroke:none;stroke-width:1.33333" /><path
         id="path750"
         d="m 685.41665,365.12502 c 0.5,0 1.08333,-0.0833 1.58333,0.0833 0.41667,0.0833 0.66667,0.58333 0.83334,1 0.0833,0.5 0.25,1 0,1.5 -0.33334,0.41667 -0.83334,0.66667 -1.16667,1 0,-0.83333 0.75,-1.66667 0.33333,-2.5 -0.25,-0.58333 -0.91666,-0.58333 -1.5,-0.83333"
         style="fill:#231f20;fill-opacity:1;fill-rule:nonzero;stroke:none;stroke-width:1.33333" /><path
         id="path751"
         d="m 685.16665,364.62502 c -0.91667,-0.41667 -1.91667,-0.5 -2.83333,-0.41667 -0.58334,0 -0.83334,0.58333 -0.83334,1.08333 -0.0833,0.58334 -0.33333,1.41667 0.25,1.83334 0,-0.41667 -0.0833,-0.91667 0.0833,-1.25 0.33333,-0.66667 1.16666,-0.91667 2,-1 0.33333,0 0.67969,0.0176 1.08333,-0.0833 0.33333,-0.0833 0.0833,-0.16666 0.25,-0.16666"
         style="fill:#231f20;fill-opacity:1;fill-rule:nonzero;stroke:none;stroke-width:1.33333" /><path
         id="path761"
         d="m 683.54165,373.08335 c 0.16667,0 0.41667,0.0833 0.58333,0 0.58334,-0.5 1.08334,-0.66667 1.83334,-0.58333 -0.0833,0.16666 0.16666,0.0833 0.16666,0.25 0.0833,0 0.16667,0 0.25,0 0.16667,0.16666 0.25,0.33333 0.41667,0.5 -0.33333,0.0833 -0.5,-0.25 -0.75,-0.25 -0.66667,-0.16667 -1.41667,-0.25 -2.08333,0"
         style="fill:#231f20;fill-opacity:1;fill-rule:nonzero;stroke:none;stroke-width:1.33333" /></g></g></svg>
