<?xml version="1.0" encoding="UTF-8" standalone="no"?>
<!-- Created with Inkscape (http://www.inkscape.org/) -->

<svg
   width="2.8745894mm"
   height="2.9186876mm"
   viewBox="0 0 2.8745895 2.9186875"
   version="1.1"
   id="svg1"
   xml:space="preserve"
   xmlns="http://www.w3.org/2000/svg"
   xmlns:svg="http://www.w3.org/2000/svg"><defs
     id="defs1" /><g
     id="g1"
     transform="matrix(0.26458333,0,0,0.26458333,-184.2561,-231.06117)"><g
       id="g10"><text
         id="text804"
         xml:space="preserve"
         x="696.56769"
         y="885.04688"
         style="font-size:16px;stroke-width:1.33333"><tspan
           id="tspan804"
           style="font-variant:normal;font-weight:700;font-size:18.6667px;font-family:Arial;writing-mode:lr-tb;fill:#231f20;fill-opacity:1;fill-rule:nonzero;stroke:none;stroke-width:1.33333"
           x="696.56769"
           y="885.04688">+</tspan></text><path
         id="path804"
         d="m 697.16665,874.83334 c -0.42317,0 -0.76563,-0.34246 -0.76563,-0.76563 0,-0.42317 0.34246,-0.76563 0.76563,-0.76563 0.42317,0 0.76563,0.34246 0.76563,0.76563 0,0.42317 -0.34246,0.76563 -0.76563,0.76563 z"
         style="fill:#231f20;fill-opacity:1;fill-rule:nonzero;stroke:none;stroke-width:1.33333" /><path
         id="path805"
         d="m 706.33332,874.83334 c -0.42318,0 -0.76563,-0.34246 -0.76563,-0.76563 0,-0.42317 0.34245,-0.76563 0.76563,-0.76563 0.42317,0 0.76562,0.34246 0.76562,0.76563 0,0.42317 -0.34245,0.76563 -0.76562,0.76563 z"
         style="fill:#231f20;fill-opacity:1;fill-rule:nonzero;stroke:none;stroke-width:1.33333" /><path
         id="path806"
         d="m 697.33332,884.33334 c -0.42318,0 -0.76563,-0.34246 -0.76563,-0.76563 0,-0.42317 0.34245,-0.76563 0.76563,-0.76563 0.42317,0 0.76562,0.34246 0.76562,0.76563 0,0.42317 -0.34245,0.76563 -0.76562,0.76563 z"
         style="fill:#231f20;fill-opacity:1;fill-rule:nonzero;stroke:none;stroke-width:1.33333" /><path
         id="path807"
         d="m 706.49998,884.33334 c -0.42317,0 -0.76562,-0.34246 -0.76562,-0.76563 0,-0.42317 0.34245,-0.76563 0.76562,-0.76563 0.42318,0 0.76563,0.34246 0.76563,0.76563 0,0.42317 -0.34245,0.76563 -0.76563,0.76563 z"
         style="fill:#231f20;fill-opacity:1;fill-rule:nonzero;stroke:none;stroke-width:1.33333" /></g></g></svg>
