<?xml version="1.0" encoding="UTF-8" standalone="no"?>
<!-- Created with Inkscape (http://www.inkscape.org/) -->

<svg
   width="13.535789mm"
   height="3.6285567mm"
   viewBox="0 0 13.53579 3.6285567"
   version="1.1"
   id="svg1"
   xml:space="preserve"
   xmlns="http://www.w3.org/2000/svg"
   xmlns:svg="http://www.w3.org/2000/svg"><defs
     id="defs1" /><g
     id="g1"
     transform="matrix(0.26458333,0,0,0.26458333,-179.29275,-63.302424)"><g
       id="g27"><path
         id="path181"
         d="m 679.99998,243.66669 c -1.13541,0 -2.05729,-0.92058 -2.05729,-2.05664 0,-1.13542 0.92188,-2.05599 2.05729,-2.05599 1.13542,0 2.05599,0.92057 2.05599,2.05599 0,1.13606 -0.92057,2.05664 -2.05599,2.05664 z"
         style="fill:#231f20;fill-opacity:1;fill-rule:nonzero;stroke:#231f20;stroke-width:0.6016;stroke-linecap:butt;stroke-linejoin:miter;stroke-miterlimit:4;stroke-dasharray:none;stroke-opacity:1" /><path
         id="path182"
         d="m 697.99998,243.66669 c -1.13541,0 -2.05729,-0.92058 -2.05729,-2.05664 0,-1.13542 0.92188,-2.05599 2.05729,-2.05599 1.13542,0 2.05599,0.92057 2.05599,2.05599 0,1.13606 -0.92057,2.05664 -2.05599,2.05664 z"
         style="fill:#231f20;fill-opacity:1;fill-rule:nonzero;stroke:#231f20;stroke-width:0.6016;stroke-linecap:butt;stroke-linejoin:miter;stroke-miterlimit:4;stroke-dasharray:none;stroke-opacity:1" /><path
         id="path183"
         d="m 716.55468,243.66669 c -1.13543,0 -2.0547,-0.92058 -2.0547,-2.05664 0,-1.13542 0.91927,-2.05599 2.0547,-2.05599 1.1367,0 2.05728,0.92057 2.05728,2.05599 0,1.13606 -0.92058,2.05664 -2.05728,2.05664 z"
         style="fill:#231f20;fill-opacity:1;fill-rule:nonzero;stroke:#231f20;stroke-width:0.6016;stroke-linecap:butt;stroke-linejoin:miter;stroke-miterlimit:4;stroke-dasharray:none;stroke-opacity:1" /><path
         id="path184"
         d="m 688.44529,252.66669 c -1.13671,0 -2.05728,-0.92058 -2.05728,-2.05664 0,-1.13542 0.92057,-2.05599 2.05728,-2.05599 1.13543,0 2.05469,0.92057 2.05469,2.05599 0,1.13606 -0.91926,2.05664 -2.05469,2.05664 z"
         style="fill:#231f20;fill-opacity:1;fill-rule:nonzero;stroke:#231f20;stroke-width:0.6016;stroke-linecap:butt;stroke-linejoin:miter;stroke-miterlimit:4;stroke-dasharray:none;stroke-opacity:1" /><path
         id="path185"
         d="m 708.22134,252.66669 c -1.13542,0 -2.05469,-0.92058 -2.05469,-2.05664 0,-1.13542 0.91927,-2.05599 2.05469,-2.05599 1.13671,0 2.05728,0.92057 2.05728,2.05599 0,1.13606 -0.92057,2.05664 -2.05728,2.05664 z"
         style="fill:#231f20;fill-opacity:1;fill-rule:nonzero;stroke:#231f20;stroke-width:0.6016;stroke-linecap:butt;stroke-linejoin:miter;stroke-miterlimit:4;stroke-dasharray:none;stroke-opacity:1" /><path
         id="path186"
         d="m 726.44529,252.66669 c -1.13671,0 -2.05728,-0.92058 -2.05728,-2.05664 0,-1.13542 0.92057,-2.05599 2.05728,-2.05599 1.13543,0 2.05469,0.92057 2.05469,2.05599 0,1.13606 -0.91926,2.05664 -2.05469,2.05664 z"
         style="fill:#231f20;fill-opacity:1;fill-rule:nonzero;stroke:#231f20;stroke-width:0.6016;stroke-linecap:butt;stroke-linejoin:miter;stroke-miterlimit:4;stroke-dasharray:none;stroke-opacity:1" /></g></g></svg>
