<?xml version="1.0" encoding="UTF-8" standalone="no"?>
<!-- Created with Inkscape (http://www.inkscape.org/) -->

<svg
   width="5.9681559mm"
   height="6.0017223mm"
   viewBox="0 0 5.9681559 6.0017222"
   version="1.1"
   id="svg1"
   xml:space="preserve"
   xmlns="http://www.w3.org/2000/svg"
   xmlns:svg="http://www.w3.org/2000/svg"><defs
     id="defs1" /><g
     id="g1"
     transform="matrix(0.26458333,0,0,0.26458333,-182.97665,-70.534959)"><g
       id="g26"><path
         id="path406"
         d="m 706.14192,282.96551 c -3.10548,1.69532 -6.99871,0.55208 -8.69402,-2.55208 -1.69792,-3.10546 -0.55469,-6.99869 2.55078,-8.69466 3.10548,-1.69662 6.9987,-0.55403 8.69401,2.55078 1.69661,3.10547 0.55469,6.99804 -2.55077,8.69596 z"
         style="fill:#f2f2f2;fill-opacity:1;fill-rule:evenodd;stroke:#f2f2f2;stroke-width:1.1664;stroke-linecap:butt;stroke-linejoin:miter;stroke-miterlimit:4;stroke-dasharray:none;stroke-opacity:1" /><path
         id="path407"
         d="m 699.93878,271.72073 c 0,0 1.33204,2.43945 1.33204,2.43945 0,0 1.23176,2.25195 1.23176,2.25195 -0.62109,0.3698 -0.52473,1.04753 -0.52473,1.04753 0,0 -5.30989,-0.29688 -5.30989,-0.29688 -0.0924,-3.51367 3.27082,-5.44205 3.27082,-5.44205 z"
         style="fill:#231f20;fill-opacity:1;fill-rule:nonzero;stroke:#231f20;stroke-width:1.1664;stroke-linecap:butt;stroke-linejoin:miter;stroke-miterlimit:4;stroke-dasharray:none;stroke-opacity:1" /><path
         id="path408"
         d="m 699.71092,282.78843 c 0,0 2.55078,2.32812 2.55078,2.32812 0,0 3.84246,-2.16666 3.84246,-2.16666 0,0 -2.53647,-4.59896 -2.53647,-4.59896 0,0 -0.83073,0.0651 -0.83073,0.0651 0,0 -3.02604,4.3724 -3.02604,4.3724 z"
         style="fill:#231f20;fill-opacity:1;fill-rule:nonzero;stroke:#231f20;stroke-width:1.1664;stroke-linecap:butt;stroke-linejoin:miter;stroke-miterlimit:4;stroke-dasharray:none;stroke-opacity:1" /><path
         id="path409"
         d="m 703.75258,276.51305 c 0,0 2.62891,-4.6797 2.62891,-4.6797 0,0 2.98959,2.04427 2.98959,2.04427 0,0 0.0691,3.63997 0.0691,3.63997 0,0 -5.33984,0.17644 -5.33984,0.17644"
         style="fill:#231f20;fill-opacity:1;fill-rule:nonzero;stroke:#231f20;stroke-width:1.1664;stroke-linecap:butt;stroke-linejoin:miter;stroke-miterlimit:4;stroke-dasharray:none;stroke-opacity:1" /><path
         id="path410"
         d="m 702.60805,276.38414 c -0.005,-0.008 -0.0107,-0.0176 -0.0156,-0.0267 -0.0156,0.007 -0.0325,0.0143 -0.0481,0.0228 -0.003,10e-4 -0.008,0.005 -0.0107,0.007 0.0352,0.0183 0.0743,-0.003 0.0743,-0.003 z"
         style="fill:#231f20;fill-opacity:1;fill-rule:evenodd;stroke:#231f20;stroke-width:1.1664;stroke-linecap:butt;stroke-linejoin:miter;stroke-miterlimit:4;stroke-dasharray:none;stroke-opacity:1" /><path
         id="path411"
         d="m 702.59244,276.35745 c 0.005,0.009 0.0107,0.0183 0.0156,0.0267 0,0 -0.0391,0.0215 -0.0743,0.003 -0.52213,0.29361 -0.71355,0.95247 -0.42448,1.47981 0.28907,0.5306 0.95573,0.72591 1.48699,0.43686 0.52994,-0.29102 0.72525,-0.95639 0.43489,-1.48764 -0.28125,-0.51562 -0.91667,-0.71354 -1.4388,-0.45898 z"
         style="fill:#231f20;fill-opacity:1;fill-rule:evenodd;stroke:#231f20;stroke-width:1.1664;stroke-linecap:butt;stroke-linejoin:miter;stroke-miterlimit:4;stroke-dasharray:none;stroke-opacity:1" /><path
         id="path412"
         d="m 706.14192,282.96551 c -3.10548,1.69532 -6.99871,0.55208 -8.69402,-2.55208 -1.69792,-3.10546 -0.55469,-6.99869 2.55078,-8.69466 1.85026,-1.01042 3.97786,-1.01432 5.75652,-0.19531 1.20702,0.55599 2.2526,1.49088 2.93749,2.74609 1.69661,3.10547 0.55469,6.99804 -2.55077,8.69596 z m -13.78516,-8.22981 c 0,0 7.51041,13.74544 7.51041,13.74544 0,0 13.46355,-7.35417 13.46355,-7.35417 0,0 -7.50912,-13.74674 -7.50912,-13.74674 z"
         style="fill:#ffffff;fill-opacity:1;fill-rule:evenodd;stroke:#ffffff;stroke-width:1.1664;stroke-linecap:butt;stroke-linejoin:miter;stroke-miterlimit:4;stroke-dasharray:none;stroke-opacity:1" /><path
         id="path413"
         d="m 706.14192,282.96551 c -3.10548,1.69532 -6.99871,0.55208 -8.69402,-2.55208 -1.69792,-3.10546 -0.55469,-6.99869 2.55078,-8.69466 3.10548,-1.69662 6.9987,-0.55403 8.69401,2.55078 1.69661,3.10547 0.55469,6.99804 -2.55077,8.69596 z"
         style="fill:#f2f2f2;fill-opacity:1;fill-rule:evenodd;stroke:#f2f2f2;stroke-width:1.1664;stroke-linecap:butt;stroke-linejoin:miter;stroke-miterlimit:4;stroke-dasharray:none;stroke-opacity:1;paint-order:stroke fill markers" /><path
         id="path414"
         d="m 706.14192,282.96551 c -3.10548,1.69532 -6.99871,0.55208 -8.69402,-2.55208 -1.69792,-3.10546 -0.55469,-6.99869 2.55078,-8.69466 3.10548,-1.69662 6.9987,-0.55403 8.69401,2.55078 1.69661,3.10547 0.55469,6.99804 -2.55077,8.69596 z"
         style="fill:none;stroke:#f2f2f2;stroke-width:1.1664;stroke-linecap:butt;stroke-linejoin:miter;stroke-miterlimit:4;stroke-dasharray:none;stroke-opacity:1" /><path
         id="path415"
         d="m 699.93878,271.72073 c 0,0 1.33204,2.43945 1.33204,2.43945 0,0 1.23176,2.25195 1.23176,2.25195 -0.62109,0.3698 -0.52473,1.04753 -0.52473,1.04753 0,0 -5.30989,-0.29688 -5.30989,-0.29688 -0.0924,-3.51367 3.27082,-5.44205 3.27082,-5.44205 z"
         style="fill:#231f20;fill-opacity:1;fill-rule:nonzero;stroke:#231f20;stroke-width:1.1664;stroke-linecap:butt;stroke-linejoin:miter;stroke-miterlimit:4;stroke-dasharray:none;stroke-opacity:1" /><path
         id="path416"
         d="m 699.71092,282.78843 c 0,0 2.55078,2.32812 2.55078,2.32812 0,0 3.84246,-2.16666 3.84246,-2.16666 0,0 -2.53647,-4.59896 -2.53647,-4.59896 0,0 -0.83073,0.0651 -0.83073,0.0651 0,0 -3.02604,4.3724 -3.02604,4.3724 z"
         style="fill:#231f20;fill-opacity:1;fill-rule:nonzero;stroke:#231f20;stroke-width:1.1664;stroke-linecap:butt;stroke-linejoin:miter;stroke-miterlimit:4;stroke-dasharray:none;stroke-opacity:1" /><path
         id="path417"
         d="m 703.75258,276.51305 c 0,0 2.62891,-4.6797 2.62891,-4.6797 0,0 2.98959,2.04427 2.98959,2.04427 0,0 0.0691,3.63997 0.0691,3.63997 0,0 -5.33984,0.17644 -5.33984,0.17644"
         style="fill:#231f20;fill-opacity:1;fill-rule:nonzero;stroke:#231f20;stroke-width:1.1664;stroke-linecap:butt;stroke-linejoin:miter;stroke-miterlimit:4;stroke-dasharray:none;stroke-opacity:1" /><path
         id="path418"
         d="m 702.60805,276.38414 c -0.005,-0.008 -0.0107,-0.0176 -0.0156,-0.0267 -0.0156,0.007 -0.0325,0.0143 -0.0481,0.0228 -0.003,10e-4 -0.008,0.005 -0.0107,0.007 0.0352,0.0183 0.0743,-0.003 0.0743,-0.003 z"
         style="fill:#231f20;fill-opacity:1;fill-rule:evenodd;stroke:#231f20;stroke-width:1.1664;stroke-linecap:butt;stroke-linejoin:miter;stroke-miterlimit:4;stroke-dasharray:none;stroke-opacity:1" /><path
         id="path419"
         d="m 702.59244,276.35745 c 0.005,0.009 0.0107,0.0183 0.0156,0.0267 0,0 -0.0391,0.0215 -0.0743,0.003 -0.52213,0.29361 -0.71355,0.95247 -0.42448,1.47981 0.28907,0.5306 0.95573,0.72591 1.48699,0.43686 0.52994,-0.29102 0.72525,-0.95639 0.43489,-1.48764 -0.28125,-0.51562 -0.91667,-0.71354 -1.4388,-0.45898 z"
         style="fill:#231f20;fill-opacity:1;fill-rule:evenodd;stroke:#231f20;stroke-width:1.1664;stroke-linecap:butt;stroke-linejoin:miter;stroke-miterlimit:4;stroke-dasharray:none;stroke-opacity:1" /><path
         id="path420"
         d="m 706.14192,282.96551 c -3.10548,1.69532 -6.99871,0.55208 -8.69402,-2.55208 -1.69792,-3.10546 -0.55469,-6.99869 2.55078,-8.69466 1.85026,-1.01042 3.97786,-1.01432 5.75652,-0.19531 1.20702,0.55599 2.2526,1.49088 2.93749,2.74609 1.69661,3.10547 0.55469,6.99804 -2.55077,8.69596 z m -13.78516,-8.22981 c 0,0 7.51041,13.74544 7.51041,13.74544 0,0 13.46355,-7.35417 13.46355,-7.35417 0,0 -7.50912,-13.74674 -7.50912,-13.74674 z"
         style="fill:#ffffff;fill-opacity:1;fill-rule:evenodd;stroke:#ffffff;stroke-width:1.1664;stroke-linecap:butt;stroke-linejoin:miter;stroke-miterlimit:4;stroke-dasharray:none;stroke-opacity:1" /><path
         id="path421"
         d="m 706.14192,282.96551 c -3.10548,1.69532 -6.99871,0.55208 -8.69402,-2.55208 -1.69792,-3.10546 -0.55469,-6.99869 2.55078,-8.69466 3.10548,-1.69662 6.9987,-0.55403 8.69401,2.55078 1.69661,3.10547 0.55469,6.99804 -2.55077,8.69596 z"
         style="fill:none;stroke:#f2f2f2;stroke-width:1.1664;stroke-linecap:butt;stroke-linejoin:miter;stroke-miterlimit:4;stroke-dasharray:none;stroke-opacity:1" /><path
         id="path422"
         d="m 711.47525,273.91863 c 0,0 0,-2.67317 0,-2.67317 0,0 -2.22267,0.0293 -2.22267,0.0293 0,0 0.5573,2.61459 0.5573,2.61459"
         style="fill:none;stroke:#ffffff;stroke-width:0.666667;stroke-linecap:butt;stroke-linejoin:miter;stroke-miterlimit:4;stroke-dasharray:none;stroke-opacity:1" /></g></g></svg>
