<?xml version="1.0" encoding="UTF-8" standalone="no"?>
<!-- Created with Inkscape (http://www.inkscape.org/) -->

<svg
   width="3.4622622mm"
   height="2.8857484mm"
   viewBox="0 0 3.4622622 2.8857483"
   version="1.1"
   id="svg1"
   xml:space="preserve"
   xmlns="http://www.w3.org/2000/svg"
   xmlns:svg="http://www.w3.org/2000/svg"><defs
     id="defs1" /><g
     id="g1"
     transform="matrix(0.26458333,0,0,0.26458333,-184.32806,-98.114084)"><g
       id="g23"><path
         id="path191"
         d="m 696.91144,377.32098 c -0.112,-0.3737 -0.1068,-1.55208 0.14974,-2.12826 0.29818,-0.67188 0.4935,-0.87369 1.23178,-1.64257 0.73828,-0.76888 1.73437,-1.82552 2.38932,-2.16537 0.65494,-0.33984 0.86328,0.14258 1.1224,0.39324 0.26041,0.25 0.39842,0.49609 -0.0208,1.10156 -0.46615,0.67057 -1.16927,1.38476 -1.90886,2.15364 -0.73828,0.76822 -1.35806,1.46614 -2.10546,1.98893 -0.60287,0.42317 -0.75391,0.64453 -0.85808,0.29883 z"
         style="fill:#231f20;fill-opacity:1;fill-rule:nonzero;stroke:#231f20;stroke-width:0.336;stroke-linecap:butt;stroke-linejoin:miter;stroke-miterlimit:4;stroke-dasharray:none;stroke-opacity:1" /><path
         id="path192"
         d="m 707.41796,373.36199 c -1.33464,-1.27213 -1.29038,-1.14192 -3.79819,-2.09309 -1.19009,-0.45183 3.01824,-0.49088 4.72267,1.39584 1.54557,1.71158 1.28776,3.57356 1.0677,4.80533 -0.0795,0.44467 -0.18098,-2.38151 -1.99218,-4.10808 z"
         style="fill:#231f20;fill-opacity:1;fill-rule:nonzero;stroke:#231f20;stroke-width:0.369613;stroke-linecap:butt;stroke-linejoin:miter;stroke-miterlimit:4;stroke-dasharray:none;stroke-opacity:1" /><path
         id="path193"
         d="m 700.05468,374.44468 c 0,0 6.83333,6.66667 6.83333,6.66667"
         style="fill:#231f20;fill-opacity:1;fill-rule:nonzero;stroke:#231f20;stroke-width:1.33333;stroke-linecap:butt;stroke-linejoin:miter;stroke-miterlimit:4;stroke-dasharray:none;stroke-opacity:1" /><path
         id="path194"
         d="m 707.22134,373.11135 c 0,0 -7.58333,8.16667 -7.58333,8.16667"
         style="fill:#231f20;fill-opacity:1;fill-rule:nonzero;stroke:#231f20;stroke-width:1.33333;stroke-linecap:butt;stroke-linejoin:miter;stroke-miterlimit:4;stroke-dasharray:none;stroke-opacity:1" /></g></g></svg>
