<?xml version="1.0" encoding="UTF-8" standalone="no"?>
<!-- Created with Inkscape (http://www.inkscape.org/) -->

<svg
   width="3.0868063mm"
   height="4.2980976mm"
   viewBox="0 0 3.0868063 4.2980975"
   version="1.1"
   id="svg1"
   xml:space="preserve"
   xmlns="http://www.w3.org/2000/svg"
   xmlns:svg="http://www.w3.org/2000/svg"><defs
     id="defs1" /><g
     id="g1"
     transform="matrix(0.26458333,0,0,0.26458333,-184.5324,-105.65092)"><g
       id="g22"><path
         id="path195"
         d="m 698.11196,410.63868 c 0,0 5.33333,-3.58333 5.33333,-3.58333 0,0 5,3.58333 5,3.58333 0,0 -1.5,0 -1.5,0 0,0 0,3.41667 0,3.41667 0,0 -7.16667,0 -7.16667,0 0,0 0,-3.41667 0,-3.41667 z"
         style="fill:#231f20;fill-opacity:1;fill-rule:nonzero;stroke:#231f20;stroke-width:0.336;stroke-linecap:butt;stroke-linejoin:miter;stroke-miterlimit:4;stroke-dasharray:none;stroke-opacity:1" /><path
         id="path196"
         d="m 697.44529,414.88868 c 0,0 11.66667,0 11.66667,0"
         style="fill:#231f20;fill-opacity:1;fill-rule:nonzero;stroke:#231f20;stroke-width:1.33333;stroke-linecap:butt;stroke-linejoin:miter;stroke-miterlimit:4;stroke-dasharray:none;stroke-opacity:1" /><path
         id="path197"
         d="m 703.36196,400.13868 c 0,0 0,7 0,7"
         style="fill:#231f20;fill-opacity:1;fill-rule:nonzero;stroke:#231f20;stroke-width:0.666667;stroke-linecap:butt;stroke-linejoin:miter;stroke-miterlimit:4;stroke-dasharray:none;stroke-opacity:1" /><path
         id="path198"
         d="m 703.44529,400.80535 c 0,0 3,2.41667 3,2.41667 0,0 -0.25,2.16666 -0.25,2.16666 0,0 -2.75,-1.16666 -2.75,-1.16666 z"
         style="fill:#231f20;fill-opacity:1;fill-rule:nonzero;stroke:#231f20;stroke-width:0.666667;stroke-linecap:butt;stroke-linejoin:miter;stroke-miterlimit:4;stroke-dasharray:none;stroke-opacity:1" /><path
         id="path199"
         d="m 703.36196,400.16278 c -0.14323,0 -0.26042,-0.11587 -0.26042,-0.25976 0,-0.14324 0.1172,-0.25912 0.26042,-0.25912 0.14193,0 0.25781,0.11586 0.25781,0.25912 0,0.14388 -0.11587,0.25976 -0.25781,0.25976 z"
         style="fill:#231f20;fill-opacity:1;fill-rule:nonzero;stroke:#231f20;stroke-width:0.666667;stroke-linecap:butt;stroke-linejoin:miter;stroke-miterlimit:4;stroke-dasharray:none;stroke-opacity:1" /></g></g></svg>
