<?xml version="1.0" encoding="UTF-8" standalone="no"?>
<!-- Created with Inkscape (http://www.inkscape.org/) -->

<svg
   width="5.1946578mm"
   height="2.5047264mm"
   viewBox="0 0 5.1946578 2.5047264"
   version="1.1"
   id="svg1"
   xml:space="preserve"
   xmlns="http://www.w3.org/2000/svg"
   xmlns:svg="http://www.w3.org/2000/svg"><defs
     id="defs1" /><g
     id="g1"
     transform="matrix(0.26458333,0,0,0.26458333,-183.44127,-115.48763)"><g
       id="g21"><path
         id="path200"
         d="m 708.09764,443.30535 c 1.12761,0 2.04037,-0.91405 2.04037,-2.04101 0,0 0,0 0,0 0,-1.1276 -0.91276,-2.04232 -2.04037,-2.04232 0,0 -9.5,0 -9.5,0 -1.1276,0 -2.04296,0.91472 -2.04296,2.04232 0,0 0,0 0,0 0,1.12696 0.91536,2.04101 2.04296,2.04101 z"
         style="fill:none;stroke:#231f20;stroke-width:0.800013;stroke-linecap:butt;stroke-linejoin:miter;stroke-miterlimit:4;stroke-dasharray:none;stroke-opacity:1" /><path
         id="path201"
         d="m 708.22134,445.55535 c 2.39323,0 4.33334,-1.94009 4.33334,-4.33333 0,0 0,0 0,0 0,-2.39323 -1.94011,-4.33334 -4.33334,-4.33334 0,0 -10.16666,0 -10.16666,0 -2.39324,0 -4.33334,1.94011 -4.33334,4.33334 0,0 0,0 0,0 0,2.39324 1.9401,4.33333 4.33334,4.33333 z"
         style="fill:none;stroke:#231f20;stroke-width:0.800013;stroke-linecap:butt;stroke-linejoin:miter;stroke-miterlimit:4;stroke-dasharray:none;stroke-opacity:1" /></g></g></svg>
