<?xml version="1.0" encoding="UTF-8" standalone="no"?>
<!-- Created with Inkscape (http://www.inkscape.org/) -->

<svg
   width="2.6455891mm"
   height="2.1386447mm"
   viewBox="0 0 2.6455891 2.1386447"
   version="1.1"
   id="svg1"
   xml:space="preserve"
   xmlns="http://www.w3.org/2000/svg"
   xmlns:svg="http://www.w3.org/2000/svg"><defs
     id="defs1" /><g
     id="g1"
     transform="matrix(0.26458333,0,0,0.26458333,-184.77437,-124.39787)"><g
       id="g20"><path
         id="path202"
         d="m 706.44529,478.00001 c -0.92317,0 -1.67057,-0.7474 -1.67057,-1.67057 0,-0.92188 0.7474,-1.66992 1.67057,-1.66992 0.92188,0 1.66928,0.74804 1.66928,1.66992 0,0.92317 -0.7474,1.67057 -1.66928,1.67057 z"
         style="fill:#231f20;fill-opacity:1;fill-rule:nonzero;stroke:#231f20;stroke-width:0.488667;stroke-linecap:butt;stroke-linejoin:miter;stroke-miterlimit:4;stroke-dasharray:none;stroke-opacity:1" /><path
         id="path203"
         d="m 700.27472,478.00392 c -0.92318,0 -1.67056,-0.74805 -1.67056,-1.67057 0,-0.92252 0.74738,-1.67058 1.67056,-1.67058 0.92188,0 1.67057,0.74806 1.67057,1.67058 0,0.92252 -0.74869,1.67057 -1.67057,1.67057 z"
         style="fill:#231f20;fill-opacity:1;fill-rule:nonzero;stroke:#231f20;stroke-width:0.488667;stroke-linecap:butt;stroke-linejoin:miter;stroke-miterlimit:4;stroke-dasharray:none;stroke-opacity:1" /><path
         id="path204"
         d="m 703.36196,473.75001 c -0.92318,0 -1.67058,-0.7474 -1.67058,-1.67057 0,-0.92188 0.7474,-1.66992 1.67058,-1.66992 0.92188,0 1.66928,0.74804 1.66928,1.66992 0,0.92317 -0.7474,1.67057 -1.66928,1.67057 z"
         style="fill:#231f20;fill-opacity:1;fill-rule:nonzero;stroke:#231f20;stroke-width:0.488667;stroke-linecap:butt;stroke-linejoin:miter;stroke-miterlimit:4;stroke-dasharray:none;stroke-opacity:1" /></g></g></svg>
