<?xml version="1.0" encoding="UTF-8" standalone="no"?>
<!-- Created with Inkscape (http://www.inkscape.org/) -->

<svg
   width="3.324393mm"
   height="3.2943583mm"
   viewBox="0 0 3.324393 3.2943582"
   version="1.1"
   id="svg1"
   xml:space="preserve"
   xmlns="http://www.w3.org/2000/svg"
   xmlns:svg="http://www.w3.org/2000/svg"><defs
     id="defs1" /><g
     id="g1"
     transform="matrix(0.26458333,0,0,0.26458333,-184.45949,-132.31464)"><g
       id="g19"><path
         id="path205"
         d="m 697.55728,500.50783 c 1.04557,1.28254 3.02344,2.04036 6.09374,2.04036 3.07032,0 5.03516,-0.7194 5.54818,-2.04036"
         style="fill:none;stroke:#231f20;stroke-width:1;stroke-linecap:butt;stroke-linejoin:miter;stroke-miterlimit:4;stroke-dasharray:none;stroke-opacity:1" /><path
         id="path206"
         d="m 697.54946,512.15105 c 1.40626,-1.15104 2.1276,-2.6888 2.41927,-5.74544 0.28907,-3.05664 -1.17708,-4.6621 -2.41145,-5.89778"
         style="fill:none;stroke:#231f20;stroke-width:1;stroke-linecap:butt;stroke-linejoin:miter;stroke-miterlimit:4;stroke-dasharray:none;stroke-opacity:1" /><path
         id="path207"
         d="m 708.88801,512.00001 c -1.18491,-1.15429 -2.38543,-2.53581 -2.11589,-5.5944 0.26953,-3.0586 1.67057,-4.9095 2.57813,-5.99869"
         style="fill:none;stroke:#231f20;stroke-width:1;stroke-linecap:butt;stroke-linejoin:miter;stroke-miterlimit:4;stroke-dasharray:none;stroke-opacity:1" /><path
         id="path208"
         d="m 697.54946,512.15105 c 0.83855,-0.89973 2.75,-2.32356 5.82031,-2.34374 3.07032,-0.0196 4.66928,1.05924 5.51824,2.1927"
         style="fill:none;stroke:#231f20;stroke-width:1;stroke-linecap:butt;stroke-linejoin:miter;stroke-miterlimit:4;stroke-dasharray:none;stroke-opacity:1" /><path
         id="path209"
         d="m 698.83332,501.71941 c 0,0 1.70702,0.74675 1.70702,0.74675 0,0 5.33334,0.16016 5.33334,0.16016 0,0 2.23958,-0.74675 2.23958,-0.74675 0,0 -1.0664,2.0267 -1.0664,2.0267 0,0 -0.16016,4.5332 -0.16016,4.5332 0,0 0.58724,2.08008 0.58724,2.08008 0,0 -2.29297,-0.74675 -2.29297,-0.74675 0,0 -3.78776,0.16016 -3.78776,0.16016 0,0 -2.55989,0.90689 -2.55989,0.90689 0,0 1.0677,-2.61328 1.0677,-2.61328 0,0 0.1068,-4.10677 0.1068,-4.10677 0,0 -1.17448,-2.40039 -1.17448,-2.40039 z"
         style="fill:#231f20;fill-opacity:1;fill-rule:nonzero;stroke:#231f20;stroke-width:1;stroke-linecap:butt;stroke-linejoin:miter;stroke-miterlimit:4;stroke-dasharray:none;stroke-opacity:1" /><path
         id="path210"
         d="m 706.41144,509.18687 c 0,0 0,-6 0,-6 0,0 -6,0 -6,0 0,0 0,6 0,6 z"
         style="fill:#ffffff;fill-opacity:1;fill-rule:nonzero;stroke:none;stroke-width:1.33333" /></g></g></svg>
