<?xml version="1.0" encoding="UTF-8" standalone="no"?>
<!-- Created with Inkscape (http://www.inkscape.org/) -->

<svg
   width="2.0546563mm"
   height="4.0672917mm"
   viewBox="0 0 2.0546563 4.0672917"
   version="1.1"
   id="svg1"
   xml:space="preserve"
   xmlns="http://www.w3.org/2000/svg"
   xmlns:svg="http://www.w3.org/2000/svg"><defs
     id="defs1" /><g
     id="g1"
     transform="matrix(0.26458333,0,0,0.26458333,-184.9968,-149.11888)"><g
       id="g17"><path
         id="path214"
         d="m 702.99998,578.47137 c -1.82292,0 -3.29948,-1.47657 -3.29948,-3.29948 0,-1.82161 1.47656,-3.29948 3.29948,-3.29948 1.82292,0 3.29948,1.47787 3.29948,3.29948 0,1.82291 -1.47656,3.29948 -3.29948,3.29948 z"
         style="fill:none;stroke:#231f20;stroke-width:1;stroke-linecap:butt;stroke-linejoin:miter;stroke-miterlimit:4;stroke-dasharray:none;stroke-opacity:1" /><path
         id="path215"
         d="m 703.16665,567.12241 c 0,0 0,4.66667 0,4.66667"
         style="fill:none;stroke:#231f20;stroke-width:1;stroke-linecap:butt;stroke-linejoin:miter;stroke-miterlimit:4;stroke-dasharray:none;stroke-opacity:1" /><path
         id="path216"
         d="m 706.46613,563.82293 c 0,1.82291 -1.47656,3.29948 -3.29948,3.29948 -1.82292,0 -3.29948,-1.47657 -3.29948,-3.29948 0,-0.0651 10e-4,-0.12893 0.005,-0.1927"
         style="fill:none;stroke:#231f20;stroke-width:1;stroke-linecap:butt;stroke-linejoin:miter;stroke-miterlimit:4;stroke-dasharray:none;stroke-opacity:1" /></g></g></svg>
