<?xml version="1.0" encoding="UTF-8" standalone="no"?>
<!-- Created with Inkscape (http://www.inkscape.org/) -->

<svg
   width="2.512759mm"
   height="4.2881422mm"
   viewBox="0 0 2.512759 4.2881421"
   version="1.1"
   id="svg1"
   xml:space="preserve"
   xmlns="http://www.w3.org/2000/svg"
   xmlns:svg="http://www.w3.org/2000/svg"><defs
     id="defs1" /><g
     id="g1"
     transform="matrix(0.26458333,0,0,0.26458333,-184.82788,-157.48252)"><g
       id="g16"><path
         id="path217"
         d="m 702.99998,610.91668 c -1.82292,0 -3.29948,-1.47656 -3.29948,-3.29948 0,-1.82292 1.47656,-3.29948 3.29948,-3.29948 1.82292,0 3.29948,1.47656 3.29948,3.29948 0,1.82292 -1.47656,3.29948 -3.29948,3.29948 z"
         style="fill:none;stroke:#231f20;stroke-width:1;stroke-linecap:butt;stroke-linejoin:miter;stroke-miterlimit:4;stroke-dasharray:none;stroke-opacity:1" /><path
         id="path218"
         d="m 703.16665,599.56772 c 0,0 0,4.66666 0,4.66666"
         style="fill:none;stroke:#231f20;stroke-width:1;stroke-linecap:butt;stroke-linejoin:miter;stroke-miterlimit:4;stroke-dasharray:none;stroke-opacity:1" /><path
         id="path219"
         d="m 703.19529,595.4258 c 0.31901,1.43358 -0.28645,2.99348 -1.54817,3.6276 -1.07422,0.54036 -2.05339,0.72786 -2.71354,-0.005"
         style="fill:none;stroke:#231f20;stroke-width:1;stroke-linecap:butt;stroke-linejoin:miter;stroke-miterlimit:4;stroke-dasharray:none;stroke-opacity:1" /><path
         id="path220"
         d="m 703.23436,595.26564 c -0.15235,1.34896 0.43489,3.16536 1.72656,3.73568 1.09896,0.48437 2.08854,0.62369 2.70964,-0.14324"
         style="fill:none;stroke:#231f20;stroke-width:1;stroke-linecap:butt;stroke-linejoin:miter;stroke-miterlimit:4;stroke-dasharray:none;stroke-opacity:1" /><path
         id="path221"
         d="m 700.57029,599.43621 c 0,0 5.89975,0 5.89975,0"
         style="fill:none;stroke:#231f20;stroke-width:1;stroke-linecap:butt;stroke-linejoin:miter;stroke-miterlimit:4;stroke-dasharray:none;stroke-opacity:1" /><path
         id="path222"
         d="m 701.76561,599.0534 c 0.68229,-0.44662 1.3164,-1.01172 1.59505,-1.84766 0,0 0.11974,0 0.11974,0 0.0391,0.19791 0.16016,0.39714 0.19922,0.63672 0.0404,0.11974 0.11974,0.23958 0.19922,0.35938 0.31901,0.35806 0.13146,0.22005 0.51822,0.47786 0.35808,0.23958 0.31251,0.39583 0.35808,0.35938 0.0339,0.11586 0.4401,0.23828 0.39843,0.23828 -1.15495,0.11973 -2.35025,0.0404 -3.50651,0.0404 0,-0.0807 -0.0391,-0.16016 0.11854,-0.26432 z"
         style="fill:#231f20;fill-opacity:1;fill-rule:nonzero;stroke:#231f20;stroke-width:1;stroke-linecap:butt;stroke-linejoin:miter;stroke-miterlimit:4;stroke-dasharray:none;stroke-opacity:1" /></g></g></svg>
