<?xml version="1.0" encoding="UTF-8" standalone="no"?>
<!-- Created with Inkscape (http://www.inkscape.org/) -->

<svg
   width="3.3513896mm"
   height="3.4175329mm"
   viewBox="0 0 3.3513897 3.4175329"
   version="1.1"
   id="svg1"
   xml:space="preserve"
   xmlns="http://www.w3.org/2000/svg"
   xmlns:svg="http://www.w3.org/2000/svg"><defs
     id="defs1" /><g
     id="g1"
     transform="matrix(0.26458333,0,0,0.26458333,-184.26781,-166.45944)"><g
       id="g15"><path
         id="path223"
         d="m 699.96092,634.90365 c 0,-1.78645 1.44792,-3.23437 3.23437,-3.23437 1.78516,0 3.23308,1.44792 3.23308,3.23437"
         style="fill:none;stroke:#231f20;stroke-width:1;stroke-linecap:butt;stroke-linejoin:miter;stroke-miterlimit:4;stroke-dasharray:none;stroke-opacity:1" /><path
         id="path224"
         d="m 706.28124,641.39714 c 0,0 0,-6.18229 0,-6.18229 0,0 -6.25782,0 -6.25782,0 0,0 0,6.18229 0,6.18229 z"
         style="fill:none;stroke:#231f20;stroke-width:1;stroke-linecap:butt;stroke-linejoin:miter;stroke-miterlimit:4;stroke-dasharray:none;stroke-opacity:1" /><path
         id="path225"
         d="m 698.27862,635.22137 c 0,0 9.91667,0 9.91667,0"
         style="fill:none;stroke:#231f20;stroke-width:1;stroke-linecap:butt;stroke-linejoin:miter;stroke-miterlimit:4;stroke-dasharray:none;stroke-opacity:1" /><path
         id="path226"
         d="m 696.44529,641.5547 c 0,0 12.66667,0 12.66667,0"
         style="fill:none;stroke:#231f20;stroke-width:1;stroke-linecap:butt;stroke-linejoin:miter;stroke-miterlimit:4;stroke-dasharray:none;stroke-opacity:1" /><path
         id="path227"
         d="m 703.02862,636.97137 c 0,0 0,4.58333 0,4.58333"
         style="fill:none;stroke:#231f20;stroke-width:2;stroke-linecap:butt;stroke-linejoin:miter;stroke-miterlimit:4;stroke-dasharray:none;stroke-opacity:1" /><path
         id="path228"
         d="m 703.19529,629.13804 c 0,0 0,2.25 0,2.25"
         style="fill:none;stroke:#231f20;stroke-width:1;stroke-linecap:butt;stroke-linejoin:miter;stroke-miterlimit:4;stroke-dasharray:none;stroke-opacity:1" /></g></g></svg>
