<?xml version="1.0" encoding="UTF-8" standalone="no"?>
<!-- Created with Inkscape (http://www.inkscape.org/) -->

<svg
   width="5.782937mm"
   height="5.6444435mm"
   viewBox="0 0 5.7829371 5.6444434"
   version="1.1"
   id="svg1"
   xml:space="preserve"
   xmlns="http://www.w3.org/2000/svg"
   xmlns:svg="http://www.w3.org/2000/svg"><defs
     id="defs1" /><g
     id="g1"
     transform="matrix(0.26458333,0,0,0.26458333,-69.270533,-185.47292)"><g
       id="g4"><path
         id="path229"
         d="m 272.77799,719.46356 c -4.3392,0 -7.85677,-3.51694 -7.85677,-7.85678 0,-4.33854 3.51757,-7.85677 7.85677,-7.85677 4.33854,0 7.85676,3.51823 7.85676,7.85677 0,4.33984 -3.51822,7.85678 -7.85676,7.85678 z"
         style="fill:none;stroke:#202970;stroke-width:1.33333;stroke-linecap:butt;stroke-linejoin:miter;stroke-miterlimit:4;stroke-dasharray:none;stroke-opacity:1" /><path
         id="path230"
         d="m 272.66666,701.00001 c 0,0 0,2.44531 0,2.44531"
         style="fill:none;stroke:#202970;stroke-width:1.33333;stroke-linecap:butt;stroke-linejoin:miter;stroke-miterlimit:4;stroke-dasharray:none;stroke-opacity:1" /><path
         id="path231"
         d="m 272.66666,719.33334 c 0,0 0,3 0,3"
         style="fill:none;stroke:#202970;stroke-width:1.33333;stroke-linecap:butt;stroke-linejoin:miter;stroke-miterlimit:4;stroke-dasharray:none;stroke-opacity:1" /><path
         id="path232"
         d="m 261.80989,711.60678 c 0,0 3.11133,0 3.11133,0"
         style="fill:none;stroke:#202970;stroke-width:1.33333;stroke-linecap:butt;stroke-linejoin:miter;stroke-miterlimit:4;stroke-dasharray:none;stroke-opacity:1" /><path
         id="path233"
         d="m 281.22199,711.66668 c 0,0 2.44467,0 2.44467,0"
         style="fill:none;stroke:#202970;stroke-width:1.33333;stroke-linecap:butt;stroke-linejoin:miter;stroke-miterlimit:4;stroke-dasharray:none;stroke-opacity:1" /></g></g></svg>
