<?xml version="1.0" encoding="UTF-8" standalone="no"?>
<!-- Created with Inkscape (http://www.inkscape.org/) -->

<svg
   width="5.782937mm"
   height="5.6444435mm"
   viewBox="0 0 5.7829371 5.6444434"
   version="1.1"
   id="svg1"
   xml:space="preserve"
   xmlns="http://www.w3.org/2000/svg"
   xmlns:svg="http://www.w3.org/2000/svg"><defs
     id="defs1" /><g
     id="g1"
     transform="matrix(0.26458333,0,0,0.26458333,-69.270533,-195.74757)"><g
       id="g5"><path
         id="path234"
         d="m 272.77799,758.29689 c -4.3392,0 -7.85677,-3.51694 -7.85677,-7.85678 0,-4.33854 3.51757,-7.85677 7.85677,-7.85677 4.33854,0 7.85676,3.51823 7.85676,7.85677 0,4.33984 -3.51822,7.85678 -7.85676,7.85678 z"
         style="fill:none;stroke:#202970;stroke-width:1.33333;stroke-linecap:butt;stroke-linejoin:miter;stroke-miterlimit:4;stroke-dasharray:none;stroke-opacity:1" /><path
         id="path235"
         d="m 272.66666,739.83334 c 0,0 0,2.44531 0,2.44531"
         style="fill:none;stroke:#202970;stroke-width:1.33333;stroke-linecap:butt;stroke-linejoin:miter;stroke-miterlimit:4;stroke-dasharray:none;stroke-opacity:1" /><path
         id="path236"
         d="m 272.66666,758.16667 c 0,0 0,3 0,3"
         style="fill:none;stroke:#202970;stroke-width:1.33333;stroke-linecap:butt;stroke-linejoin:miter;stroke-miterlimit:4;stroke-dasharray:none;stroke-opacity:1" /><path
         id="path237"
         d="m 261.80989,750.44011 c 0,0 3.11133,0 3.11133,0"
         style="fill:none;stroke:#202970;stroke-width:1.33333;stroke-linecap:butt;stroke-linejoin:miter;stroke-miterlimit:4;stroke-dasharray:none;stroke-opacity:1" /><path
         id="path238"
         d="m 281.22199,750.50001 c 0,0 2.44467,0 2.44467,0"
         style="fill:none;stroke:#202970;stroke-width:1.33333;stroke-linecap:butt;stroke-linejoin:miter;stroke-miterlimit:4;stroke-dasharray:none;stroke-opacity:1" /><path
         id="path269"
         d="m 274.65038,748.50782 c 0,0 -3.82487,0 -3.82487,0"
         style="fill:none;stroke:#202970;stroke-width:0.679987;stroke-linecap:butt;stroke-linejoin:miter;stroke-miterlimit:4;stroke-dasharray:none;stroke-opacity:1" /><path
         id="path270"
         d="m 272.77994,748.59246 c 0,0 0,5.10025 0,5.10025"
         style="fill:none;stroke:#202970;stroke-width:0.679987;stroke-linecap:butt;stroke-linejoin:miter;stroke-miterlimit:4;stroke-dasharray:none;stroke-opacity:1" /><path
         id="path271"
         d="m 275.75521,752.24741 c 0,0.83072 -1.34571,1.5026 -3.00522,1.5026 -1.6595,0 -3.00521,-0.67188 -3.00521,-1.5026"
         style="fill:none;stroke:#202970;stroke-width:0.679987;stroke-linecap:butt;stroke-linejoin:miter;stroke-miterlimit:4;stroke-dasharray:none;stroke-opacity:1" /><path
         id="path272"
         d="m 272.80533,748.04037 c -0.39843,0 -0.72135,-0.32422 -0.72135,-0.72135 0,-0.39844 0.32292,-0.72136 0.72135,-0.72136 0.39844,0 0.72136,0.32292 0.72136,0.72136 0,0.39713 -0.32292,0.72135 -0.72136,0.72135 z"
         style="fill:none;stroke:#202970;stroke-width:0.34;stroke-linecap:butt;stroke-linejoin:miter;stroke-miterlimit:4;stroke-dasharray:none;stroke-opacity:1" /><path
         id="path273"
         d="m 269.34635,751.36198 c 0,0 -0.278,1.28516 -0.278,1.28516 0,0 1.39454,-0.54948 1.39454,-0.54948 z"
         style="fill:#202970;fill-opacity:1;fill-rule:nonzero;stroke:none;stroke-width:1.33333" /><path
         id="path274"
         d="m 276.25521,751.39714 c 0,0 -1.14844,0.63932 -1.14844,0.63932 0,0 1.33333,0.68491 1.33333,0.68491 z"
         style="fill:#202970;fill-opacity:1;fill-rule:nonzero;stroke:none;stroke-width:1.33333" /></g></g></svg>
