<?xml version="1.0" encoding="UTF-8" standalone="no"?>
<!-- Created with Inkscape (http://www.inkscape.org/) -->

<svg
   width="4.5103178mm"
   height="4.5103202mm"
   viewBox="0 0 4.5103178 4.5103201"
   version="1.1"
   id="svg1"
   xml:space="preserve"
   xmlns="http://www.w3.org/2000/svg"
   xmlns:svg="http://www.w3.org/2000/svg"><defs
     id="defs1" /><g
     id="g1"
     transform="matrix(0.26458333,0,0,0.26458333,-69.887894,-206.80357)"><g
       id="g6"><path
         id="path239"
         d="m 272.66666,798.00001 c -4.33919,0 -7.85677,-3.51823 -7.85677,-7.85678 0,-4.33984 3.51758,-7.85677 7.85677,-7.85677 4.33919,0 7.85677,3.51693 7.85677,7.85677 0,4.33855 -3.51758,7.85678 -7.85677,7.85678 z"
         style="fill:none;stroke:#202970;stroke-width:1.33333;stroke-linecap:butt;stroke-linejoin:miter;stroke-miterlimit:4;stroke-dasharray:none;stroke-opacity:1" /><path
         id="path240"
         d="m 272.66666,795.64323 c -3.03711,0 -5.5,-2.46224 -5.5,-5.5 0,-3.03645 2.46289,-5.5 5.5,-5.5 3.03711,0 5.5,2.46355 5.5,5.5 0,3.03776 -2.46289,5.5 -5.5,5.5 z"
         style="fill:none;stroke:#202970;stroke-width:0.666667;stroke-linecap:butt;stroke-linejoin:miter;stroke-miterlimit:4;stroke-dasharray:none;stroke-opacity:1" /></g></g></svg>
