<?xml version="1.0" encoding="UTF-8" standalone="no"?>
<!-- Created with Inkscape (http://www.inkscape.org/) -->

<svg
   width="4.5103178mm"
   height="4.5103178mm"
   viewBox="0 0 4.5103178 4.5103177"
   version="1.1"
   id="svg1"
   xml:space="preserve"
   xmlns="http://www.w3.org/2000/svg"
   xmlns:svg="http://www.w3.org/2000/svg"><defs
     id="defs1" /><g
     id="g1"
     transform="matrix(0.26458333,0,0,0.26458333,-69.887894,-217.16642)"><g
       id="g7"><path
         id="path241"
         d="m 272.66666,837.16667 c -4.33919,0 -7.85677,-3.51822 -7.85677,-7.85677 0,-4.33984 3.51758,-7.85677 7.85677,-7.85677 4.33919,0 7.85677,3.51693 7.85677,7.85677 0,4.33855 -3.51758,7.85677 -7.85677,7.85677 z"
         style="fill:none;stroke:#202970;stroke-width:1.33333;stroke-linecap:butt;stroke-linejoin:miter;stroke-miterlimit:4;stroke-dasharray:none;stroke-opacity:1" /><path
         id="path242"
         d="m 272.66666,834.8099 c -3.03711,0 -5.5,-2.46224 -5.5,-5.5 0,-3.03645 2.46289,-5.5 5.5,-5.5 3.03711,0 5.5,2.46355 5.5,5.5 0,3.03776 -2.46289,5.5 -5.5,5.5 z"
         style="fill:none;stroke:#202970;stroke-width:0.666667;stroke-linecap:butt;stroke-linejoin:miter;stroke-miterlimit:4;stroke-dasharray:none;stroke-opacity:1" /><path
         id="path285"
         d="m 274.56705,827.59115 c 0,0 -3.82487,0 -3.82487,0"
         style="fill:none;stroke:#202970;stroke-width:0.679987;stroke-linecap:butt;stroke-linejoin:miter;stroke-miterlimit:4;stroke-dasharray:none;stroke-opacity:1" /><path
         id="path286"
         d="m 272.69661,827.67579 c 0,0 0,5.10026 0,5.10026"
         style="fill:none;stroke:#202970;stroke-width:0.679987;stroke-linecap:butt;stroke-linejoin:miter;stroke-miterlimit:4;stroke-dasharray:none;stroke-opacity:1" /><path
         id="path287"
         d="m 275.67187,831.33074 c 0,0.83072 -1.3457,1.5026 -3.00521,1.5026 -1.65951,0 -3.00521,-0.67188 -3.00521,-1.5026"
         style="fill:none;stroke:#202970;stroke-width:0.679987;stroke-linecap:butt;stroke-linejoin:miter;stroke-miterlimit:4;stroke-dasharray:none;stroke-opacity:1" /><path
         id="path288"
         d="m 272.72199,827.1237 c -0.39842,0 -0.72134,-0.32421 -0.72134,-0.72135 0,-0.39844 0.32292,-0.72136 0.72134,-0.72136 0.39844,0 0.72136,0.32292 0.72136,0.72136 0,0.39714 -0.32292,0.72135 -0.72136,0.72135 z"
         style="fill:none;stroke:#202970;stroke-width:0.34;stroke-linecap:butt;stroke-linejoin:miter;stroke-miterlimit:4;stroke-dasharray:none;stroke-opacity:1" /><path
         id="path289"
         d="m 269.26302,830.44531 c 0,0 -0.278,1.28516 -0.278,1.28516 0,0 1.39453,-0.54948 1.39453,-0.54948 0,0 -1.11653,-0.73568 -1.11653,-0.73568 z"
         style="fill:#202970;fill-opacity:1;fill-rule:nonzero;stroke:none;stroke-width:1.33333" /><path
         id="path290"
         d="m 276.17187,830.48047 c 0,0 -1.14844,0.63932 -1.14844,0.63932 0,0 1.33334,0.68491 1.33334,0.68491 z"
         style="fill:#202970;fill-opacity:1;fill-rule:nonzero;stroke:none;stroke-width:1.33333" /></g></g></svg>
