<?xml version="1.0" encoding="UTF-8" standalone="no"?>
<!-- Created with Inkscape (http://www.inkscape.org/) -->

<svg
   width="5.782937mm"
   height="5.6444435mm"
   viewBox="0 0 5.7829371 5.6444434"
   version="1.1"
   id="svg1"
   xml:space="preserve"
   xmlns="http://www.w3.org/2000/svg"
   xmlns:svg="http://www.w3.org/2000/svg"><defs
     id="defs1" /><g
     id="g1"
     transform="matrix(0.26458333,0,0,0.26458333,-125.94993,-185.25243)"><g
       id="g8"><path
         id="path243"
         d="m 486.99999,718.63022 c -4.33855,0 -7.85678,-3.51693 -7.85678,-7.85677 0,-4.33855 3.51823,-7.85677 7.85678,-7.85677 4.33854,0 7.85677,3.51822 7.85677,7.85677 0,4.33984 -3.51823,7.85677 -7.85677,7.85677 z"
         style="fill:none;stroke:#202970;stroke-width:1.33333;stroke-linecap:butt;stroke-linejoin:miter;stroke-miterlimit:4;stroke-dasharray:none;stroke-opacity:1" /><path
         id="path244"
         d="m 486.88801,700.16668 c 0,0 0,2.4453 0,2.4453"
         style="fill:none;stroke:#202970;stroke-width:1.33333;stroke-linecap:butt;stroke-linejoin:miter;stroke-miterlimit:4;stroke-dasharray:none;stroke-opacity:1" /><path
         id="path245"
         d="m 486.88801,718.50001 c 0,0 0,3 0,3"
         style="fill:none;stroke:#202970;stroke-width:1.33333;stroke-linecap:butt;stroke-linejoin:miter;stroke-miterlimit:4;stroke-dasharray:none;stroke-opacity:1" /><path
         id="path246"
         d="m 476.03124,710.77345 c 0,0 3.11197,0 3.11197,0"
         style="fill:none;stroke:#202970;stroke-width:1.33333;stroke-linecap:butt;stroke-linejoin:miter;stroke-miterlimit:4;stroke-dasharray:none;stroke-opacity:1" /><path
         id="path247"
         d="m 495.44529,710.83334 c 0,0 2.44272,0 2.44272,0"
         style="fill:none;stroke:#202970;stroke-width:1.33333;stroke-linecap:butt;stroke-linejoin:miter;stroke-miterlimit:4;stroke-dasharray:none;stroke-opacity:1" /><path
         id="path248"
         d="m 486.99999,716.38804 c -3.03646,0 -5.5,-2.46224 -5.5,-5.5 0,-3.03647 2.46354,-5.5 5.5,-5.5 3.03645,0 5.5,2.46353 5.5,5.5 0,3.03776 -2.46355,5.5 -5.5,5.5 z"
         style="fill:none;stroke:#202970;stroke-width:0.666667;stroke-linecap:butt;stroke-linejoin:miter;stroke-miterlimit:4;stroke-dasharray:none;stroke-opacity:1" /></g></g></svg>
