<?xml version="1.0" encoding="UTF-8" standalone="no"?>
<!-- Created with Inkscape (http://www.inkscape.org/) -->

<svg
   width="5.782937mm"
   height="5.6444464mm"
   viewBox="0 0 5.7829371 5.6444463"
   version="1.1"
   id="svg1"
   xml:space="preserve"
   xmlns="http://www.w3.org/2000/svg"
   xmlns:svg="http://www.w3.org/2000/svg"><defs
     id="defs1" /><g
     id="g1"
     transform="matrix(0.26458333,0,0,0.26458333,-125.94993,-195.70347)"><g
       id="g9"><path
         id="path249"
         d="m 486.99999,758.13022 c -4.33855,0 -7.85678,-3.51693 -7.85678,-7.85677 0,-4.33855 3.51823,-7.85678 7.85678,-7.85678 4.33854,0 7.85677,3.51823 7.85677,7.85678 0,4.33984 -3.51823,7.85677 -7.85677,7.85677 z"
         style="fill:none;stroke:#202970;stroke-width:1.33333;stroke-linecap:butt;stroke-linejoin:miter;stroke-miterlimit:4;stroke-dasharray:none;stroke-opacity:1" /><path
         id="path250"
         d="m 486.88801,739.66667 c 0,0 0,2.44531 0,2.44531"
         style="fill:none;stroke:#202970;stroke-width:1.33333;stroke-linecap:butt;stroke-linejoin:miter;stroke-miterlimit:4;stroke-dasharray:none;stroke-opacity:1" /><path
         id="path251"
         d="m 486.88801,758.00001 c 0,0 0,3 0,3"
         style="fill:none;stroke:#202970;stroke-width:1.33333;stroke-linecap:butt;stroke-linejoin:miter;stroke-miterlimit:4;stroke-dasharray:none;stroke-opacity:1" /><path
         id="path252"
         d="m 476.03124,750.27345 c 0,0 3.11197,0 3.11197,0"
         style="fill:none;stroke:#202970;stroke-width:1.33333;stroke-linecap:butt;stroke-linejoin:miter;stroke-miterlimit:4;stroke-dasharray:none;stroke-opacity:1" /><path
         id="path253"
         d="m 495.44529,750.33334 c 0,0 2.44272,0 2.44272,0"
         style="fill:none;stroke:#202970;stroke-width:1.33333;stroke-linecap:butt;stroke-linejoin:miter;stroke-miterlimit:4;stroke-dasharray:none;stroke-opacity:1" /><path
         id="path254"
         d="m 486.99999,755.88803 c -3.03646,0 -5.5,-2.46224 -5.5,-5.5 0,-3.03646 2.46354,-5.5 5.5,-5.5 3.03776,0 5.5,2.46354 5.5,5.5 0,3.03776 -2.46224,5.5 -5.5,5.5 z"
         style="fill:none;stroke:#202970;stroke-width:0.666667;stroke-linecap:butt;stroke-linejoin:miter;stroke-miterlimit:4;stroke-dasharray:none;stroke-opacity:1" /><path
         id="path263"
         d="m 489.0104,748.56381 c 0,0 -3.82421,0 -3.82421,0"
         style="fill:none;stroke:#202970;stroke-width:0.679987;stroke-linecap:butt;stroke-linejoin:miter;stroke-miterlimit:4;stroke-dasharray:none;stroke-opacity:1" /><path
         id="path264"
         d="m 487.14192,748.64714 c 0,0 0,5.10027 0,5.10027"
         style="fill:none;stroke:#202970;stroke-width:0.679987;stroke-linecap:butt;stroke-linejoin:miter;stroke-miterlimit:4;stroke-dasharray:none;stroke-opacity:1" /><path
         id="path265"
         d="m 490.11717,752.30339 c 0,0.82943 -1.34634,1.50131 -3.00521,1.50131 -1.66015,0 -3.0052,-0.67188 -3.0052,-1.50131"
         style="fill:none;stroke:#202970;stroke-width:0.679987;stroke-linecap:butt;stroke-linejoin:miter;stroke-miterlimit:4;stroke-dasharray:none;stroke-opacity:1" /><path
         id="path266"
         d="m 487.16665,748.09637 c -0.39844,0 -0.72136,-0.32292 -0.72136,-0.72136 0,-0.39974 0.32292,-0.72266 0.72136,-0.72266 0.39714,0 0.72006,0.32292 0.72006,0.72266 0,0.39844 -0.32292,0.72136 -0.72006,0.72136 z"
         style="fill:none;stroke:#202970;stroke-width:0.34;stroke-linecap:butt;stroke-linejoin:miter;stroke-miterlimit:4;stroke-dasharray:none;stroke-opacity:1" /><path
         id="path267"
         d="m 483.70832,751.41798 c 0,0 -0.27864,1.28515 -0.27864,1.28515 0,0 1.39452,-0.54948 1.39452,-0.54948 z"
         style="fill:#202970;fill-opacity:1;fill-rule:nonzero;stroke:none;stroke-width:1.33333" /><path
         id="path268"
         d="m 490.61717,751.45313 c 0,0 -1.14844,0.63933 -1.14844,0.63933 0,0 1.33204,0.68489 1.33204,0.68489 z"
         style="fill:#202970;fill-opacity:1;fill-rule:nonzero;stroke:none;stroke-width:1.33333" /></g></g></svg>
