<?xml version="1.0" encoding="UTF-8" standalone="no"?>
<!-- Created with Inkscape (http://www.inkscape.org/) -->

<svg
   width="3.9001911mm"
   height="4.0546532mm"
   viewBox="0 0 3.9001911 4.0546531"
   version="1.1"
   id="svg1"
   xml:space="preserve"
   xmlns="http://www.w3.org/2000/svg"
   xmlns:svg="http://www.w3.org/2000/svg"><defs
     id="defs1" /><g
     id="g1"
     transform="matrix(0.26458333,0,0,0.26458333,-184.05387,-186.23493)"><g
       id="g14"><path
         id="path257"
         d="m 706.79946,708.03908 c 0,0 -7.65104,0 -7.65104,0"
         style="fill:none;stroke:#202970;stroke-width:1.36;stroke-linecap:butt;stroke-linejoin:miter;stroke-miterlimit:4;stroke-dasharray:none;stroke-opacity:1" /><path
         id="path258"
         d="m 703.05858,708.20834 c 0,0 0,10.20052 0,10.20052"
         style="fill:none;stroke:#202970;stroke-width:1.36;stroke-linecap:butt;stroke-linejoin:miter;stroke-miterlimit:4;stroke-dasharray:none;stroke-opacity:1" /><path
         id="path259"
         d="m 709.0091,715.51954 c 0,1.66016 -2.69141,3.0052 -6.01042,3.0052 -3.319,0 -6.01042,-1.34504 -6.01042,-3.0052"
         style="fill:none;stroke:#202970;stroke-width:1.36;stroke-linecap:butt;stroke-linejoin:miter;stroke-miterlimit:4;stroke-dasharray:none;stroke-opacity:1" /><path
         id="path260"
         d="m 703.10805,707.10417 c -0.79556,0 -1.4414,-0.64583 -1.4414,-1.4414 0,-0.79817 0.64584,-1.44271 1.4414,-1.44271 0.79819,0 1.44401,0.64454 1.44401,1.44271 0,0.79557 -0.64582,1.4414 -1.44401,1.4414 z"
         style="fill:none;stroke:#202970;stroke-width:0.679987;stroke-linecap:butt;stroke-linejoin:miter;stroke-miterlimit:4;stroke-dasharray:none;stroke-opacity:1" /><path
         id="path261"
         d="m 696.19138,713.7487 c 0,0 -0.55468,2.56902 -0.55468,2.56902 0,0 2.78776,-1.09766 2.78776,-1.09766 z"
         style="fill:#202970;fill-opacity:1;fill-rule:nonzero;stroke:none;stroke-width:1.33333" /><path
         id="path262"
         d="m 710.0091,713.81902 c 0,0 -2.29557,1.27864 -2.29557,1.27864 0,0 2.66405,1.3711 2.66405,1.3711 z"
         style="fill:#202970;fill-opacity:1;fill-rule:nonzero;stroke:none;stroke-width:1.33333" /></g></g></svg>
