<?xml version="1.0" encoding="UTF-8" standalone="no"?>
<!-- Created with Inkscape (http://www.inkscape.org/) -->

<svg
   width="3.3072915mm"
   height="3.1488168mm"
   viewBox="0 0 3.3072915 3.1488168"
   version="1.1"
   id="svg1"
   xml:space="preserve"
   xmlns="http://www.w3.org/2000/svg"
   xmlns:svg="http://www.w3.org/2000/svg"><defs
     id="defs1" /><g
     id="g1"
     transform="matrix(0.26458333,0,0,0.26458333,-184.37082,-201.96734)"><g
       id="g13"><path
         id="path276"
         d="m 703.04165,773.4349 c -2.27735,0 -4.125,-1.84765 -4.125,-4.125 0,-2.27735 1.84765,-4.12369 4.125,-4.12369 2.27735,0 4.12369,1.84634 4.12369,4.12369 0,2.27735 -1.84634,4.125 -4.12369,4.125 z"
         style="fill:none;stroke:#202970;stroke-width:0.800013;stroke-linecap:butt;stroke-linejoin:miter;stroke-miterlimit:4;stroke-dasharray:none;stroke-opacity:1" /><path
         id="path277"
         d="m 702.98305,763.34115 c 0,0 0,2.08594 0,2.08594"
         style="fill:none;stroke:#202970;stroke-width:1.19999;stroke-linecap:butt;stroke-linejoin:miter;stroke-miterlimit:4;stroke-dasharray:none;stroke-opacity:1" /><path
         id="path278"
         d="m 702.98305,773.06381 c 0,0 0,2.17838 0,2.17838"
         style="fill:none;stroke:#202970;stroke-width:1.19999;stroke-linecap:butt;stroke-linejoin:miter;stroke-miterlimit:4;stroke-dasharray:none;stroke-opacity:1" /><path
         id="path279"
         d="m 696.83462,769.3099 c 0,0 2.10026,0 2.10026,0"
         style="fill:none;stroke:#202970;stroke-width:1.19999;stroke-linecap:butt;stroke-linejoin:miter;stroke-miterlimit:4;stroke-dasharray:none;stroke-opacity:1" /><path
         id="path280"
         d="m 706.89582,769.34115 c 0,0 2.4388,0 2.4388,0"
         style="fill:none;stroke:#202970;stroke-width:1.19999;stroke-linecap:butt;stroke-linejoin:miter;stroke-miterlimit:4;stroke-dasharray:none;stroke-opacity:1" /><path
         id="path281"
         d="m 698.83462,765.04167 c 0,0 1.49479,1.47656 1.49479,1.47656"
         style="fill:none;stroke:#202970;stroke-width:1.19999;stroke-linecap:butt;stroke-linejoin:miter;stroke-miterlimit:4;stroke-dasharray:none;stroke-opacity:1" /><path
         id="path282"
         d="m 705.76301,772.32162 c 0,0 1.47135,1.32032 1.47135,1.32032"
         style="fill:none;stroke:#202970;stroke-width:1.19999;stroke-linecap:butt;stroke-linejoin:miter;stroke-miterlimit:4;stroke-dasharray:none;stroke-opacity:1" /><path
         id="path283"
         d="m 698.53514,773.34115 c 0,0 1.85287,-1.25521 1.85287,-1.25521"
         style="fill:none;stroke:#202970;stroke-width:1.19999;stroke-linecap:butt;stroke-linejoin:miter;stroke-miterlimit:4;stroke-dasharray:none;stroke-opacity:1" /><path
         id="path284"
         d="m 706.09894,766.6823 c 0,0 1.23568,-1.74089 1.23568,-1.74089"
         style="fill:none;stroke:#202970;stroke-width:1.19999;stroke-linecap:butt;stroke-linejoin:miter;stroke-miterlimit:4;stroke-dasharray:none;stroke-opacity:1" /></g></g></svg>
