<?xml version="1.0" encoding="UTF-8" standalone="no"?>
<!-- Created with Inkscape (http://www.inkscape.org/) -->

<svg
   width="7.2863789mm"
   height="7.1120582mm"
   viewBox="0 0 7.2863789 7.1120581"
   version="1.1"
   id="svg1"
   xml:space="preserve"
   xmlns="http://www.w3.org/2000/svg"
   xmlns:svg="http://www.w3.org/2000/svg"><defs
     id="defs1" /><g
     id="g1"
     transform="matrix(0.26458333,0,0,0.26458333,-163.34024,-230.80589)"><g
       id="g29"><path
         id="path427"
         d="m 631.16925,895.60156 c -5.46744,0 -9.89973,-4.43229 -9.89973,-9.89844 0,-5.46744 4.43229,-9.89973 9.89973,-9.89973 5.46745,0 9.89975,4.43229 9.89975,9.89973 0,5.46615 -4.4323,9.89844 -9.89975,9.89844 z"
         style="fill:#202970;fill-opacity:1;fill-rule:nonzero;stroke:#202970;stroke-width:1.67999;stroke-linecap:butt;stroke-linejoin:miter;stroke-miterlimit:4;stroke-dasharray:none;stroke-opacity:1" /><path
         id="path428"
         d="m 631.02862,872.33724 c 0,0 0,3.08074 0,3.08074"
         style="fill:none;stroke:#202970;stroke-width:1.67999;stroke-linecap:butt;stroke-linejoin:miter;stroke-miterlimit:4;stroke-dasharray:none;stroke-opacity:1" /><path
         id="path429"
         d="m 631.02862,895.4375 c 0,0 0,3.77996 0,3.77996"
         style="fill:none;stroke:#202970;stroke-width:1.67999;stroke-linecap:butt;stroke-linejoin:miter;stroke-miterlimit:4;stroke-dasharray:none;stroke-opacity:1" /><path
         id="path430"
         d="m 617.34894,885.70312 c 0,0 3.92058,0 3.92058,0"
         style="fill:none;stroke:#202970;stroke-width:1.67999;stroke-linecap:butt;stroke-linejoin:miter;stroke-miterlimit:4;stroke-dasharray:none;stroke-opacity:1" /><path
         id="path431"
         d="m 641.80858,885.77864 c 0,0 3.07943,0 3.07943,0"
         style="fill:none;stroke:#202970;stroke-width:1.67999;stroke-linecap:butt;stroke-linejoin:miter;stroke-miterlimit:4;stroke-dasharray:none;stroke-opacity:1" /></g></g></svg>
