<?xml version="1.0" encoding="UTF-8" standalone="no"?>
<!-- Created with Inkscape (http://www.inkscape.org/) -->

<svg
   width="2.134989mm"
   height="2.134989mm"
   viewBox="0 0 2.134989 2.134989"
   version="1.1"
   id="svg1"
   xml:space="preserve"
   xmlns="http://www.w3.org/2000/svg"
   xmlns:svg="http://www.w3.org/2000/svg"><defs
     id="defs1" /><g
     id="g1"
     transform="matrix(0.26458333,0,0,0.26458333,-91.363037,-127.08902)"><g
       id="g3"><path
         id="path107"
         d="m 5.8348813,-2.9307984 c 0,0.4101562 -0.070312,0.7851562 -0.234375,1.1367187 -0.1523438,0.3515625 -0.3515625,0.6679688 -0.6210938,0.92578126 -0.2578125,0.26953125 -0.5742187,0.48046875 -0.9257812,0.6328125 -0.3515625,0.15234375 -0.7265625,0.234375 -1.125,0.234375 -0.4101563,0 -0.7851563,-0.08203125 -1.1367188,-0.234375 C 1.44035,-0.38782969 1.1239438,-0.59876719 0.86613125,-0.86829844 0.5966,-1.1261109 0.3856625,-1.4425172 0.23331875,-1.7940797 c -0.15234375,-0.3515625 -0.234375,-0.7265625 -0.234375,-1.1367187 0,-0.4101563 0.08203125,-0.796875 0.2578125,-1.1484375 0.15234375,-0.3515625 0.375,-0.6679688 0.65625,-0.9257813 C 1.1825375,-5.2628297 1.487225,-5.4620484 1.8387875,-5.6143922 2.19035,-5.7667359 2.5536313,-5.8370484 2.9286313,-5.8370484 c 0.3984375,0 0.7734375,0.082031 1.125,0.2460937 0.3515625,0.1640625 0.6679687,0.375 0.9257812,0.6445313 0.2695313,0.2695312 0.46875,0.5859375 0.6210938,0.9257812 0.1640625,0.3515625 0.234375,0.7148438 0.234375,1.0898438 z m -2.2851563,0 c 0,0.1992187 -0.070312,0.3515625 -0.1875,0.46875 -0.1289062,0.1289062 -0.28125,0.1875 -0.4570312,0.1875 -0.1757813,0 -0.328125,-0.058594 -0.4453125,-0.1875 -0.1289063,-0.1171875 -0.1875,-0.2695313 -0.1875,-0.46875 0,-0.082031 0.011719,-0.1640625 0.046875,-0.2460938 0.035156,-0.070312 0.082031,-0.140625 0.140625,-0.1875 0.070312,-0.058594 0.1289062,-0.1054687 0.2109375,-0.140625 0.082031,-0.023437 0.1523437,-0.046875 0.234375,-0.046875 0.1757812,0 0.328125,0.070312 0.4570312,0.1992188 0.1171875,0.1171875 0.1875,0.2695312 0.1875,0.421875 z m 1.7226563,0 c 0,-0.3046875 -0.058594,-0.5976563 -0.1757813,-0.890625 C 4.9676938,-4.0909547 4.7919125,-4.3487672 4.5926938,-4.5597047 4.3817563,-4.7823609 4.1356625,-4.9464234 3.8544125,-5.0870484 c -0.2929687,-0.1289063 -0.5976562,-0.1875 -0.9257812,-0.1875 -0.3164063,0 -0.609375,0.058594 -0.890625,0.1757812 -0.2695313,0.1171875 -0.5273438,0.2929688 -0.75,0.5039063 -0.2226563,0.1992187 -0.39843755,0.4570312 -0.5273438,0.7382812 -0.140625,0.2929688 -0.19921875,0.5976563 -0.19921875,0.9257813 0,0.328125 0.0585938,0.6328125 0.1875,0.9257812 0.1171875,0.28125 0.28125005,0.5390625 0.50390625,0.75 0.2109375,0.2226563 0.46875,0.38671876 0.75,0.50390626 0.2929688,0.12890625 0.5976563,0.1875 0.9257813,0.1875 0.3164062,0 0.6210937,-0.0585938 0.9140625,-0.1875 0.2929687,-0.1171875 0.5390625,-0.28124996 0.75,-0.50390626 0.1992187,-0.2109375 0.375,-0.46875 0.5039062,-0.75 0.1171875,-0.2929687 0.1757813,-0.5976562 0.1757813,-0.9257812 z m 0,0"
         style="fill:#615297;fill-opacity:1;fill-rule:nonzero;stroke:#615297;stroke-width:0.216;stroke-linecap:butt;stroke-linejoin:miter;stroke-miterlimit:22.926;stroke-dasharray:none;stroke-opacity:1"
         aria-label="|"
         transform="matrix(1.3333333,0,0,1.3333333,345.45453,488.2632)" /></g></g></svg>
