<?xml version="1.0" encoding="UTF-8" standalone="no"?>
<!-- Created with Inkscape (http://www.inkscape.org/) -->

<svg
   width="19.711811mm"
   height="19.711458mm"
   viewBox="0 0 19.711811 19.711458"
   version="1.1"
   id="svg1"
   xml:space="preserve"
   xmlns="http://www.w3.org/2000/svg"
   xmlns:svg="http://www.w3.org/2000/svg"><defs
     id="defs1" /><g
     id="g1"
     transform="matrix(0.26458333,0,0,0.26458333,-78.489527,-225.10185)"><g
       id="g9"><path
         id="path151"
         d="M 0,0 C 15.264,0 27.638,12.374 27.638,27.638 27.638,42.901 15.264,55.275 0,55.275 -15.264,55.275 -27.638,42.901 -27.638,27.638 -27.638,12.374 -15.264,0 0,0"
         style="fill:none;stroke:#615297;stroke-width:0.6;stroke-linecap:butt;stroke-linejoin:miter;stroke-miterlimit:22.926;stroke-dasharray:none;stroke-opacity:1"
         transform="matrix(1.3333333,0,0,-1.3333333,333.904,924.87867)" /><path
         id="path152"
         d="M 0,0 0.505,-2.999"
         style="fill:none;stroke:#615297;stroke-width:0.6;stroke-linecap:butt;stroke-linejoin:miter;stroke-miterlimit:22.926;stroke-dasharray:none;stroke-opacity:1"
         transform="matrix(1.3333333,0,0,-1.3333333,327.404,851.86133)" /><path
         id="path153"
         d="M 0,0 0.484,-2.878"
         style="fill:none;stroke:#615297;stroke-width:0.6;stroke-linecap:butt;stroke-linejoin:miter;stroke-miterlimit:22.926;stroke-dasharray:none;stroke-opacity:1"
         transform="matrix(1.3333333,0,0,-1.3333333,338.92533,920.35733)" /><path
         id="path154"
         d="M 0,0 -0.538,-2.867"
         style="fill:none;stroke:#615297;stroke-width:0.6;stroke-linecap:butt;stroke-linejoin:miter;stroke-miterlimit:22.926;stroke-dasharray:none;stroke-opacity:1"
         transform="matrix(1.3333333,0,0,-1.3333333,340.23733,852.028)" /><path
         id="path155"
         d="M 0,0 -0.566,-3.012"
         style="fill:none;stroke:#615297;stroke-width:0.6;stroke-linecap:butt;stroke-linejoin:miter;stroke-miterlimit:22.926;stroke-dasharray:none;stroke-opacity:1"
         transform="matrix(1.3333333,0,0,-1.3333333,327.492,920.012)" /><path
         id="path156"
         d="M 0,0 -1.19,-3.225"
         style="fill:none;stroke:#615297;stroke-width:0.6;stroke-linecap:butt;stroke-linejoin:miter;stroke-miterlimit:22.926;stroke-dasharray:none;stroke-opacity:1"
         transform="matrix(1.3333333,0,0,-1.3333333,345.904,853.36133)" /><path
         id="path157"
         d="M 0,0 -1.165,-3.157"
         style="fill:none;stroke:#615297;stroke-width:0.6;stroke-linecap:butt;stroke-linejoin:miter;stroke-miterlimit:22.926;stroke-dasharray:none;stroke-opacity:1"
         transform="matrix(1.3333333,0,0,-1.3333333,322.124,917.81867)" /><path
         id="path158"
         d="M 0,0 -27.875,-47.75"
         style="fill:none;stroke:#615297;stroke-width:0.6;stroke-linecap:butt;stroke-linejoin:miter;stroke-miterlimit:22.926;stroke-dasharray:none;stroke-opacity:1"
         transform="matrix(1.3333333,0,0,-1.3333333,352.07067,855.86133)" /><path
         id="path159"
         d="M 0,0 -2.143,-2.502"
         style="fill:none;stroke:#615297;stroke-width:0.6;stroke-linecap:butt;stroke-linejoin:miter;stroke-miterlimit:22.926;stroke-dasharray:none;stroke-opacity:1"
         transform="matrix(1.3333333,0,0,-1.3333333,357.404,859.86133)" /><path
         id="path160"
         d="M 0,0 -2.188,-2.555"
         style="fill:none;stroke:#615297;stroke-width:0.6;stroke-linecap:butt;stroke-linejoin:miter;stroke-miterlimit:22.926;stroke-dasharray:none;stroke-opacity:1"
         transform="matrix(1.3333333,0,0,-1.3333333,312.65467,912.12267)" /><path
         id="path161"
         d="M 0,0 -2.729,-2.248"
         style="fill:none;stroke:#615297;stroke-width:0.6;stroke-linecap:butt;stroke-linejoin:miter;stroke-miterlimit:22.926;stroke-dasharray:none;stroke-opacity:1"
         transform="matrix(1.3333333,0,0,-1.3333333,362.07067,864.02933)" /><path
         id="path162"
         d="M 0,0 -2.681,-2.21"
         style="fill:none;stroke:#615297;stroke-width:0.6;stroke-linecap:butt;stroke-linejoin:miter;stroke-miterlimit:22.926;stroke-dasharray:none;stroke-opacity:1"
         transform="matrix(1.3333333,0,0,-1.3333333,308.812,907.916)" /><path
         id="path163"
         d="M 0,0 -48,-27.375"
         style="fill:none;stroke:#615297;stroke-width:0.6;stroke-linecap:butt;stroke-linejoin:miter;stroke-miterlimit:22.926;stroke-dasharray:none;stroke-opacity:1"
         transform="matrix(1.3333333,0,0,-1.3333333,365.73733,869.36267)" /><path
         id="path164"
         d="M 0,0 -3.386,-1.218"
         style="fill:none;stroke:#615297;stroke-width:0.6;stroke-linecap:butt;stroke-linejoin:miter;stroke-miterlimit:22.926;stroke-dasharray:none;stroke-opacity:1"
         transform="matrix(1.3333333,0,0,-1.3333333,368.57067,875.196)" /><path
         id="path165"
         d="M 0,0 -3.348,-1.204"
         style="fill:none;stroke:#615297;stroke-width:0.6;stroke-linecap:butt;stroke-linejoin:miter;stroke-miterlimit:22.926;stroke-dasharray:none;stroke-opacity:1"
         transform="matrix(1.3333333,0,0,-1.3333333,303.53467,898.59067)" /><path
         id="path166"
         d="M 0,0 -3.627,-0.615"
         style="fill:none;stroke:#615297;stroke-width:0.6;stroke-linecap:butt;stroke-linejoin:miter;stroke-miterlimit:22.926;stroke-dasharray:none;stroke-opacity:1"
         transform="matrix(1.3333333,0,0,-1.3333333,370.40533,881.696)" /><path
         id="path167"
         d="M 0,0 -3.263,-0.555"
         style="fill:none;stroke:#615297;stroke-width:0.6;stroke-linecap:butt;stroke-linejoin:miter;stroke-miterlimit:22.926;stroke-dasharray:none;stroke-opacity:1"
         transform="matrix(1.3333333,0,0,-1.3333333,302.08933,893.28933)" /><path
         id="path168"
         d="M 0,0 3.355,-0.61"
         style="fill:none;stroke:#615297;stroke-width:0.6;stroke-linecap:butt;stroke-linejoin:miter;stroke-miterlimit:22.926;stroke-dasharray:none;stroke-opacity:1"
         transform="matrix(1.3333333,0,0,-1.3333333,297.73867,881.02933)" /><path
         id="path169"
         d="M 0,0 3.377,-0.615"
         style="fill:none;stroke:#615297;stroke-width:0.6;stroke-linecap:butt;stroke-linejoin:miter;stroke-miterlimit:22.926;stroke-dasharray:none;stroke-opacity:1"
         transform="matrix(1.3333333,0,0,-1.3333333,365.56933,893.376)" /><path
         id="path170"
         d="M 0,0 3.476,-1.314"
         style="fill:none;stroke:#615297;stroke-width:0.6;stroke-linecap:butt;stroke-linejoin:miter;stroke-miterlimit:22.926;stroke-dasharray:none;stroke-opacity:1"
         transform="matrix(1.3333333,0,0,-1.3333333,299.404,874.696)" /><path
         id="path171"
         d="M 0,0 3.366,-1.274"
         style="fill:none;stroke:#615297;stroke-width:0.6;stroke-linecap:butt;stroke-linejoin:miter;stroke-miterlimit:22.926;stroke-dasharray:none;stroke-opacity:1"
         transform="matrix(1.3333333,0,0,-1.3333333,364.08267,899.16533)" /><path
         id="path172"
         d="M 0,0 2.434,-2.076"
         style="fill:none;stroke:#615297;stroke-width:0.6;stroke-linecap:butt;stroke-linejoin:miter;stroke-miterlimit:22.926;stroke-dasharray:none;stroke-opacity:1"
         transform="matrix(1.3333333,0,0,-1.3333333,306.07067,864.19733)" /><path
         id="path173"
         d="M 0,0 2.629,-2.245"
         style="fill:none;stroke:#615297;stroke-width:0.6;stroke-linecap:butt;stroke-linejoin:miter;stroke-miterlimit:22.926;stroke-dasharray:none;stroke-opacity:1"
         transform="matrix(1.3333333,0,0,-1.3333333,358.39867,908.87067)" /><path
         id="path174"
         d="M 0,0 2.273,-2.73"
         style="fill:none;stroke:#615297;stroke-width:0.6;stroke-linecap:butt;stroke-linejoin:miter;stroke-miterlimit:22.926;stroke-dasharray:none;stroke-opacity:1"
         transform="matrix(1.3333333,0,0,-1.3333333,310.40533,859.364)" /><path
         id="path175"
         d="M 0,0 2.222,-2.67"
         style="fill:none;stroke:#615297;stroke-width:0.6;stroke-linecap:butt;stroke-linejoin:miter;stroke-miterlimit:22.926;stroke-dasharray:none;stroke-opacity:1"
         transform="matrix(1.3333333,0,0,-1.3333333,354.60933,912.47067)" /><path
         id="path176"
         d="M 0,0 27.125,-48.25"
         style="fill:none;stroke:#615297;stroke-width:0.6;stroke-linecap:butt;stroke-linejoin:miter;stroke-miterlimit:22.926;stroke-dasharray:none;stroke-opacity:1"
         transform="matrix(1.3333333,0,0,-1.3333333,315.73867,855.69733)" /><path
         id="path177"
         d="M 0,0 1.118,-3.127"
         style="fill:none;stroke:#615297;stroke-width:0.6;stroke-linecap:butt;stroke-linejoin:miter;stroke-miterlimit:22.926;stroke-dasharray:none;stroke-opacity:1"
         transform="matrix(1.3333333,0,0,-1.3333333,321.23867,853.53067)" /><path
         id="path178"
         d="M 0,0 1.172,-3.279"
         style="fill:none;stroke:#615297;stroke-width:0.6;stroke-linecap:butt;stroke-linejoin:miter;stroke-miterlimit:22.926;stroke-dasharray:none;stroke-opacity:1"
         transform="matrix(1.3333333,0,0,-1.3333333,344.34267,918.15733)" /><path
         id="path179"
         d="M 0,0 0.986,1.621 0.931,1.658 -1.713,0.608 C -2.634,0.406 -3.555,0.203 -4.476,0 c 0.921,-0.202 1.842,-0.404 2.763,-0.607 L 0.931,-1.658 0.986,-1.63 0,0"
         style="fill:#231f20;fill-opacity:1;fill-rule:evenodd;stroke:none"
         transform="matrix(1.3333333,0,0,-1.3333333,303.516,887.69467)" /><path
         id="path180"
         d="m 0,0 0.986,-1.62 -0.055,-0.037 -2.644,1.05 c -0.921,0.203 -1.842,0.405 -2.763,0.607 0.921,0.203 1.842,0.406 2.763,0.608 L 0.931,1.658 0.986,1.631 0,0"
         style="fill:#615297;fill-opacity:1;fill-rule:evenodd;stroke:none"
         transform="matrix(1.3333333,0,0,-1.3333333,303.516,887.69467)" /><path
         id="path181"
         d="M 0,0 1.622,0.986 1.658,0.931 0.608,-1.713 C 0.405,-2.635 0.203,-3.556 0,-4.476 c -0.203,0.92 -0.405,1.841 -0.608,2.763 L -1.658,0.931 -1.63,0.986 0,0"
         style="fill:#615297;fill-opacity:1;fill-rule:evenodd;stroke:none"
         transform="matrix(1.3333333,0,0,-1.3333333,333.97467,918.932)" /><path
         id="path182"
         d="m 0,0 -1.621,-0.985 -0.037,0.056 1.05,2.643 C -0.405,2.635 -0.203,3.556 0,4.476 0.203,3.556 0.405,2.635 0.608,1.714 L 1.658,-0.929 1.63,-0.985 0,0"
         style="fill:#615297;fill-opacity:1;fill-rule:evenodd;stroke:none"
         transform="matrix(1.3333333,0,0,-1.3333333,333.808,857.01333)" /><path
         id="path183"
         d="m 0,0 -0.997,1.614 0.055,0.037 2.651,-1.03 C 2.631,0.425 3.554,0.23 4.476,0.033 3.557,-0.177 2.638,-0.386 1.718,-0.596 L -0.918,-1.665 -0.973,-1.638 0,0"
         style="fill:#615297;fill-opacity:1;fill-rule:evenodd;stroke:none"
         transform="matrix(1.3333333,0,0,-1.3333333,364.444,888.04533)" /><path
         id="path184"
         d="M 0,0 47.625,-28"
         style="fill:none;stroke:#615297;stroke-width:0.6;stroke-linecap:butt;stroke-linejoin:miter;stroke-miterlimit:22.926;stroke-dasharray:none;stroke-opacity:1"
         transform="matrix(1.3333333,0,0,-1.3333333,302.07067,869.19467)" /><path
         id="path185"
         d="m 0,0 c 11.35,0 20.551,9.201 20.551,20.551 0,11.35 -9.201,20.551 -20.551,20.551 -11.35,0 -20.551,-9.201 -20.551,-20.551 C -20.551,9.201 -11.35,0 0,0"
         style="fill:#ffffff;fill-opacity:1;fill-rule:evenodd;stroke:none"
         transform="matrix(1.3333333,0,0,-1.3333333,333.904,915.42933)" /><path
         id="path186"
         d="M 0,0 C 0,0.617 0.125,1.12 0.375,1.509 0.625,1.898 0.977,2.093 1.43,2.093 1.879,2.093 2.217,1.93 2.443,1.606 2.668,1.282 2.781,0.715 2.781,-0.095 2.781,-0.79 2.663,-1.338 2.427,-1.738 2.19,-2.138 1.844,-2.337 1.389,-2.337 0.933,-2.337 0.588,-2.176 0.353,-1.854 0.118,-1.53 0,-0.913 0,0 Z m 0.586,-0.054 c 0,-1.188 0.254,-1.783 0.762,-1.783 0.291,0 0.505,0.132 0.642,0.395 0.137,0.264 0.205,0.725 0.205,1.386 0,0.454 -0.026,0.788 -0.079,1.001 C 2.063,1.158 1.978,1.319 1.861,1.429 1.744,1.538 1.595,1.592 1.415,1.592 0.862,1.592 0.586,1.044 0.586,-0.054 Z"
         style="fill:#615297;fill-opacity:1;fill-rule:evenodd;stroke:#615297;stroke-width:0.216;stroke-linecap:butt;stroke-linejoin:miter;stroke-miterlimit:22.926;stroke-dasharray:none;stroke-opacity:1"
         transform="matrix(1.3333333,0,0,-1.3333333,331.82,863.21733)" /><path
         id="path187"
         d="m 0,0 0.312,0.281 c 0.069,-0.17 0.299,-0.418 0.691,-0.744 0.392,-0.327 0.695,-0.508 0.908,-0.541 -0.154,0.16 -0.231,0.387 -0.231,0.678 0,0.38 0.121,0.683 0.363,0.913 0.241,0.229 0.574,0.342 0.998,0.342 0.419,0 0.757,-0.117 1.013,-0.352 0.256,-0.236 0.383,-0.532 0.383,-0.889 0,-0.942 -0.623,-1.415 -1.87,-1.415 -0.519,0 -1.05,0.186 -1.594,0.554 C 0.429,-0.804 0.105,-0.412 0,0 Z m 3.023,-1.109 c 0.61,0 0.914,0.252 0.914,0.754 0,0.211 -0.079,0.377 -0.238,0.5 C 3.541,0.268 3.331,0.328 3.07,0.328 2.8,0.328 2.583,0.264 2.422,0.135 2.26,0.006 2.18,-0.16 2.18,-0.363 c 0,-0.498 0.281,-0.746 0.843,-0.746 z"
         style="fill:#615297;fill-opacity:1;fill-rule:evenodd;stroke:#615297;stroke-width:0.216;stroke-linecap:butt;stroke-linejoin:miter;stroke-miterlimit:22.926;stroke-dasharray:none;stroke-opacity:1"
         transform="matrix(1.3333333,0,0,-1.3333333,354.744,886.95333)" /><path
         id="path188"
         d="M 0,0 V -3.295 L 0.875,-2.75 V -3.298 C 0.655,-3.408 0.421,-3.562 0.172,-3.757 -0.076,-3.952 -0.268,-4.138 -0.404,-4.313 H -0.586 V 0 Z"
         style="fill:#615297;fill-opacity:1;fill-rule:evenodd;stroke:#615297;stroke-width:0.216;stroke-linecap:butt;stroke-linejoin:miter;stroke-miterlimit:22.926;stroke-dasharray:none;stroke-opacity:1"
         transform="matrix(1.3333333,0,0,-1.3333333,336.392,909.67733)" /><path
         id="path189"
         d="M 0,0 C 0.182,-0.098 0.33,-0.233 0.445,-0.407 0.56,-0.581 0.618,-0.762 0.618,-0.947 0.618,-1.266 0.51,-1.518 0.295,-1.703 0.079,-1.89 -0.2,-1.982 -0.541,-1.982 c -0.369,0 -0.654,0.092 -0.857,0.279 -0.203,0.185 -0.304,0.438 -0.304,0.759 0,0.188 0.061,0.378 0.184,0.573 0.123,0.194 0.265,0.338 0.427,0.43 -0.517,0.289 -0.776,0.669 -0.776,1.14 0,0.397 0.119,0.704 0.358,0.922 0.239,0.218 0.566,0.327 0.982,0.327 0.867,0 1.301,-0.417 1.301,-1.249 C 0.774,0.959 0.7,0.723 0.551,0.49 0.403,0.257 0.219,0.094 0,0 Z m -0.456,0.255 c 0.43,0.232 0.644,0.547 0.644,0.943 0,0.213 -0.066,0.391 -0.199,0.535 -0.133,0.143 -0.305,0.215 -0.516,0.215 -0.219,0 -0.4,-0.07 -0.541,-0.212 -0.142,-0.14 -0.213,-0.319 -0.213,-0.538 0,-0.158 0.049,-0.307 0.147,-0.446 0.098,-0.141 0.324,-0.306 0.678,-0.497 z m -0.262,-0.437 c -0.266,-0.25 -0.399,-0.507 -0.399,-0.775 0,-0.161 0.053,-0.288 0.16,-0.383 0.106,-0.095 0.245,-0.143 0.414,-0.143 0.383,0 0.575,0.177 0.575,0.531 0,0.263 -0.25,0.518 -0.75,0.77 z"
         style="fill:#615297;fill-opacity:1;fill-rule:evenodd;stroke:#615297;stroke-width:0.216;stroke-linecap:butt;stroke-linejoin:miter;stroke-miterlimit:22.926;stroke-dasharray:none;stroke-opacity:1"
         transform="matrix(1.3333333,0,0,-1.3333333,332.76933,912.85867)" /><path
         id="path190"
         d="m 0,0 h -0.117 l -2.058,1.344 c -0.431,0.281 -0.797,0.422 -1.098,0.422 -0.396,0 -0.594,-0.22 -0.594,-0.659 0,-0.155 0.041,-0.3 0.124,-0.436 0.082,-0.136 0.187,-0.234 0.313,-0.296 L -3.74,0 c -0.192,0.065 -0.344,0.194 -0.457,0.387 -0.113,0.191 -0.17,0.424 -0.17,0.696 0,0.407 0.095,0.726 0.285,0.955 0.191,0.231 0.459,0.345 0.806,0.345 0.322,0 0.728,-0.154 1.217,-0.464 L -0.531,0.953 V 2.641 H 0 Z"
         style="fill:#615297;fill-opacity:1;fill-rule:evenodd;stroke:#615297;stroke-width:0.216;stroke-linecap:butt;stroke-linejoin:miter;stroke-miterlimit:22.926;stroke-dasharray:none;stroke-opacity:1"
         transform="matrix(1.3333333,0,0,-1.3333333,312.97067,892.52667)" /><path
         id="path191"
         d="m 0,0 v -0.648 c -0.46,0.144 -1.067,0.386 -1.823,0.727 -0.756,0.342 -1.401,0.654 -1.935,0.937 v -2.024 h -0.554 v 2.781 h 0.228 L -3.339,1.395 C -3.087,1.268 -2.811,1.136 -2.509,0.998 -2.208,0.859 -1.901,0.724 -1.589,0.591 -1.276,0.458 -0.986,0.343 -0.718,0.243 -0.45,0.144 -0.211,0.063 0,0 Z"
         style="fill:#615297;fill-opacity:1;fill-rule:evenodd;stroke:#615297;stroke-width:0.216;stroke-linecap:butt;stroke-linejoin:miter;stroke-miterlimit:22.926;stroke-dasharray:none;stroke-opacity:1"
         transform="matrix(1.3333333,0,0,-1.3333333,312.97067,886.92533)" /></g></g></svg>
